%
M48
M72
T01C0.02756
T02C0.03200
T03C0.03543
T04C0.03800
T05C0.04000
T06C0.04331
T07C0.05118
T08C0.10000
%
T01
X179693Y163787
X179693Y171661
X179693Y179535
X179693Y187409
X179693Y195283
X179693Y203157
X179693Y211031
X179693Y218906
X179693Y226780
X179693Y234654
X127800Y220400
X127800Y210400
X92800Y210400
X92800Y220400
X266307Y218906
X266307Y211031
X266307Y203157
X266307Y195283
X266307Y187409
X266307Y179535
X266307Y171661
X266307Y163787
X266307Y226780
X266307Y234654
X198000Y48000
X198000Y38000
X219063Y25835
X226937Y25835
T02
X248000Y58000
X258000Y58000
X258000Y98000
X248000Y98000
X248000Y138000
X258000Y138000
T03
X163000Y221700
X148000Y221700
X148000Y261700
X163000Y261700
T04
X73000Y238000
X73000Y228000
X63000Y228000
X73000Y218000
X73000Y208000
X63000Y208000
X63000Y198000
X73000Y198000
X73000Y188000
X73000Y178000
X63000Y188000
X73000Y168000
X73000Y158000
X73000Y148000
X73000Y138000
X73000Y128000
X73000Y118000
X73000Y108000
X13000Y108000
X13000Y118000
X13000Y128000
X13000Y138000
X13000Y148000
X13000Y158000
X13000Y168000
X13000Y178000
X13000Y188000
X13000Y198000
X13000Y208000
X13000Y218000
X13000Y228000
X13000Y238000
T05
X93000Y253000
X93000Y263000
X103000Y263000
X103000Y253000
X113000Y253000
X113000Y263000
X123000Y263000
X123000Y253000
X110500Y190500
X110500Y180500
X110500Y170500
X110500Y160500
X110500Y150500
X110500Y140500
X110500Y130500
X110500Y120500
X110500Y110500
X110500Y100500
X110500Y90500
X153000Y48000
X153000Y38000
X153000Y28000
X178000Y28000
X178000Y38000
X178000Y48000
X78000Y38000
X68000Y38000
X68000Y28000
X68000Y18000
X78000Y18000
X78000Y28000
X58000Y28000
X58000Y18000
X48000Y18000
X48000Y28000
X48000Y38000
X58000Y38000
T06
X193000Y108000
X203000Y108000
X213000Y108000
X213000Y138000
X203000Y138000
X193000Y138000
T07
X113000Y61937
X131898Y50126
X113000Y39102
T08
X18000Y18000
X18000Y263000
X263000Y263000
X263000Y18000
M30
