%
M48
M72
T01C0.02756
T02C0.03200
T03C0.03543
T04C0.03800
T05C0.04000
T06C0.04331
T07C0.05118
T08C0.10000
%
T01
X269288Y249720
X269288Y257594
X269288Y265469
X269288Y273343
X269288Y281217
X269288Y289091
X269288Y296965
X269288Y304839
X269288Y312713
X269288Y320587
X217395Y306333
X217395Y296333
X182395Y296333
X182395Y306333
X287595Y133933
X287595Y123933
X308658Y111768
X316532Y111768
X355902Y249720
X355902Y257594
X355902Y265469
X355902Y273343
X355902Y281217
X355902Y289091
X355902Y296965
X355902Y304839
X355902Y312713
X355902Y320587
T02
X347595Y223933
X337595Y223933
X337595Y183933
X347595Y183933
X347595Y143933
X337595Y143933
T03
X252595Y307633
X237595Y307633
X237595Y347633
X252595Y347633
T04
X162595Y323933
X162595Y313933
X152595Y313933
X162595Y303933
X162595Y293933
X152595Y293933
X152595Y283933
X152595Y273933
X162595Y273933
X162595Y283933
X162595Y263933
X162595Y253933
X162595Y243933
X162595Y233933
X162595Y223933
X162595Y213933
X162595Y203933
X162595Y193933
X102595Y193933
X102595Y203933
X102595Y213933
X102595Y223933
X102595Y233933
X102595Y243933
X102595Y253933
X102595Y263933
X102595Y273933
X102595Y283933
X102595Y293933
X102595Y303933
X102595Y313933
X102595Y323933
T05
X182595Y338933
X192595Y338933
X192595Y348933
X182595Y348933
X202595Y348933
X202595Y338933
X212595Y338933
X212595Y348933
X200095Y276433
X200095Y266433
X200095Y256433
X200095Y246433
X200095Y236433
X200095Y226433
X200095Y216433
X200095Y206433
X200095Y196433
X200095Y186433
X200095Y176433
X242595Y133933
X242595Y123933
X242595Y113933
X267595Y113933
X267595Y123933
X267595Y133933
X167595Y123933
X157595Y123933
X147595Y123933
X137595Y123933
X137595Y113933
X137595Y103933
X147595Y103933
X147595Y113933
X157595Y113933
X157595Y103933
X167595Y103933
X167595Y113933
T06
X282595Y193933
X292595Y193933
X302595Y193933
X302595Y223933
X292595Y223933
X282595Y223933
T07
X202595Y147870
X221493Y136059
X202595Y125035
T08
X107595Y103933
X107595Y348933
X352595Y348933
X352595Y103933
M30
