G75*
%MOIN*%
%OFA0B0*%
%FSLAX25Y25*%
%IPPOS*%
%LPD*%
%AMOC8*
5,1,8,0,0,1.08239X$1,22.5*
%
%ADD10C,0.10800*%
%ADD11C,0.07531*%
%ADD12C,0.07300*%
%ADD13C,0.08200*%
%ADD14C,0.08477*%
%ADD15C,0.07099*%
%ADD16C,0.06400*%
%ADD17R,0.06400X0.06400*%
%ADD18C,0.07000*%
%ADD19R,0.07300X0.07300*%
D10*
X0107595Y0103933D03*
X0107595Y0348933D03*
X0352595Y0348933D03*
X0352595Y0103933D03*
D11*
X0302595Y0190568D02*
X0302595Y0197298D01*
X0292595Y0197298D02*
X0292595Y0190568D01*
X0282595Y0190568D02*
X0282595Y0197298D01*
X0282595Y0220568D02*
X0282595Y0227298D01*
X0292595Y0227298D02*
X0292595Y0220568D01*
X0302595Y0220568D02*
X0302595Y0227298D01*
D12*
X0217395Y0296333D03*
X0182395Y0296333D03*
X0182395Y0306333D03*
X0287595Y0133933D03*
X0287595Y0123933D03*
D13*
X0267595Y0123933D03*
X0267595Y0113933D03*
X0267595Y0133933D03*
X0242595Y0133933D03*
X0242595Y0123933D03*
X0242595Y0113933D03*
X0200095Y0176433D03*
X0200095Y0186433D03*
X0200095Y0196433D03*
X0200095Y0206433D03*
X0200095Y0216433D03*
X0200095Y0226433D03*
X0200095Y0236433D03*
X0200095Y0246433D03*
X0200095Y0256433D03*
X0200095Y0266433D03*
X0200095Y0276433D03*
X0237595Y0307633D03*
X0252595Y0307633D03*
X0252595Y0347633D03*
X0237595Y0347633D03*
X0212595Y0348933D03*
X0202595Y0348933D03*
X0192595Y0348933D03*
X0182595Y0348933D03*
X0182595Y0338933D03*
X0192595Y0338933D03*
X0202595Y0338933D03*
X0212595Y0338933D03*
X0337595Y0223933D03*
X0347595Y0223933D03*
X0347595Y0183933D03*
X0337595Y0183933D03*
X0337595Y0143933D03*
X0347595Y0143933D03*
X0167595Y0123933D03*
X0157595Y0123933D03*
X0147595Y0123933D03*
X0137595Y0123933D03*
X0137595Y0113933D03*
X0137595Y0103933D03*
X0147595Y0103933D03*
X0147595Y0113933D03*
X0157595Y0113933D03*
X0157595Y0103933D03*
X0167595Y0103933D03*
X0167595Y0113933D03*
D14*
X0202595Y0125035D03*
X0221493Y0136059D03*
X0202595Y0147870D03*
D15*
X0308658Y0111768D03*
X0316532Y0111768D03*
D16*
X0355902Y0249720D03*
X0355902Y0257594D03*
X0355902Y0265469D03*
X0355902Y0273343D03*
X0355902Y0281217D03*
X0355902Y0289091D03*
X0355902Y0296965D03*
X0355902Y0304839D03*
X0355902Y0312713D03*
X0355902Y0320587D03*
X0269288Y0312713D03*
X0269288Y0304839D03*
X0269288Y0296965D03*
X0269288Y0289091D03*
X0269288Y0281217D03*
X0269288Y0273343D03*
X0269288Y0265469D03*
X0269288Y0257594D03*
X0269288Y0249720D03*
D17*
X0269288Y0320587D03*
D18*
X0162595Y0323933D03*
X0162595Y0313933D03*
X0152595Y0313933D03*
X0162595Y0303933D03*
X0162595Y0293933D03*
X0152595Y0293933D03*
X0152595Y0283933D03*
X0152595Y0273933D03*
X0162595Y0273933D03*
X0162595Y0283933D03*
X0162595Y0263933D03*
X0162595Y0253933D03*
X0162595Y0243933D03*
X0162595Y0233933D03*
X0162595Y0223933D03*
X0162595Y0213933D03*
X0162595Y0203933D03*
X0162595Y0193933D03*
X0102595Y0193933D03*
X0102595Y0203933D03*
X0102595Y0213933D03*
X0102595Y0223933D03*
X0102595Y0233933D03*
X0102595Y0243933D03*
X0102595Y0253933D03*
X0102595Y0263933D03*
X0102595Y0273933D03*
X0102595Y0283933D03*
X0102595Y0293933D03*
X0102595Y0303933D03*
X0102595Y0313933D03*
X0102595Y0323933D03*
D19*
X0217395Y0306333D03*
M02*
