G75*
%MOIN*%
%OFA0B0*%
%FSLAX25Y25*%
%IPPOS*%
%LPD*%
%AMOC8*
5,1,8,0,0,1.08239X$1,22.5*
%
%ADD10C,0.01600*%
%ADD11C,0.01200*%
%ADD12C,0.00800*%
D10*
X0133800Y0077959D02*
X0133800Y0087167D01*
X0136869Y0090236D01*
X0139939Y0090236D01*
X0143008Y0087167D01*
X0143008Y0077959D01*
X0133800Y0077959D02*
X0152216Y0077959D01*
X0152216Y0087167D01*
X0149146Y0090236D01*
X0146077Y0090236D01*
X0143008Y0087167D01*
X0133800Y0096375D02*
X0152216Y0108652D01*
X0152216Y0114791D02*
X0152216Y0123998D01*
X0149146Y0127068D01*
X0136869Y0127068D01*
X0133800Y0123998D01*
X0133800Y0114791D01*
X0152216Y0114791D01*
X0152216Y0096375D02*
X0133800Y0108652D01*
X0133800Y0133206D02*
X0146077Y0133206D01*
X0139939Y0133206D02*
X0146077Y0139345D01*
X0146077Y0142414D01*
X0143008Y0148553D02*
X0136869Y0148553D01*
X0133800Y0151622D01*
X0133800Y0157761D01*
X0136869Y0160830D01*
X0143008Y0160830D01*
X0146077Y0157761D01*
X0146077Y0151622D01*
X0143008Y0148553D01*
X0146077Y0166969D02*
X0133800Y0166969D01*
X0133800Y0179246D02*
X0143008Y0179246D01*
X0146077Y0176176D01*
X0146077Y0166969D01*
X0143008Y0185384D02*
X0136869Y0185384D01*
X0133800Y0188454D01*
X0133800Y0194592D01*
X0139939Y0197661D02*
X0139939Y0185384D01*
X0143008Y0185384D02*
X0146077Y0188454D01*
X0146077Y0194592D01*
X0143008Y0197661D01*
X0139939Y0197661D01*
D11*
X0097412Y0185283D02*
X0097412Y0180679D01*
X0095110Y0178377D01*
X0085902Y0178377D01*
X0083600Y0180679D01*
X0083600Y0185283D01*
X0085902Y0187585D01*
X0090506Y0187585D01*
X0090506Y0182981D01*
X0095110Y0187585D02*
X0097412Y0185283D01*
X0085902Y0192188D02*
X0085902Y0194490D01*
X0083600Y0194490D01*
X0083600Y0192188D01*
X0085902Y0192188D01*
X0092808Y0159961D02*
X0092808Y0157659D01*
X0088204Y0153055D01*
X0083600Y0153055D02*
X0092808Y0153055D01*
X0090506Y0148451D02*
X0088204Y0148451D01*
X0088204Y0139243D01*
X0085902Y0139243D02*
X0090506Y0139243D01*
X0092808Y0141545D01*
X0092808Y0146149D01*
X0090506Y0148451D01*
X0083600Y0146149D02*
X0083600Y0141545D01*
X0085902Y0139243D01*
X0083600Y0134639D02*
X0083600Y0130035D01*
X0083600Y0132337D02*
X0092808Y0132337D01*
X0092808Y0130035D01*
X0097412Y0132337D02*
X0099714Y0132337D01*
X0092808Y0125431D02*
X0083600Y0120828D01*
X0092808Y0116224D01*
X0090506Y0111620D02*
X0083600Y0111620D01*
X0083600Y0104714D01*
X0085902Y0102412D01*
X0088204Y0104714D01*
X0088204Y0111620D01*
X0090506Y0111620D02*
X0092808Y0109318D01*
X0092808Y0104714D01*
X0097412Y0097808D02*
X0097412Y0093204D01*
X0097412Y0095506D02*
X0085902Y0095506D01*
X0083600Y0093204D01*
X0083600Y0090902D01*
X0085902Y0088600D01*
D12*
X0029539Y0069539D02*
X0023400Y0063400D01*
X0023400Y0069539D01*
X0024935Y0072608D02*
X0031073Y0078746D01*
X0024935Y0078746D01*
X0023400Y0077212D01*
X0023400Y0074142D01*
X0024935Y0072608D01*
X0031073Y0072608D01*
X0032608Y0074142D01*
X0032608Y0077212D01*
X0031073Y0078746D01*
X0029539Y0081816D02*
X0032608Y0084885D01*
X0023400Y0084885D01*
X0023400Y0081816D02*
X0023400Y0087954D01*
X0024935Y0091024D02*
X0023400Y0092558D01*
X0023400Y0095628D01*
X0024935Y0097162D01*
X0026469Y0097162D01*
X0028004Y0095628D01*
X0028004Y0091024D01*
X0024935Y0091024D01*
X0028004Y0091024D02*
X0031073Y0094093D01*
X0032608Y0097162D01*
X0035331Y0097162D02*
X0035331Y0098697D01*
X0036865Y0100231D01*
X0044539Y0100231D01*
X0044539Y0095627D01*
X0043004Y0094093D01*
X0039935Y0094093D01*
X0038400Y0095627D01*
X0038400Y0100231D01*
X0038400Y0103301D02*
X0047608Y0103301D01*
X0044539Y0104835D02*
X0044539Y0107905D01*
X0043004Y0109439D01*
X0038400Y0109439D01*
X0039935Y0112509D02*
X0038400Y0114043D01*
X0038400Y0118647D01*
X0043004Y0118647D01*
X0044539Y0117113D01*
X0044539Y0114043D01*
X0041469Y0114043D02*
X0041469Y0118647D01*
X0039935Y0121716D02*
X0038400Y0123251D01*
X0039935Y0124786D01*
X0038400Y0126320D01*
X0039935Y0127855D01*
X0044539Y0127855D01*
X0047608Y0130924D02*
X0038400Y0130924D01*
X0041469Y0130924D02*
X0044539Y0135528D01*
X0039935Y0138598D02*
X0039935Y0140132D01*
X0038400Y0140132D01*
X0038400Y0138598D01*
X0039935Y0138598D01*
X0038400Y0135528D02*
X0041469Y0130924D01*
X0039935Y0121716D02*
X0044539Y0121716D01*
X0041469Y0114043D02*
X0039935Y0112509D01*
X0044539Y0104835D02*
X0043004Y0103301D01*
X0038400Y0091024D02*
X0038400Y0087954D01*
X0038400Y0089489D02*
X0044539Y0089489D01*
X0044539Y0087954D01*
X0044539Y0084885D02*
X0038400Y0081816D01*
X0044539Y0078746D01*
X0043004Y0075677D02*
X0038400Y0075677D01*
X0038400Y0071073D01*
X0039935Y0069539D01*
X0041469Y0071073D01*
X0041469Y0075677D01*
X0043004Y0075677D02*
X0044539Y0074142D01*
X0044539Y0071073D01*
X0044539Y0066469D02*
X0036865Y0066469D01*
X0035331Y0064935D01*
X0035331Y0063400D01*
X0032608Y0064935D02*
X0031073Y0063400D01*
X0032608Y0064935D02*
X0032608Y0068004D01*
X0031073Y0069539D01*
X0029539Y0069539D01*
X0047608Y0066469D02*
X0049143Y0066469D01*
X0049143Y0089489D02*
X0047608Y0089489D01*
X0044539Y0143201D02*
X0039935Y0143201D01*
X0038400Y0144736D01*
X0039935Y0146271D01*
X0038400Y0147805D01*
X0039935Y0149340D01*
X0044539Y0149340D01*
X0043004Y0152409D02*
X0039935Y0152409D01*
X0038400Y0153944D01*
X0038400Y0157013D01*
X0039935Y0158548D01*
X0043004Y0158548D01*
X0044539Y0157013D01*
X0044539Y0153944D01*
X0043004Y0152409D01*
X0044539Y0161617D02*
X0038400Y0161617D01*
X0041469Y0161617D02*
X0044539Y0164686D01*
X0044539Y0166221D01*
X0043004Y0169290D02*
X0039935Y0169290D01*
X0038400Y0170825D01*
X0038400Y0175429D01*
X0047608Y0175429D01*
X0044539Y0175429D02*
X0044539Y0170825D01*
X0043004Y0169290D01*
X0044539Y0178498D02*
X0035331Y0178498D01*
X0038400Y0178498D02*
X0038400Y0183102D01*
X0039935Y0184637D01*
X0043004Y0184637D01*
X0044539Y0183102D01*
X0044539Y0178498D01*
X0044539Y0187706D02*
X0038400Y0187706D01*
X0041469Y0187706D02*
X0044539Y0190775D01*
X0044539Y0192310D01*
X0043004Y0195379D02*
X0039935Y0195379D01*
X0038400Y0196914D01*
X0038400Y0199983D01*
X0041469Y0201518D02*
X0041469Y0195379D01*
X0043004Y0195379D02*
X0044539Y0196914D01*
X0044539Y0199983D01*
X0043004Y0201518D01*
X0041469Y0201518D01*
X0043004Y0204587D02*
X0044539Y0206122D01*
X0044539Y0210726D01*
X0041469Y0209191D02*
X0041469Y0206122D01*
X0043004Y0204587D01*
X0038400Y0204587D02*
X0038400Y0209191D01*
X0039935Y0210726D01*
X0041469Y0209191D01*
X0043004Y0213795D02*
X0041469Y0215330D01*
X0041469Y0218399D01*
X0039935Y0219934D01*
X0038400Y0218399D01*
X0038400Y0213795D01*
X0043004Y0213795D02*
X0044539Y0215330D01*
X0044539Y0219934D01*
X0039935Y0223003D02*
X0039935Y0224538D01*
X0038400Y0224538D01*
X0038400Y0223003D01*
X0039935Y0223003D01*
X0039935Y0227607D02*
X0038400Y0229141D01*
X0038400Y0233745D01*
X0039935Y0236815D02*
X0038400Y0238349D01*
X0038400Y0241419D01*
X0039935Y0242953D01*
X0043004Y0242953D01*
X0044539Y0241419D01*
X0044539Y0238349D01*
X0043004Y0236815D01*
X0039935Y0236815D01*
X0044539Y0233745D02*
X0044539Y0229141D01*
X0043004Y0227607D01*
X0039935Y0227607D01*
X0038400Y0246023D02*
X0044539Y0246023D01*
X0044539Y0247557D01*
X0043004Y0249092D01*
X0044539Y0250626D01*
X0043004Y0252161D01*
X0038400Y0252161D01*
X0038400Y0249092D02*
X0043004Y0249092D01*
M02*
