G75*
%MOIN*%
%OFA0B0*%
%FSLAX25Y25*%
%IPPOS*%
%LPD*%
%AMOC8*
5,1,8,0,0,1.08239X$1,22.5*
%
%ADD10C,0.06731*%
%ADD11C,0.06500*%
%ADD12C,0.07400*%
%ADD13C,0.07677*%
%ADD14C,0.06299*%
%ADD15C,0.05600*%
%ADD16R,0.05600X0.05600*%
%ADD17C,0.06200*%
%ADD18R,0.06500X0.06500*%
%ADD19C,0.04000*%
%ADD20C,0.02000*%
D10*
X0193000Y0104635D02*
X0193000Y0111365D01*
X0203000Y0111365D02*
X0203000Y0104635D01*
X0213000Y0104635D02*
X0213000Y0111365D01*
X0213000Y0134635D02*
X0213000Y0141365D01*
X0203000Y0141365D02*
X0203000Y0134635D01*
X0193000Y0134635D02*
X0193000Y0141365D01*
D11*
X0127800Y0210400D03*
X0092800Y0210400D03*
X0092800Y0220400D03*
X0198000Y0048000D03*
X0198000Y0038000D03*
D12*
X0178000Y0038000D03*
X0178000Y0028000D03*
X0178000Y0048000D03*
X0153000Y0048000D03*
X0153000Y0038000D03*
X0153000Y0028000D03*
X0110500Y0090500D03*
X0110500Y0100500D03*
X0110500Y0110500D03*
X0110500Y0120500D03*
X0110500Y0130500D03*
X0110500Y0140500D03*
X0110500Y0150500D03*
X0110500Y0160500D03*
X0110500Y0170500D03*
X0110500Y0180500D03*
X0110500Y0190500D03*
X0148000Y0221700D03*
X0163000Y0221700D03*
X0163000Y0261700D03*
X0148000Y0261700D03*
X0123000Y0263000D03*
X0123000Y0253000D03*
X0113000Y0253000D03*
X0113000Y0263000D03*
X0103000Y0263000D03*
X0103000Y0253000D03*
X0093000Y0253000D03*
X0093000Y0263000D03*
X0248000Y0138000D03*
X0258000Y0138000D03*
X0258000Y0098000D03*
X0248000Y0098000D03*
X0248000Y0058000D03*
X0258000Y0058000D03*
X0078000Y0038000D03*
X0068000Y0038000D03*
X0068000Y0028000D03*
X0068000Y0018000D03*
X0078000Y0018000D03*
X0078000Y0028000D03*
X0058000Y0028000D03*
X0058000Y0018000D03*
X0048000Y0018000D03*
X0048000Y0028000D03*
X0048000Y0038000D03*
X0058000Y0038000D03*
D13*
X0113000Y0039102D03*
X0131898Y0050126D03*
X0113000Y0061937D03*
D14*
X0219063Y0025835D03*
X0226937Y0025835D03*
D15*
X0266307Y0163787D03*
X0266307Y0171661D03*
X0266307Y0179535D03*
X0266307Y0187409D03*
X0266307Y0195283D03*
X0266307Y0203157D03*
X0266307Y0211031D03*
X0266307Y0218906D03*
X0266307Y0226780D03*
X0266307Y0234654D03*
X0179693Y0226780D03*
X0179693Y0218906D03*
X0179693Y0211031D03*
X0179693Y0203157D03*
X0179693Y0195283D03*
X0179693Y0187409D03*
X0179693Y0179535D03*
X0179693Y0171661D03*
X0179693Y0163787D03*
D16*
X0179693Y0234654D03*
D17*
X0073000Y0238000D03*
X0073000Y0228000D03*
X0063000Y0228000D03*
X0073000Y0218000D03*
X0073000Y0208000D03*
X0063000Y0208000D03*
X0063000Y0198000D03*
X0073000Y0198000D03*
X0073000Y0188000D03*
X0073000Y0178000D03*
X0063000Y0188000D03*
X0073000Y0168000D03*
X0073000Y0158000D03*
X0073000Y0148000D03*
X0073000Y0138000D03*
X0073000Y0128000D03*
X0073000Y0118000D03*
X0073000Y0108000D03*
X0013000Y0108000D03*
X0013000Y0118000D03*
X0013000Y0128000D03*
X0013000Y0138000D03*
X0013000Y0148000D03*
X0013000Y0158000D03*
X0013000Y0168000D03*
X0013000Y0178000D03*
X0013000Y0188000D03*
X0013000Y0198000D03*
X0013000Y0208000D03*
X0013000Y0218000D03*
X0013000Y0228000D03*
X0013000Y0238000D03*
D18*
X0127800Y0220400D03*
D19*
X0007000Y0106023D02*
X0007000Y0007000D01*
X0274000Y0007000D01*
X0274000Y0274000D01*
X0182940Y0274000D01*
X0190379Y0266561D01*
X0191561Y0265379D01*
X0192200Y0263835D01*
X0192200Y0232165D01*
X0191561Y0230621D01*
X0185104Y0224164D01*
X0184779Y0223381D01*
X0184241Y0222843D01*
X0184779Y0222304D01*
X0185693Y0220099D01*
X0185693Y0217712D01*
X0184779Y0215507D01*
X0184241Y0214968D01*
X0184779Y0214430D01*
X0185693Y0212225D01*
X0185693Y0209838D01*
X0184779Y0207633D01*
X0184241Y0207094D01*
X0184779Y0206556D01*
X0185693Y0204351D01*
X0185693Y0201964D01*
X0184779Y0199759D01*
X0184241Y0199220D01*
X0184779Y0198682D01*
X0185693Y0196477D01*
X0185693Y0194090D01*
X0184779Y0191885D01*
X0184241Y0191346D01*
X0184779Y0190808D01*
X0185693Y0188603D01*
X0185693Y0186216D01*
X0184779Y0184011D01*
X0184241Y0183472D01*
X0184779Y0182934D01*
X0185693Y0180729D01*
X0185693Y0178342D01*
X0184779Y0176137D01*
X0184241Y0175598D01*
X0184779Y0175060D01*
X0185693Y0172855D01*
X0185693Y0170468D01*
X0184779Y0168263D01*
X0184100Y0167583D01*
X0184117Y0167566D01*
X0184654Y0166827D01*
X0185068Y0166014D01*
X0185350Y0165146D01*
X0185493Y0164244D01*
X0185493Y0163787D01*
X0179693Y0163787D01*
X0179693Y0157987D01*
X0180149Y0157987D01*
X0181051Y0158130D01*
X0181919Y0158412D01*
X0182733Y0158827D01*
X0183471Y0159363D01*
X0184117Y0160009D01*
X0184654Y0160748D01*
X0185068Y0161561D01*
X0185350Y0162429D01*
X0185493Y0163331D01*
X0185493Y0163787D01*
X0179693Y0163787D01*
X0179693Y0163787D01*
X0179693Y0157987D01*
X0179236Y0157987D01*
X0178335Y0158130D01*
X0177466Y0158412D01*
X0176653Y0158827D01*
X0175914Y0159363D01*
X0175269Y0160009D01*
X0174732Y0160748D01*
X0174318Y0161561D01*
X0174036Y0162429D01*
X0173893Y0163331D01*
X0173893Y0163787D01*
X0179693Y0163787D01*
X0179693Y0163787D01*
X0179693Y0163787D01*
X0173893Y0163787D01*
X0173893Y0164244D01*
X0174036Y0165146D01*
X0174318Y0166014D01*
X0174732Y0166827D01*
X0175269Y0167566D01*
X0175286Y0167583D01*
X0174606Y0168263D01*
X0173693Y0170468D01*
X0173693Y0172855D01*
X0174606Y0175060D01*
X0175145Y0175598D01*
X0174606Y0176137D01*
X0173693Y0178342D01*
X0173693Y0180729D01*
X0174606Y0182934D01*
X0175145Y0183472D01*
X0174606Y0184011D01*
X0173693Y0186216D01*
X0173693Y0188603D01*
X0174606Y0190808D01*
X0175145Y0191346D01*
X0174606Y0191885D01*
X0173693Y0194090D01*
X0173693Y0196477D01*
X0174606Y0198682D01*
X0175145Y0199220D01*
X0174606Y0199759D01*
X0173693Y0201964D01*
X0173693Y0204351D01*
X0174606Y0206556D01*
X0175145Y0207094D01*
X0174606Y0207633D01*
X0173693Y0209838D01*
X0173693Y0212225D01*
X0174606Y0214430D01*
X0175145Y0214968D01*
X0174606Y0215507D01*
X0173693Y0217712D01*
X0173693Y0220099D01*
X0174606Y0222304D01*
X0175145Y0222843D01*
X0174606Y0223381D01*
X0173693Y0225586D01*
X0173693Y0227973D01*
X0174441Y0229780D01*
X0174180Y0230041D01*
X0173693Y0231217D01*
X0173693Y0238090D01*
X0174180Y0239266D01*
X0175080Y0240166D01*
X0176256Y0240654D01*
X0183129Y0240654D01*
X0183800Y0240376D01*
X0183800Y0261260D01*
X0176260Y0268800D01*
X0126958Y0268800D01*
X0128850Y0266909D01*
X0129900Y0264372D01*
X0129900Y0261627D01*
X0128850Y0259091D01*
X0127758Y0258000D01*
X0128850Y0256909D01*
X0129900Y0254372D01*
X0129900Y0251627D01*
X0128850Y0249091D01*
X0127200Y0247442D01*
X0127200Y0247165D01*
X0126561Y0245621D01*
X0125379Y0244439D01*
X0120379Y0239439D01*
X0118835Y0238800D01*
X0082165Y0238800D01*
X0080621Y0239439D01*
X0079439Y0240621D01*
X0076260Y0243800D01*
X0075460Y0243800D01*
X0076569Y0243341D01*
X0078341Y0241569D01*
X0079300Y0239253D01*
X0079300Y0236747D01*
X0078341Y0234431D01*
X0076910Y0233000D01*
X0078341Y0231569D01*
X0079300Y0229253D01*
X0079300Y0226747D01*
X0078341Y0224431D01*
X0076910Y0223000D01*
X0078341Y0221569D01*
X0079300Y0219253D01*
X0079300Y0216747D01*
X0078341Y0214431D01*
X0076910Y0213000D01*
X0078341Y0211569D01*
X0079300Y0209253D01*
X0079300Y0206747D01*
X0078341Y0204431D01*
X0076910Y0203000D01*
X0078341Y0201569D01*
X0079300Y0199253D01*
X0079300Y0196747D01*
X0078341Y0194431D01*
X0076910Y0193000D01*
X0078341Y0191569D01*
X0079300Y0189253D01*
X0079300Y0186747D01*
X0078341Y0184431D01*
X0076910Y0183000D01*
X0078341Y0181569D01*
X0079300Y0179253D01*
X0079300Y0176747D01*
X0078341Y0174431D01*
X0076910Y0173000D01*
X0078341Y0171569D01*
X0079300Y0169253D01*
X0079300Y0166747D01*
X0078341Y0164431D01*
X0076910Y0163000D01*
X0077710Y0162200D01*
X0081260Y0162200D01*
X0091939Y0172879D01*
X0093121Y0174061D01*
X0094665Y0174700D01*
X0104942Y0174700D01*
X0105542Y0175300D01*
X0099466Y0175300D01*
X0097554Y0176092D01*
X0096092Y0177554D01*
X0088592Y0185054D01*
X0087800Y0186966D01*
X0087800Y0199034D01*
X0088592Y0200946D01*
X0090054Y0202408D01*
X0091866Y0204220D01*
X0091336Y0204304D01*
X0090401Y0204608D01*
X0089524Y0205055D01*
X0088728Y0205633D01*
X0088033Y0206328D01*
X0087455Y0207124D01*
X0087008Y0208001D01*
X0086704Y0208936D01*
X0086550Y0209908D01*
X0086550Y0210400D01*
X0092800Y0210400D01*
X0092800Y0210400D01*
X0086550Y0210400D01*
X0086550Y0210892D01*
X0086704Y0211864D01*
X0087008Y0212799D01*
X0087455Y0213676D01*
X0088033Y0214472D01*
X0088728Y0215167D01*
X0088834Y0215244D01*
X0087332Y0216746D01*
X0086350Y0219117D01*
X0086350Y0221683D01*
X0087332Y0224054D01*
X0089146Y0225868D01*
X0091517Y0226850D01*
X0094083Y0226850D01*
X0096454Y0225868D01*
X0098268Y0224054D01*
X0099250Y0221683D01*
X0099250Y0219117D01*
X0098268Y0216746D01*
X0096766Y0215244D01*
X0096872Y0215167D01*
X0097567Y0214472D01*
X0098145Y0213676D01*
X0098592Y0212799D01*
X0098896Y0211864D01*
X0098980Y0211334D01*
X0112454Y0224808D01*
X0114366Y0225600D01*
X0121975Y0225600D01*
X0122737Y0226363D01*
X0123913Y0226850D01*
X0129496Y0226850D01*
X0132800Y0230154D01*
X0132800Y0259034D01*
X0133592Y0260946D01*
X0135054Y0262408D01*
X0138754Y0266108D01*
X0140666Y0266900D01*
X0143442Y0266900D01*
X0144091Y0267550D01*
X0146627Y0268600D01*
X0149372Y0268600D01*
X0151909Y0267550D01*
X0153850Y0265609D01*
X0154900Y0263072D01*
X0154900Y0260327D01*
X0153850Y0257791D01*
X0151909Y0255850D01*
X0149372Y0254800D01*
X0146627Y0254800D01*
X0144091Y0255850D01*
X0143648Y0256294D01*
X0143200Y0255846D01*
X0143200Y0226966D01*
X0142982Y0226441D01*
X0144091Y0227550D01*
X0146627Y0228600D01*
X0149372Y0228600D01*
X0151909Y0227550D01*
X0153850Y0225609D01*
X0154900Y0223072D01*
X0154900Y0220327D01*
X0153850Y0217791D01*
X0152200Y0216142D01*
X0152200Y0097165D01*
X0151561Y0095621D01*
X0138140Y0082200D01*
X0211260Y0082200D01*
X0223800Y0094740D01*
X0223800Y0108835D01*
X0224439Y0110379D01*
X0243800Y0129740D01*
X0243800Y0132442D01*
X0242150Y0134091D01*
X0241100Y0136627D01*
X0241100Y0139372D01*
X0242150Y0141909D01*
X0244091Y0143850D01*
X0246627Y0144900D01*
X0249372Y0144900D01*
X0251909Y0143850D01*
X0253141Y0142617D01*
X0253573Y0143048D01*
X0254270Y0143583D01*
X0255030Y0144022D01*
X0255842Y0144358D01*
X0256690Y0144585D01*
X0257561Y0144700D01*
X0258000Y0144700D01*
X0258000Y0138000D01*
X0258000Y0138000D01*
X0264700Y0138000D01*
X0264700Y0138439D01*
X0264585Y0139310D01*
X0264358Y0140158D01*
X0264022Y0140970D01*
X0263583Y0141730D01*
X0263048Y0142427D01*
X0262427Y0143048D01*
X0261730Y0143583D01*
X0260970Y0144022D01*
X0260158Y0144358D01*
X0259310Y0144585D01*
X0258439Y0144700D01*
X0258000Y0144700D01*
X0258000Y0138000D01*
X0258000Y0138000D01*
X0264700Y0138000D01*
X0264700Y0137561D01*
X0264585Y0136690D01*
X0264358Y0135842D01*
X0264022Y0135030D01*
X0263583Y0134270D01*
X0263048Y0133573D01*
X0262427Y0132952D01*
X0261730Y0132417D01*
X0260970Y0131978D01*
X0260158Y0131642D01*
X0259310Y0131415D01*
X0258439Y0131300D01*
X0258000Y0131300D01*
X0258000Y0138000D01*
X0258000Y0138000D01*
X0258000Y0131300D01*
X0257561Y0131300D01*
X0256690Y0131415D01*
X0255842Y0131642D01*
X0255030Y0131978D01*
X0254270Y0132417D01*
X0253573Y0132952D01*
X0253141Y0133383D01*
X0252200Y0132442D01*
X0252200Y0127165D01*
X0251561Y0125621D01*
X0232200Y0106260D01*
X0232200Y0093140D01*
X0240621Y0101561D01*
X0242165Y0102200D01*
X0242442Y0102200D01*
X0244091Y0103850D01*
X0246627Y0104900D01*
X0249372Y0104900D01*
X0251909Y0103850D01*
X0253141Y0102617D01*
X0253573Y0103048D01*
X0254270Y0103583D01*
X0255030Y0104022D01*
X0255842Y0104358D01*
X0256690Y0104585D01*
X0257561Y0104700D01*
X0258000Y0104700D01*
X0258000Y0098000D01*
X0258000Y0098000D01*
X0264700Y0098000D01*
X0264700Y0098439D01*
X0264585Y0099310D01*
X0264358Y0100158D01*
X0264022Y0100970D01*
X0263583Y0101730D01*
X0263048Y0102427D01*
X0262427Y0103048D01*
X0261730Y0103583D01*
X0260970Y0104022D01*
X0260158Y0104358D01*
X0259310Y0104585D01*
X0258439Y0104700D01*
X0258000Y0104700D01*
X0258000Y0098000D01*
X0258000Y0098000D01*
X0264700Y0098000D01*
X0264700Y0097561D01*
X0264585Y0096690D01*
X0264358Y0095842D01*
X0264022Y0095030D01*
X0263583Y0094270D01*
X0263048Y0093573D01*
X0262427Y0092952D01*
X0261730Y0092417D01*
X0260970Y0091978D01*
X0260158Y0091642D01*
X0259310Y0091415D01*
X0258439Y0091300D01*
X0258000Y0091300D01*
X0258000Y0098000D01*
X0258000Y0098000D01*
X0258000Y0091300D01*
X0257561Y0091300D01*
X0256690Y0091415D01*
X0255842Y0091642D01*
X0255030Y0091978D01*
X0254270Y0092417D01*
X0253573Y0092952D01*
X0253141Y0093383D01*
X0251909Y0092150D01*
X0249372Y0091100D01*
X0246627Y0091100D01*
X0244091Y0092150D01*
X0243591Y0092651D01*
X0221561Y0070621D01*
X0221440Y0070500D01*
X0221561Y0070379D01*
X0229740Y0062200D01*
X0242442Y0062200D01*
X0244091Y0063850D01*
X0246627Y0064900D01*
X0249372Y0064900D01*
X0251909Y0063850D01*
X0253141Y0062617D01*
X0253573Y0063048D01*
X0254270Y0063583D01*
X0255030Y0064022D01*
X0255842Y0064358D01*
X0256690Y0064585D01*
X0257561Y0064700D01*
X0258000Y0064700D01*
X0258000Y0058000D01*
X0258000Y0058000D01*
X0264700Y0058000D01*
X0264700Y0058439D01*
X0264585Y0059310D01*
X0264358Y0060158D01*
X0264022Y0060970D01*
X0263583Y0061730D01*
X0263048Y0062427D01*
X0262427Y0063048D01*
X0261730Y0063583D01*
X0260970Y0064022D01*
X0260158Y0064358D01*
X0259310Y0064585D01*
X0258439Y0064700D01*
X0258000Y0064700D01*
X0258000Y0058000D01*
X0258000Y0058000D01*
X0264700Y0058000D01*
X0264700Y0057561D01*
X0264585Y0056690D01*
X0264358Y0055842D01*
X0264022Y0055030D01*
X0263583Y0054270D01*
X0263048Y0053573D01*
X0262427Y0052952D01*
X0261730Y0052417D01*
X0260970Y0051978D01*
X0260158Y0051642D01*
X0259310Y0051415D01*
X0258439Y0051300D01*
X0258000Y0051300D01*
X0258000Y0058000D01*
X0258000Y0058000D01*
X0258000Y0051300D01*
X0257561Y0051300D01*
X0256690Y0051415D01*
X0255842Y0051642D01*
X0255030Y0051978D01*
X0254270Y0052417D01*
X0253573Y0052952D01*
X0253141Y0053383D01*
X0251909Y0052150D01*
X0249372Y0051100D01*
X0246627Y0051100D01*
X0244091Y0052150D01*
X0242442Y0053800D01*
X0227165Y0053800D01*
X0225621Y0054439D01*
X0216260Y0063800D01*
X0119847Y0063800D01*
X0120039Y0063337D01*
X0120039Y0060537D01*
X0118967Y0057950D01*
X0116987Y0055970D01*
X0114400Y0054898D01*
X0111600Y0054898D01*
X0109013Y0055970D01*
X0107033Y0057950D01*
X0105961Y0060537D01*
X0105961Y0063337D01*
X0106153Y0063800D01*
X0067165Y0063800D01*
X0065621Y0064439D01*
X0064439Y0065621D01*
X0026260Y0103800D01*
X0017710Y0103800D01*
X0016569Y0102659D01*
X0014253Y0101700D01*
X0011747Y0101700D01*
X0009431Y0102659D01*
X0007659Y0104431D01*
X0007000Y0106023D01*
X0007000Y0102963D02*
X0009128Y0102963D01*
X0007000Y0098964D02*
X0031096Y0098964D01*
X0035095Y0094966D02*
X0007000Y0094966D01*
X0007000Y0090967D02*
X0039093Y0090967D01*
X0043092Y0086969D02*
X0007000Y0086969D01*
X0007000Y0082970D02*
X0047090Y0082970D01*
X0051089Y0078972D02*
X0007000Y0078972D01*
X0007000Y0074973D02*
X0055087Y0074973D01*
X0059086Y0070975D02*
X0007000Y0070975D01*
X0007000Y0066976D02*
X0063084Y0066976D01*
X0066627Y0044900D02*
X0064091Y0043850D01*
X0063000Y0042758D01*
X0061909Y0043850D01*
X0059372Y0044900D01*
X0056627Y0044900D01*
X0054091Y0043850D01*
X0053000Y0042758D01*
X0051909Y0043850D01*
X0049372Y0044900D01*
X0046627Y0044900D01*
X0044091Y0043850D01*
X0042150Y0041909D01*
X0041100Y0039372D01*
X0041100Y0036627D01*
X0042150Y0034091D01*
X0043242Y0033000D01*
X0042150Y0031909D01*
X0041100Y0029372D01*
X0041100Y0026627D01*
X0042150Y0024091D01*
X0043383Y0022859D01*
X0042952Y0022427D01*
X0042417Y0021730D01*
X0041978Y0020970D01*
X0041642Y0020158D01*
X0041415Y0019310D01*
X0041300Y0018439D01*
X0041300Y0018000D01*
X0048000Y0018000D01*
X0054700Y0018000D01*
X0058000Y0018000D01*
X0064700Y0018000D01*
X0068000Y0018000D01*
X0074700Y0018000D01*
X0078000Y0018000D01*
X0084700Y0018000D01*
X0084700Y0018439D01*
X0084585Y0019310D01*
X0084358Y0020158D01*
X0084022Y0020970D01*
X0083583Y0021730D01*
X0083048Y0022427D01*
X0082617Y0022859D01*
X0083850Y0024091D01*
X0084900Y0026627D01*
X0084900Y0029372D01*
X0083850Y0031909D01*
X0082758Y0033000D01*
X0083850Y0034091D01*
X0084900Y0036627D01*
X0084900Y0039372D01*
X0083850Y0041909D01*
X0081909Y0043850D01*
X0079372Y0044900D01*
X0076627Y0044900D01*
X0074091Y0043850D01*
X0073000Y0042758D01*
X0071909Y0043850D01*
X0069372Y0044900D01*
X0066627Y0044900D01*
X0063227Y0042985D02*
X0062773Y0042985D01*
X0072773Y0042985D02*
X0073227Y0042985D01*
X0082773Y0042985D02*
X0107360Y0042985D01*
X0107302Y0042910D02*
X0106853Y0042133D01*
X0106510Y0041305D01*
X0106278Y0040439D01*
X0106161Y0039551D01*
X0106161Y0039102D01*
X0106161Y0038654D01*
X0106278Y0037765D01*
X0106510Y0036899D01*
X0106853Y0036071D01*
X0107302Y0035295D01*
X0107847Y0034584D01*
X0108481Y0033950D01*
X0109193Y0033404D01*
X0109969Y0032956D01*
X0110797Y0032613D01*
X0111663Y0032381D01*
X0112552Y0032264D01*
X0113000Y0032264D01*
X0113448Y0032264D01*
X0114337Y0032381D01*
X0115203Y0032613D01*
X0116031Y0032956D01*
X0116807Y0033404D01*
X0117519Y0033950D01*
X0118153Y0034584D01*
X0118698Y0035295D01*
X0119146Y0036071D01*
X0119490Y0036899D01*
X0119722Y0037765D01*
X0119839Y0038654D01*
X0119839Y0039102D01*
X0113000Y0039102D01*
X0113000Y0032264D01*
X0113000Y0039102D01*
X0113000Y0039102D01*
X0113000Y0039102D01*
X0106161Y0039102D01*
X0113000Y0039102D01*
X0113000Y0039102D01*
X0119839Y0039102D01*
X0119839Y0039551D01*
X0119722Y0040439D01*
X0119490Y0041305D01*
X0119146Y0042133D01*
X0118698Y0042910D01*
X0118153Y0043621D01*
X0117519Y0044255D01*
X0116807Y0044801D01*
X0116031Y0045249D01*
X0115203Y0045592D01*
X0114337Y0045824D01*
X0113448Y0045941D01*
X0113000Y0045941D01*
X0113000Y0039102D01*
X0113000Y0045941D01*
X0112552Y0045941D01*
X0111663Y0045824D01*
X0110797Y0045592D01*
X0109969Y0045249D01*
X0109193Y0044801D01*
X0108481Y0044255D01*
X0107847Y0043621D01*
X0107302Y0042910D01*
X0106161Y0038987D02*
X0084900Y0038987D01*
X0084221Y0034988D02*
X0107537Y0034988D01*
X0113000Y0034988D02*
X0113000Y0034988D01*
X0113000Y0038987D02*
X0113000Y0038987D01*
X0113000Y0039102D02*
X0113000Y0039102D01*
X0113000Y0042985D02*
X0113000Y0042985D01*
X0118640Y0042985D02*
X0148227Y0042985D01*
X0148242Y0043000D02*
X0147150Y0041909D01*
X0146100Y0039372D01*
X0146100Y0036627D01*
X0147150Y0034091D01*
X0148383Y0032859D01*
X0147952Y0032427D01*
X0147417Y0031730D01*
X0146978Y0030970D01*
X0146642Y0030158D01*
X0146415Y0029310D01*
X0146300Y0028439D01*
X0146300Y0028000D01*
X0153000Y0028000D01*
X0159700Y0028000D01*
X0159700Y0028439D01*
X0159585Y0029310D01*
X0159358Y0030158D01*
X0159022Y0030970D01*
X0158583Y0031730D01*
X0158048Y0032427D01*
X0157617Y0032859D01*
X0158850Y0034091D01*
X0159900Y0036627D01*
X0159900Y0039372D01*
X0158850Y0041909D01*
X0157758Y0043000D01*
X0158850Y0044091D01*
X0159900Y0046627D01*
X0159900Y0049372D01*
X0158850Y0051909D01*
X0156909Y0053850D01*
X0154372Y0054900D01*
X0151627Y0054900D01*
X0149091Y0053850D01*
X0147150Y0051909D01*
X0146100Y0049372D01*
X0146100Y0046627D01*
X0147150Y0044091D01*
X0148242Y0043000D01*
X0146100Y0046984D02*
X0137980Y0046984D01*
X0138044Y0047095D02*
X0138387Y0047923D01*
X0138619Y0048789D01*
X0138736Y0049678D01*
X0138736Y0050126D01*
X0138736Y0050574D01*
X0138619Y0051463D01*
X0138387Y0052329D01*
X0138044Y0053157D01*
X0137596Y0053933D01*
X0137050Y0054645D01*
X0136416Y0055279D01*
X0135705Y0055824D01*
X0134929Y0056272D01*
X0134101Y0056616D01*
X0133235Y0056848D01*
X0132346Y0056965D01*
X0131898Y0056965D01*
X0131898Y0050126D01*
X0138736Y0050126D01*
X0131898Y0050126D01*
X0131898Y0050126D01*
X0131898Y0050126D01*
X0131898Y0043287D01*
X0132346Y0043287D01*
X0133235Y0043404D01*
X0134101Y0043636D01*
X0134929Y0043979D01*
X0135705Y0044428D01*
X0136416Y0044973D01*
X0137050Y0045607D01*
X0137596Y0046319D01*
X0138044Y0047095D01*
X0138683Y0050982D02*
X0146767Y0050982D01*
X0136714Y0054981D02*
X0225080Y0054981D01*
X0221081Y0058979D02*
X0119393Y0058979D01*
X0120039Y0062978D02*
X0217083Y0062978D01*
X0224963Y0066976D02*
X0274000Y0066976D01*
X0274000Y0062978D02*
X0262498Y0062978D01*
X0258000Y0062978D02*
X0258000Y0062978D01*
X0253502Y0062978D02*
X0252780Y0062978D01*
X0258000Y0058979D02*
X0258000Y0058979D01*
X0258000Y0054981D02*
X0258000Y0054981D01*
X0263993Y0054981D02*
X0274000Y0054981D01*
X0274000Y0058979D02*
X0264629Y0058979D01*
X0274000Y0050982D02*
X0203495Y0050982D01*
X0203345Y0051276D02*
X0202767Y0052072D01*
X0202072Y0052767D01*
X0201276Y0053345D01*
X0200399Y0053792D01*
X0199464Y0054096D01*
X0198492Y0054250D01*
X0198000Y0054250D01*
X0198000Y0048000D01*
X0204250Y0048000D01*
X0204250Y0048492D01*
X0204096Y0049464D01*
X0203792Y0050399D01*
X0203345Y0051276D01*
X0204250Y0048000D02*
X0198000Y0048000D01*
X0198000Y0048000D01*
X0198000Y0048000D01*
X0198000Y0048000D01*
X0191750Y0048000D01*
X0191750Y0048492D01*
X0191904Y0049464D01*
X0192208Y0050399D01*
X0192655Y0051276D01*
X0193233Y0052072D01*
X0193928Y0052767D01*
X0194724Y0053345D01*
X0195601Y0053792D01*
X0196536Y0054096D01*
X0197508Y0054250D01*
X0198000Y0054250D01*
X0198000Y0048000D01*
X0191750Y0048000D01*
X0191750Y0047508D01*
X0191904Y0046536D01*
X0192208Y0045601D01*
X0192655Y0044724D01*
X0193233Y0043928D01*
X0193928Y0043233D01*
X0194034Y0043156D01*
X0192532Y0041654D01*
X0191550Y0039283D01*
X0191550Y0036717D01*
X0192532Y0034346D01*
X0194346Y0032532D01*
X0196717Y0031550D01*
X0199283Y0031550D01*
X0201654Y0032532D01*
X0203468Y0034346D01*
X0204450Y0036717D01*
X0204450Y0039283D01*
X0203468Y0041654D01*
X0201966Y0043156D01*
X0202072Y0043233D01*
X0202767Y0043928D01*
X0203345Y0044724D01*
X0203792Y0045601D01*
X0204096Y0046536D01*
X0204250Y0047508D01*
X0204250Y0048000D01*
X0204167Y0046984D02*
X0274000Y0046984D01*
X0274000Y0042985D02*
X0202137Y0042985D01*
X0204450Y0038987D02*
X0274000Y0038987D01*
X0274000Y0034988D02*
X0203734Y0034988D01*
X0213803Y0029058D02*
X0213364Y0028195D01*
X0213065Y0027275D01*
X0212913Y0026319D01*
X0212913Y0025835D01*
X0219063Y0025835D01*
X0219063Y0025835D01*
X0219063Y0031984D01*
X0219547Y0031984D01*
X0220503Y0031833D01*
X0221424Y0031534D01*
X0222286Y0031094D01*
X0222825Y0030703D01*
X0223340Y0031218D01*
X0225674Y0032184D01*
X0228200Y0032184D01*
X0230534Y0031218D01*
X0232320Y0029431D01*
X0233287Y0027098D01*
X0233287Y0024572D01*
X0232320Y0022238D01*
X0230534Y0020452D01*
X0228200Y0019485D01*
X0225674Y0019485D01*
X0223340Y0020452D01*
X0222825Y0020967D01*
X0222286Y0020575D01*
X0221424Y0020136D01*
X0220503Y0019836D01*
X0219547Y0019685D01*
X0219063Y0019685D01*
X0219063Y0025835D01*
X0219063Y0031984D01*
X0218579Y0031984D01*
X0217623Y0031833D01*
X0216702Y0031534D01*
X0215840Y0031094D01*
X0215057Y0030525D01*
X0214372Y0029841D01*
X0213803Y0029058D01*
X0213020Y0026991D02*
X0184625Y0026991D01*
X0184585Y0026690D02*
X0184700Y0027561D01*
X0184700Y0028000D01*
X0184700Y0028439D01*
X0184585Y0029310D01*
X0184358Y0030158D01*
X0184022Y0030970D01*
X0183583Y0031730D01*
X0183048Y0032427D01*
X0182617Y0032859D01*
X0183850Y0034091D01*
X0184900Y0036627D01*
X0184900Y0039372D01*
X0183850Y0041909D01*
X0182758Y0043000D01*
X0183850Y0044091D01*
X0184900Y0046627D01*
X0184900Y0049372D01*
X0183850Y0051909D01*
X0181909Y0053850D01*
X0179372Y0054900D01*
X0176627Y0054900D01*
X0174091Y0053850D01*
X0172150Y0051909D01*
X0171100Y0049372D01*
X0171100Y0046627D01*
X0172150Y0044091D01*
X0173242Y0043000D01*
X0172150Y0041909D01*
X0171100Y0039372D01*
X0171100Y0036627D01*
X0172150Y0034091D01*
X0173383Y0032859D01*
X0172952Y0032427D01*
X0172417Y0031730D01*
X0171978Y0030970D01*
X0171642Y0030158D01*
X0171415Y0029310D01*
X0171300Y0028439D01*
X0171300Y0028000D01*
X0178000Y0028000D01*
X0184700Y0028000D01*
X0178000Y0028000D01*
X0178000Y0028000D01*
X0178000Y0028000D01*
X0178000Y0021300D01*
X0178439Y0021300D01*
X0179310Y0021415D01*
X0180158Y0021642D01*
X0180970Y0021978D01*
X0181730Y0022417D01*
X0182427Y0022952D01*
X0183048Y0023573D01*
X0183583Y0024270D01*
X0184022Y0025030D01*
X0184358Y0025842D01*
X0184585Y0026690D01*
X0182468Y0022993D02*
X0213609Y0022993D01*
X0213803Y0022612D02*
X0214372Y0021828D01*
X0215057Y0021144D01*
X0215840Y0020575D01*
X0216702Y0020136D01*
X0217623Y0019836D01*
X0218579Y0019685D01*
X0219063Y0019685D01*
X0219063Y0025835D01*
X0219063Y0025835D01*
X0212913Y0025835D01*
X0212913Y0025351D01*
X0213065Y0024395D01*
X0213364Y0023474D01*
X0213803Y0022612D01*
X0219063Y0022993D02*
X0219063Y0022993D01*
X0219063Y0025835D02*
X0219063Y0025835D01*
X0219063Y0026991D02*
X0219063Y0026991D01*
X0219063Y0030990D02*
X0219063Y0030990D01*
X0215696Y0030990D02*
X0184010Y0030990D01*
X0184221Y0034988D02*
X0192266Y0034988D01*
X0191550Y0038987D02*
X0184900Y0038987D01*
X0182773Y0042985D02*
X0193863Y0042985D01*
X0191833Y0046984D02*
X0184900Y0046984D01*
X0184233Y0050982D02*
X0192505Y0050982D01*
X0198000Y0050982D02*
X0198000Y0050982D01*
X0221914Y0070975D02*
X0274000Y0070975D01*
X0274000Y0074973D02*
X0225913Y0074973D01*
X0229911Y0078972D02*
X0274000Y0078972D01*
X0274000Y0082970D02*
X0233910Y0082970D01*
X0237908Y0086969D02*
X0274000Y0086969D01*
X0274000Y0090967D02*
X0241907Y0090967D01*
X0234026Y0094966D02*
X0232200Y0094966D01*
X0232200Y0098964D02*
X0238025Y0098964D01*
X0243205Y0102963D02*
X0232200Y0102963D01*
X0232901Y0106961D02*
X0274000Y0106961D01*
X0274000Y0110960D02*
X0236899Y0110960D01*
X0240898Y0114958D02*
X0274000Y0114958D01*
X0274000Y0118957D02*
X0244897Y0118957D01*
X0248895Y0122955D02*
X0274000Y0122955D01*
X0274000Y0126954D02*
X0252113Y0126954D01*
X0252200Y0130952D02*
X0274000Y0130952D01*
X0274000Y0134951D02*
X0263976Y0134951D01*
X0264633Y0138949D02*
X0274000Y0138949D01*
X0274000Y0142948D02*
X0262527Y0142948D01*
X0258000Y0142948D02*
X0258000Y0142948D01*
X0258000Y0138949D02*
X0258000Y0138949D01*
X0258000Y0134951D02*
X0258000Y0134951D01*
X0253473Y0142948D02*
X0252810Y0142948D01*
X0243190Y0142948D02*
X0219451Y0142948D01*
X0219565Y0142671D02*
X0218566Y0145084D01*
X0216719Y0146931D01*
X0214306Y0147931D01*
X0211694Y0147931D01*
X0209281Y0146931D01*
X0207858Y0145508D01*
X0207855Y0145512D01*
X0207147Y0146221D01*
X0206336Y0146809D01*
X0205443Y0147264D01*
X0204491Y0147574D01*
X0203501Y0147731D01*
X0203000Y0147731D01*
X0202499Y0147731D01*
X0201509Y0147574D01*
X0200557Y0147264D01*
X0199664Y0146809D01*
X0198853Y0146221D01*
X0198145Y0145512D01*
X0198142Y0145508D01*
X0196719Y0146931D01*
X0194306Y0147931D01*
X0191694Y0147931D01*
X0189281Y0146931D01*
X0187434Y0145084D01*
X0186435Y0142671D01*
X0186435Y0133329D01*
X0187434Y0130916D01*
X0189281Y0129069D01*
X0191694Y0128069D01*
X0194306Y0128069D01*
X0196719Y0129069D01*
X0198142Y0130492D01*
X0198145Y0130488D01*
X0198853Y0129779D01*
X0199664Y0129191D01*
X0200557Y0128736D01*
X0201509Y0128426D01*
X0202499Y0128269D01*
X0203000Y0128269D01*
X0203000Y0138000D01*
X0203000Y0138000D01*
X0203000Y0147731D01*
X0203000Y0138000D01*
X0203000Y0128269D01*
X0203501Y0128269D01*
X0204491Y0128426D01*
X0205443Y0128736D01*
X0206336Y0129191D01*
X0207147Y0129779D01*
X0207855Y0130488D01*
X0207858Y0130492D01*
X0209281Y0129069D01*
X0211694Y0128069D01*
X0214306Y0128069D01*
X0216719Y0129069D01*
X0218566Y0130916D01*
X0219565Y0133329D01*
X0219565Y0142671D01*
X0219565Y0138949D02*
X0241100Y0138949D01*
X0241794Y0134951D02*
X0219565Y0134951D01*
X0218581Y0130952D02*
X0243800Y0130952D01*
X0241014Y0126954D02*
X0152200Y0126954D01*
X0152200Y0130952D02*
X0187419Y0130952D01*
X0186435Y0134951D02*
X0152200Y0134951D01*
X0152200Y0138949D02*
X0186435Y0138949D01*
X0186549Y0142948D02*
X0152200Y0142948D01*
X0152200Y0146946D02*
X0189318Y0146946D01*
X0196682Y0146946D02*
X0199933Y0146946D01*
X0203000Y0146946D02*
X0203000Y0146946D01*
X0206067Y0146946D02*
X0209318Y0146946D01*
X0203000Y0142948D02*
X0203000Y0142948D01*
X0203000Y0138949D02*
X0203000Y0138949D01*
X0203000Y0138000D02*
X0203000Y0138000D01*
X0203000Y0134951D02*
X0203000Y0134951D01*
X0203000Y0130952D02*
X0203000Y0130952D01*
X0201694Y0117931D02*
X0199281Y0116931D01*
X0198000Y0115650D01*
X0196719Y0116931D01*
X0194306Y0117931D01*
X0191694Y0117931D01*
X0189281Y0116931D01*
X0187434Y0115084D01*
X0186435Y0112671D01*
X0186435Y0103329D01*
X0187434Y0100916D01*
X0189281Y0099069D01*
X0191694Y0098069D01*
X0194306Y0098069D01*
X0196719Y0099069D01*
X0198000Y0100350D01*
X0199281Y0099069D01*
X0201694Y0098069D01*
X0204306Y0098069D01*
X0206719Y0099069D01*
X0208142Y0100492D01*
X0208145Y0100488D01*
X0208853Y0099779D01*
X0209664Y0099191D01*
X0210557Y0098736D01*
X0211509Y0098426D01*
X0212499Y0098269D01*
X0213000Y0098269D01*
X0213000Y0108000D01*
X0213000Y0108000D01*
X0213000Y0117731D01*
X0212499Y0117731D01*
X0211509Y0117574D01*
X0210557Y0117264D01*
X0209664Y0116809D01*
X0208853Y0116221D01*
X0208145Y0115512D01*
X0208142Y0115508D01*
X0206719Y0116931D01*
X0204306Y0117931D01*
X0201694Y0117931D01*
X0213000Y0117731D02*
X0213000Y0108000D01*
X0219365Y0108000D01*
X0219365Y0111866D01*
X0219209Y0112856D01*
X0218899Y0113809D01*
X0218444Y0114702D01*
X0217855Y0115512D01*
X0217147Y0116221D01*
X0216336Y0116809D01*
X0215443Y0117264D01*
X0214491Y0117574D01*
X0213501Y0117731D01*
X0213000Y0117731D01*
X0213000Y0114958D02*
X0213000Y0114958D01*
X0213000Y0110960D02*
X0213000Y0110960D01*
X0213000Y0108000D02*
X0213000Y0108000D01*
X0219365Y0108000D01*
X0219365Y0104134D01*
X0219209Y0103144D01*
X0218899Y0102191D01*
X0218444Y0101298D01*
X0217855Y0100488D01*
X0217147Y0099779D01*
X0216336Y0099191D01*
X0215443Y0098736D01*
X0214491Y0098426D01*
X0213501Y0098269D01*
X0213000Y0098269D01*
X0213000Y0108000D01*
X0213000Y0108000D01*
X0213000Y0106961D02*
X0213000Y0106961D01*
X0213000Y0102963D02*
X0213000Y0102963D01*
X0213000Y0098964D02*
X0213000Y0098964D01*
X0215892Y0098964D02*
X0223800Y0098964D01*
X0223800Y0102963D02*
X0219150Y0102963D01*
X0219365Y0106961D02*
X0223800Y0106961D01*
X0225020Y0110960D02*
X0219365Y0110960D01*
X0218258Y0114958D02*
X0229019Y0114958D01*
X0233017Y0118957D02*
X0152200Y0118957D01*
X0152200Y0122955D02*
X0237016Y0122955D01*
X0252795Y0102963D02*
X0253488Y0102963D01*
X0258000Y0102963D02*
X0258000Y0102963D01*
X0258000Y0098964D02*
X0258000Y0098964D01*
X0258000Y0094966D02*
X0258000Y0094966D01*
X0263985Y0094966D02*
X0274000Y0094966D01*
X0274000Y0098964D02*
X0264631Y0098964D01*
X0262512Y0102963D02*
X0274000Y0102963D01*
X0243220Y0062978D02*
X0228962Y0062978D01*
X0212031Y0082970D02*
X0138910Y0082970D01*
X0142908Y0086969D02*
X0216029Y0086969D01*
X0220028Y0090967D02*
X0146907Y0090967D01*
X0150905Y0094966D02*
X0223800Y0094966D01*
X0210108Y0098964D02*
X0206467Y0098964D01*
X0199533Y0098964D02*
X0196467Y0098964D01*
X0189533Y0098964D02*
X0152200Y0098964D01*
X0152200Y0102963D02*
X0186586Y0102963D01*
X0186435Y0106961D02*
X0152200Y0106961D01*
X0152200Y0110960D02*
X0186435Y0110960D01*
X0187382Y0114958D02*
X0152200Y0114958D01*
X0143800Y0114958D02*
X0115800Y0114958D01*
X0115258Y0115500D02*
X0116350Y0114409D01*
X0117400Y0111872D01*
X0117400Y0109127D01*
X0116350Y0106591D01*
X0115258Y0105500D01*
X0116350Y0104409D01*
X0117400Y0101872D01*
X0117400Y0099127D01*
X0116350Y0096591D01*
X0115258Y0095500D01*
X0116350Y0094409D01*
X0117400Y0091872D01*
X0117400Y0089127D01*
X0116602Y0087200D01*
X0131260Y0087200D01*
X0143800Y0099740D01*
X0143800Y0216142D01*
X0142150Y0217791D01*
X0141100Y0220327D01*
X0141100Y0223072D01*
X0141576Y0224222D01*
X0134808Y0217454D01*
X0134250Y0216896D01*
X0134250Y0216513D01*
X0133763Y0215337D01*
X0132863Y0214437D01*
X0132655Y0214351D01*
X0133145Y0213676D01*
X0133592Y0212799D01*
X0133896Y0211864D01*
X0134050Y0210892D01*
X0134050Y0210400D01*
X0127800Y0210400D01*
X0127800Y0210400D01*
X0134050Y0210400D01*
X0134050Y0209908D01*
X0133896Y0208936D01*
X0133592Y0208001D01*
X0133145Y0207124D01*
X0132567Y0206328D01*
X0131872Y0205633D01*
X0131076Y0205055D01*
X0130199Y0204608D01*
X0129264Y0204304D01*
X0128292Y0204150D01*
X0127800Y0204150D01*
X0127800Y0210400D01*
X0127800Y0210400D01*
X0127800Y0210400D01*
X0121550Y0210400D01*
X0121550Y0210892D01*
X0121704Y0211864D01*
X0122008Y0212799D01*
X0122455Y0213676D01*
X0122945Y0214351D01*
X0122737Y0214437D01*
X0121975Y0215200D01*
X0117554Y0215200D01*
X0098200Y0195846D01*
X0098200Y0190154D01*
X0102654Y0185700D01*
X0105825Y0185700D01*
X0105452Y0186073D01*
X0104917Y0186770D01*
X0104478Y0187530D01*
X0104142Y0188342D01*
X0103915Y0189190D01*
X0103800Y0190061D01*
X0103800Y0190500D01*
X0110500Y0190500D01*
X0110500Y0190500D01*
X0110500Y0197200D01*
X0110939Y0197200D01*
X0111810Y0197085D01*
X0112658Y0196858D01*
X0113470Y0196522D01*
X0114230Y0196083D01*
X0114927Y0195548D01*
X0115548Y0194927D01*
X0116083Y0194230D01*
X0116522Y0193470D01*
X0116858Y0192658D01*
X0117085Y0191810D01*
X0117200Y0190939D01*
X0117200Y0190500D01*
X0110500Y0190500D01*
X0110500Y0190500D01*
X0110500Y0190500D01*
X0110500Y0197200D01*
X0110061Y0197200D01*
X0109190Y0197085D01*
X0108342Y0196858D01*
X0107530Y0196522D01*
X0106770Y0196083D01*
X0106073Y0195548D01*
X0105452Y0194927D01*
X0104917Y0194230D01*
X0104478Y0193470D01*
X0104142Y0192658D01*
X0103915Y0191810D01*
X0103800Y0190939D01*
X0103800Y0190500D01*
X0110500Y0190500D01*
X0117200Y0190500D01*
X0117200Y0190061D01*
X0117085Y0189190D01*
X0116858Y0188342D01*
X0116522Y0187530D01*
X0116083Y0186770D01*
X0115548Y0186073D01*
X0115117Y0185641D01*
X0116350Y0184409D01*
X0117400Y0181872D01*
X0117400Y0179127D01*
X0116350Y0176591D01*
X0115258Y0175500D01*
X0116350Y0174409D01*
X0117400Y0171872D01*
X0117400Y0169127D01*
X0116350Y0166591D01*
X0115258Y0165500D01*
X0116350Y0164409D01*
X0117400Y0161872D01*
X0117400Y0159127D01*
X0116350Y0156591D01*
X0115258Y0155500D01*
X0116350Y0154409D01*
X0117400Y0151872D01*
X0117400Y0149127D01*
X0116350Y0146591D01*
X0115258Y0145500D01*
X0116350Y0144409D01*
X0117400Y0141872D01*
X0117400Y0139127D01*
X0116350Y0136591D01*
X0115258Y0135500D01*
X0116350Y0134409D01*
X0117400Y0131872D01*
X0117400Y0129127D01*
X0116350Y0126591D01*
X0115258Y0125500D01*
X0116350Y0124409D01*
X0117400Y0121872D01*
X0117400Y0119127D01*
X0116350Y0116591D01*
X0115258Y0115500D01*
X0117329Y0118957D02*
X0143800Y0118957D01*
X0143800Y0122955D02*
X0116951Y0122955D01*
X0116500Y0126954D02*
X0143800Y0126954D01*
X0143800Y0130952D02*
X0117400Y0130952D01*
X0115807Y0134951D02*
X0143800Y0134951D01*
X0143800Y0138949D02*
X0117326Y0138949D01*
X0116955Y0142948D02*
X0143800Y0142948D01*
X0143800Y0146946D02*
X0116497Y0146946D01*
X0117400Y0150945D02*
X0143800Y0150945D01*
X0143800Y0154943D02*
X0115815Y0154943D01*
X0117323Y0158942D02*
X0143800Y0158942D01*
X0143800Y0162940D02*
X0116958Y0162940D01*
X0116493Y0166939D02*
X0143800Y0166939D01*
X0143800Y0170937D02*
X0117400Y0170937D01*
X0115822Y0174936D02*
X0143800Y0174936D01*
X0143800Y0178934D02*
X0117320Y0178934D01*
X0116961Y0182933D02*
X0143800Y0182933D01*
X0143800Y0186932D02*
X0116176Y0186932D01*
X0117200Y0190930D02*
X0143800Y0190930D01*
X0143800Y0194929D02*
X0115547Y0194929D01*
X0110500Y0194929D02*
X0110500Y0194929D01*
X0110500Y0190930D02*
X0110500Y0190930D01*
X0105453Y0194929D02*
X0098200Y0194929D01*
X0093000Y0198000D02*
X0093000Y0188000D01*
X0100500Y0180500D01*
X0110500Y0180500D01*
X0105178Y0174936D02*
X0078550Y0174936D01*
X0079300Y0178934D02*
X0094712Y0178934D01*
X0090713Y0182933D02*
X0076977Y0182933D01*
X0079300Y0186932D02*
X0087814Y0186932D01*
X0087800Y0190930D02*
X0078605Y0190930D01*
X0078547Y0194929D02*
X0087800Y0194929D01*
X0087800Y0198927D02*
X0079300Y0198927D01*
X0076984Y0202926D02*
X0090572Y0202926D01*
X0087600Y0206924D02*
X0079300Y0206924D01*
X0078608Y0210923D02*
X0086555Y0210923D01*
X0088482Y0214921D02*
X0078544Y0214921D01*
X0079300Y0218920D02*
X0086432Y0218920D01*
X0086862Y0222918D02*
X0076991Y0222918D01*
X0079300Y0226917D02*
X0129563Y0226917D01*
X0132800Y0230915D02*
X0078612Y0230915D01*
X0078541Y0234914D02*
X0132800Y0234914D01*
X0132800Y0238912D02*
X0119106Y0238912D01*
X0123850Y0242911D02*
X0132800Y0242911D01*
X0132800Y0246909D02*
X0127094Y0246909D01*
X0129602Y0250908D02*
X0132800Y0250908D01*
X0132800Y0254906D02*
X0129679Y0254906D01*
X0128663Y0258905D02*
X0132800Y0258905D01*
X0135549Y0262903D02*
X0129900Y0262903D01*
X0128852Y0266902D02*
X0143444Y0266902D01*
X0141700Y0261700D02*
X0138000Y0258000D01*
X0138000Y0228000D01*
X0130400Y0220400D01*
X0127800Y0220400D01*
X0115400Y0220400D01*
X0093000Y0198000D01*
X0101281Y0198927D02*
X0143800Y0198927D01*
X0143800Y0202926D02*
X0105279Y0202926D01*
X0109278Y0206924D02*
X0122600Y0206924D01*
X0122455Y0207124D02*
X0123033Y0206328D01*
X0123728Y0205633D01*
X0124524Y0205055D01*
X0125401Y0204608D01*
X0126336Y0204304D01*
X0127308Y0204150D01*
X0127800Y0204150D01*
X0127800Y0210400D01*
X0121550Y0210400D01*
X0121550Y0209908D01*
X0121704Y0208936D01*
X0122008Y0208001D01*
X0122455Y0207124D01*
X0121555Y0210923D02*
X0113277Y0210923D01*
X0117275Y0214921D02*
X0122253Y0214921D01*
X0127800Y0206924D02*
X0127800Y0206924D01*
X0133000Y0206924D02*
X0143800Y0206924D01*
X0143800Y0210923D02*
X0134045Y0210923D01*
X0133347Y0214921D02*
X0143800Y0214921D01*
X0141683Y0218920D02*
X0136274Y0218920D01*
X0140272Y0222918D02*
X0141100Y0222918D01*
X0143180Y0226917D02*
X0143459Y0226917D01*
X0143200Y0230915D02*
X0173818Y0230915D01*
X0173693Y0234914D02*
X0143200Y0234914D01*
X0143200Y0238912D02*
X0174033Y0238912D01*
X0183800Y0242911D02*
X0143200Y0242911D01*
X0143200Y0246909D02*
X0183800Y0246909D01*
X0183800Y0250908D02*
X0143200Y0250908D01*
X0143200Y0254906D02*
X0146371Y0254906D01*
X0149629Y0254906D02*
X0161371Y0254906D01*
X0161627Y0254800D02*
X0164372Y0254800D01*
X0166909Y0255850D01*
X0168850Y0257791D01*
X0169900Y0260327D01*
X0169900Y0263072D01*
X0168850Y0265609D01*
X0166909Y0267550D01*
X0164372Y0268600D01*
X0161627Y0268600D01*
X0159091Y0267550D01*
X0157150Y0265609D01*
X0156100Y0263072D01*
X0156100Y0260327D01*
X0157150Y0257791D01*
X0159091Y0255850D01*
X0161627Y0254800D01*
X0164629Y0254906D02*
X0183800Y0254906D01*
X0183800Y0258905D02*
X0169311Y0258905D01*
X0169900Y0262903D02*
X0182157Y0262903D01*
X0178159Y0266902D02*
X0167556Y0266902D01*
X0158444Y0266902D02*
X0152556Y0266902D01*
X0154900Y0262903D02*
X0156100Y0262903D01*
X0156689Y0258905D02*
X0154311Y0258905D01*
X0148000Y0261700D02*
X0141700Y0261700D01*
X0113000Y0262903D02*
X0113000Y0262903D01*
X0113000Y0263000D02*
X0113000Y0256300D01*
X0113000Y0253000D01*
X0113000Y0253000D01*
X0113000Y0263000D01*
X0113000Y0263000D01*
X0113000Y0258905D02*
X0113000Y0258905D01*
X0113000Y0254906D02*
X0113000Y0254906D01*
X0093060Y0274000D02*
X0089439Y0270379D01*
X0088800Y0268835D01*
X0088800Y0268558D01*
X0087150Y0266909D01*
X0086100Y0264372D01*
X0086100Y0261627D01*
X0087150Y0259091D01*
X0088242Y0258000D01*
X0087150Y0256909D01*
X0086100Y0254372D01*
X0086100Y0251627D01*
X0087150Y0249091D01*
X0089042Y0247200D01*
X0084740Y0247200D01*
X0080379Y0251561D01*
X0078835Y0252200D01*
X0037165Y0252200D01*
X0035621Y0251561D01*
X0034439Y0250379D01*
X0019439Y0235379D01*
X0018800Y0233835D01*
X0018800Y0230460D01*
X0018341Y0231569D01*
X0016736Y0233174D01*
X0016974Y0233347D01*
X0017653Y0234026D01*
X0018217Y0234803D01*
X0018653Y0235658D01*
X0018950Y0236572D01*
X0019100Y0237520D01*
X0019100Y0238000D01*
X0019100Y0238480D01*
X0018950Y0239428D01*
X0018653Y0240342D01*
X0018217Y0241197D01*
X0017653Y0241974D01*
X0016974Y0242653D01*
X0016197Y0243217D01*
X0015342Y0243653D01*
X0014428Y0243950D01*
X0013480Y0244100D01*
X0013000Y0244100D01*
X0013000Y0238000D01*
X0013000Y0238000D01*
X0019100Y0238000D01*
X0013000Y0238000D01*
X0013000Y0238000D01*
X0013000Y0244100D01*
X0012520Y0244100D01*
X0011572Y0243950D01*
X0010658Y0243653D01*
X0009803Y0243217D01*
X0009026Y0242653D01*
X0008347Y0241974D01*
X0007783Y0241197D01*
X0007347Y0240342D01*
X0007050Y0239428D01*
X0007000Y0239111D01*
X0007000Y0274000D01*
X0093060Y0274000D01*
X0089961Y0270900D02*
X0020355Y0270900D01*
X0019631Y0271200D02*
X0016369Y0271200D01*
X0013355Y0269952D01*
X0011048Y0267645D01*
X0009800Y0264631D01*
X0009800Y0261369D01*
X0011048Y0258355D01*
X0013355Y0256048D01*
X0016369Y0254800D01*
X0019631Y0254800D01*
X0022645Y0256048D01*
X0024952Y0258355D01*
X0026200Y0261369D01*
X0026200Y0264631D01*
X0024952Y0267645D01*
X0022645Y0269952D01*
X0019631Y0271200D01*
X0015645Y0270900D02*
X0007000Y0270900D01*
X0007000Y0266902D02*
X0010741Y0266902D01*
X0009800Y0262903D02*
X0007000Y0262903D01*
X0007000Y0258905D02*
X0010821Y0258905D01*
X0007000Y0254906D02*
X0016112Y0254906D01*
X0019887Y0254906D02*
X0086321Y0254906D01*
X0086398Y0250908D02*
X0081032Y0250908D01*
X0077150Y0242911D02*
X0076999Y0242911D01*
X0079300Y0238912D02*
X0081894Y0238912D01*
X0098738Y0222918D02*
X0110564Y0222918D01*
X0106566Y0218920D02*
X0099168Y0218920D01*
X0097118Y0214921D02*
X0102567Y0214921D01*
X0103800Y0190930D02*
X0098200Y0190930D01*
X0101422Y0186932D02*
X0104824Y0186932D01*
X0089998Y0170937D02*
X0078602Y0170937D01*
X0079300Y0166939D02*
X0085999Y0166939D01*
X0082001Y0162940D02*
X0076969Y0162940D01*
X0117400Y0110960D02*
X0143800Y0110960D01*
X0143800Y0106961D02*
X0116503Y0106961D01*
X0116948Y0102963D02*
X0143800Y0102963D01*
X0143025Y0098964D02*
X0117332Y0098964D01*
X0115792Y0094966D02*
X0139026Y0094966D01*
X0135028Y0090967D02*
X0117400Y0090967D01*
X0105961Y0062978D02*
X0007000Y0062978D01*
X0007000Y0058979D02*
X0106607Y0058979D01*
X0111401Y0054981D02*
X0007000Y0054981D01*
X0007000Y0050982D02*
X0125113Y0050982D01*
X0125059Y0050574D02*
X0125176Y0051463D01*
X0125408Y0052329D01*
X0125751Y0053157D01*
X0126199Y0053933D01*
X0126745Y0054645D01*
X0127379Y0055279D01*
X0128090Y0055824D01*
X0128867Y0056272D01*
X0129695Y0056616D01*
X0130561Y0056848D01*
X0131449Y0056965D01*
X0131898Y0056965D01*
X0131898Y0050126D01*
X0131898Y0050126D01*
X0131898Y0043287D01*
X0131449Y0043287D01*
X0130561Y0043404D01*
X0129695Y0043636D01*
X0128867Y0043979D01*
X0128090Y0044428D01*
X0127379Y0044973D01*
X0126745Y0045607D01*
X0126199Y0046319D01*
X0125751Y0047095D01*
X0125408Y0047923D01*
X0125176Y0048789D01*
X0125059Y0049678D01*
X0125059Y0050126D01*
X0131898Y0050126D01*
X0125059Y0050126D01*
X0125059Y0050574D01*
X0125815Y0046984D02*
X0007000Y0046984D01*
X0007000Y0042985D02*
X0043227Y0042985D01*
X0041100Y0038987D02*
X0007000Y0038987D01*
X0007000Y0034988D02*
X0041779Y0034988D01*
X0041770Y0030990D02*
X0007000Y0030990D01*
X0007000Y0026991D02*
X0041100Y0026991D01*
X0043249Y0022993D02*
X0024604Y0022993D01*
X0024952Y0022645D02*
X0022645Y0024952D01*
X0019631Y0026200D01*
X0016369Y0026200D01*
X0013355Y0024952D01*
X0011048Y0022645D01*
X0009800Y0019631D01*
X0009800Y0016369D01*
X0011048Y0013355D01*
X0013355Y0011048D01*
X0016369Y0009800D01*
X0019631Y0009800D01*
X0022645Y0011048D01*
X0024952Y0013355D01*
X0026200Y0016369D01*
X0026200Y0019631D01*
X0024952Y0022645D01*
X0026200Y0018994D02*
X0041373Y0018994D01*
X0041300Y0018000D02*
X0041300Y0017561D01*
X0041415Y0016690D01*
X0041642Y0015842D01*
X0041978Y0015030D01*
X0042417Y0014270D01*
X0042952Y0013573D01*
X0043573Y0012952D01*
X0044270Y0012417D01*
X0045030Y0011978D01*
X0045842Y0011642D01*
X0046690Y0011415D01*
X0047561Y0011300D01*
X0048000Y0011300D01*
X0048439Y0011300D01*
X0049310Y0011415D01*
X0050158Y0011642D01*
X0050970Y0011978D01*
X0051730Y0012417D01*
X0052427Y0012952D01*
X0053000Y0013525D01*
X0053573Y0012952D01*
X0054270Y0012417D01*
X0055030Y0011978D01*
X0055842Y0011642D01*
X0056690Y0011415D01*
X0057561Y0011300D01*
X0058000Y0011300D01*
X0058439Y0011300D01*
X0059310Y0011415D01*
X0060158Y0011642D01*
X0060970Y0011978D01*
X0061730Y0012417D01*
X0062427Y0012952D01*
X0063000Y0013525D01*
X0063573Y0012952D01*
X0064270Y0012417D01*
X0065030Y0011978D01*
X0065842Y0011642D01*
X0066690Y0011415D01*
X0067561Y0011300D01*
X0068000Y0011300D01*
X0068439Y0011300D01*
X0069310Y0011415D01*
X0070158Y0011642D01*
X0070970Y0011978D01*
X0071730Y0012417D01*
X0072427Y0012952D01*
X0073000Y0013525D01*
X0073573Y0012952D01*
X0074270Y0012417D01*
X0075030Y0011978D01*
X0075842Y0011642D01*
X0076690Y0011415D01*
X0077561Y0011300D01*
X0078000Y0011300D01*
X0078439Y0011300D01*
X0079310Y0011415D01*
X0080158Y0011642D01*
X0080970Y0011978D01*
X0081730Y0012417D01*
X0082427Y0012952D01*
X0083048Y0013573D01*
X0083583Y0014270D01*
X0084022Y0015030D01*
X0084358Y0015842D01*
X0084585Y0016690D01*
X0084700Y0017561D01*
X0084700Y0018000D01*
X0078000Y0018000D01*
X0078000Y0018000D01*
X0078000Y0011300D01*
X0078000Y0018000D01*
X0078000Y0018000D01*
X0078000Y0018000D01*
X0068000Y0018000D01*
X0068000Y0018000D01*
X0068000Y0011300D01*
X0068000Y0018000D01*
X0068000Y0018000D01*
X0068000Y0018000D01*
X0058000Y0018000D01*
X0058000Y0018000D01*
X0058000Y0011300D01*
X0058000Y0018000D01*
X0058000Y0018000D01*
X0058000Y0018000D01*
X0048000Y0018000D01*
X0048000Y0018000D01*
X0048000Y0011300D01*
X0048000Y0018000D01*
X0048000Y0018000D01*
X0048000Y0018000D01*
X0041300Y0018000D01*
X0041998Y0014996D02*
X0025631Y0014996D01*
X0022521Y0010997D02*
X0258479Y0010997D01*
X0258355Y0011048D02*
X0261369Y0009800D01*
X0264631Y0009800D01*
X0267645Y0011048D01*
X0269952Y0013355D01*
X0271200Y0016369D01*
X0271200Y0019631D01*
X0269952Y0022645D01*
X0267645Y0024952D01*
X0264631Y0026200D01*
X0261369Y0026200D01*
X0258355Y0024952D01*
X0256048Y0022645D01*
X0254800Y0019631D01*
X0254800Y0016369D01*
X0256048Y0013355D01*
X0258355Y0011048D01*
X0255369Y0014996D02*
X0084002Y0014996D01*
X0084627Y0018994D02*
X0254800Y0018994D01*
X0256396Y0022993D02*
X0232633Y0022993D01*
X0233287Y0026991D02*
X0274000Y0026991D01*
X0274000Y0022993D02*
X0269604Y0022993D01*
X0271200Y0018994D02*
X0274000Y0018994D01*
X0274000Y0014996D02*
X0270631Y0014996D01*
X0267521Y0010997D02*
X0274000Y0010997D01*
X0274000Y0030990D02*
X0230762Y0030990D01*
X0223112Y0030990D02*
X0222430Y0030990D01*
X0178000Y0028000D02*
X0178000Y0028000D01*
X0171300Y0028000D01*
X0171300Y0027561D01*
X0171415Y0026690D01*
X0171642Y0025842D01*
X0171978Y0025030D01*
X0172417Y0024270D01*
X0172952Y0023573D01*
X0173573Y0022952D01*
X0174270Y0022417D01*
X0175030Y0021978D01*
X0175842Y0021642D01*
X0176690Y0021415D01*
X0177561Y0021300D01*
X0178000Y0021300D01*
X0178000Y0028000D01*
X0178000Y0026991D02*
X0178000Y0026991D01*
X0178000Y0022993D02*
X0178000Y0022993D01*
X0173532Y0022993D02*
X0157468Y0022993D01*
X0157427Y0022952D02*
X0158048Y0023573D01*
X0158583Y0024270D01*
X0159022Y0025030D01*
X0159358Y0025842D01*
X0159585Y0026690D01*
X0159700Y0027561D01*
X0159700Y0028000D01*
X0153000Y0028000D01*
X0153000Y0028000D01*
X0153000Y0028000D01*
X0153000Y0021300D01*
X0153439Y0021300D01*
X0154310Y0021415D01*
X0155158Y0021642D01*
X0155970Y0021978D01*
X0156730Y0022417D01*
X0157427Y0022952D01*
X0159625Y0026991D02*
X0171375Y0026991D01*
X0171990Y0030990D02*
X0159010Y0030990D01*
X0159221Y0034988D02*
X0171779Y0034988D01*
X0171100Y0038987D02*
X0159900Y0038987D01*
X0157773Y0042985D02*
X0173227Y0042985D01*
X0171100Y0046984D02*
X0159900Y0046984D01*
X0159233Y0050982D02*
X0171767Y0050982D01*
X0146779Y0034988D02*
X0118463Y0034988D01*
X0119839Y0038987D02*
X0146100Y0038987D01*
X0146990Y0030990D02*
X0084230Y0030990D01*
X0084900Y0026991D02*
X0146375Y0026991D01*
X0146415Y0026690D02*
X0146642Y0025842D01*
X0146978Y0025030D01*
X0147417Y0024270D01*
X0147952Y0023573D01*
X0148573Y0022952D01*
X0149270Y0022417D01*
X0150030Y0021978D01*
X0150842Y0021642D01*
X0151690Y0021415D01*
X0152561Y0021300D01*
X0153000Y0021300D01*
X0153000Y0028000D01*
X0153000Y0028000D01*
X0146300Y0028000D01*
X0146300Y0027561D01*
X0146415Y0026690D01*
X0148532Y0022993D02*
X0082751Y0022993D01*
X0078000Y0014996D02*
X0078000Y0014996D01*
X0068000Y0014996D02*
X0068000Y0014996D01*
X0058000Y0014996D02*
X0058000Y0014996D01*
X0048000Y0014996D02*
X0048000Y0014996D01*
X0052773Y0042985D02*
X0053227Y0042985D01*
X0011396Y0022993D02*
X0007000Y0022993D01*
X0007000Y0018994D02*
X0009800Y0018994D01*
X0010369Y0014996D02*
X0007000Y0014996D01*
X0007000Y0010997D02*
X0013479Y0010997D01*
X0016872Y0102963D02*
X0027098Y0102963D01*
X0114599Y0054981D02*
X0127081Y0054981D01*
X0131898Y0054981D02*
X0131898Y0054981D01*
X0131898Y0050982D02*
X0131898Y0050982D01*
X0131898Y0050126D02*
X0131898Y0050126D01*
X0131898Y0046984D02*
X0131898Y0046984D01*
X0153000Y0026991D02*
X0153000Y0026991D01*
X0153000Y0022993D02*
X0153000Y0022993D01*
X0216682Y0146946D02*
X0274000Y0146946D01*
X0274000Y0150945D02*
X0152200Y0150945D01*
X0152200Y0154943D02*
X0274000Y0154943D01*
X0274000Y0158942D02*
X0269947Y0158942D01*
X0269706Y0158701D02*
X0271394Y0160389D01*
X0272307Y0162594D01*
X0272307Y0164981D01*
X0271394Y0167186D01*
X0270855Y0167724D01*
X0271394Y0168263D01*
X0272307Y0170468D01*
X0272307Y0172855D01*
X0271394Y0175060D01*
X0270855Y0175598D01*
X0271394Y0176137D01*
X0272307Y0178342D01*
X0272307Y0180729D01*
X0271394Y0182934D01*
X0270855Y0183472D01*
X0271394Y0184011D01*
X0272307Y0186216D01*
X0272307Y0188603D01*
X0271394Y0190808D01*
X0270855Y0191346D01*
X0271394Y0191885D01*
X0272307Y0194090D01*
X0272307Y0196477D01*
X0271394Y0198682D01*
X0270855Y0199220D01*
X0271394Y0199759D01*
X0272307Y0201964D01*
X0272307Y0204351D01*
X0271394Y0206556D01*
X0270855Y0207094D01*
X0271394Y0207633D01*
X0272307Y0209838D01*
X0272307Y0212225D01*
X0271394Y0214430D01*
X0270855Y0214968D01*
X0271394Y0215507D01*
X0272307Y0217712D01*
X0272307Y0220099D01*
X0271394Y0222304D01*
X0270855Y0222843D01*
X0271394Y0223381D01*
X0272307Y0225586D01*
X0272307Y0227973D01*
X0271394Y0230178D01*
X0270855Y0230717D01*
X0271394Y0231255D01*
X0272307Y0233460D01*
X0272307Y0235847D01*
X0271394Y0238052D01*
X0269706Y0239740D01*
X0267501Y0240654D01*
X0265114Y0240654D01*
X0262908Y0239740D01*
X0261221Y0238052D01*
X0260307Y0235847D01*
X0260307Y0233460D01*
X0261221Y0231255D01*
X0261759Y0230717D01*
X0261221Y0230178D01*
X0260307Y0227973D01*
X0260307Y0225586D01*
X0261221Y0223381D01*
X0261759Y0222843D01*
X0261221Y0222304D01*
X0260307Y0220099D01*
X0260307Y0217712D01*
X0261221Y0215507D01*
X0261759Y0214968D01*
X0261221Y0214430D01*
X0260307Y0212225D01*
X0260307Y0209838D01*
X0261221Y0207633D01*
X0261759Y0207094D01*
X0261221Y0206556D01*
X0260307Y0204351D01*
X0260307Y0201964D01*
X0261221Y0199759D01*
X0261759Y0199220D01*
X0261221Y0198682D01*
X0260307Y0196477D01*
X0260307Y0194090D01*
X0261221Y0191885D01*
X0261759Y0191346D01*
X0261221Y0190808D01*
X0260307Y0188603D01*
X0260307Y0186216D01*
X0261221Y0184011D01*
X0261759Y0183472D01*
X0261221Y0182934D01*
X0260307Y0180729D01*
X0260307Y0178342D01*
X0261221Y0176137D01*
X0261759Y0175598D01*
X0261221Y0175060D01*
X0260307Y0172855D01*
X0260307Y0170468D01*
X0261221Y0168263D01*
X0261759Y0167724D01*
X0261221Y0167186D01*
X0260307Y0164981D01*
X0260307Y0162594D01*
X0261221Y0160389D01*
X0262908Y0158701D01*
X0265114Y0157787D01*
X0267501Y0157787D01*
X0269706Y0158701D01*
X0272307Y0162940D02*
X0274000Y0162940D01*
X0274000Y0166939D02*
X0271496Y0166939D01*
X0272307Y0170937D02*
X0274000Y0170937D01*
X0274000Y0174936D02*
X0271445Y0174936D01*
X0272307Y0178934D02*
X0274000Y0178934D01*
X0274000Y0182933D02*
X0271394Y0182933D01*
X0272307Y0186932D02*
X0274000Y0186932D01*
X0274000Y0190930D02*
X0271272Y0190930D01*
X0272307Y0194929D02*
X0274000Y0194929D01*
X0274000Y0198927D02*
X0271149Y0198927D01*
X0272307Y0202926D02*
X0274000Y0202926D01*
X0274000Y0206924D02*
X0271026Y0206924D01*
X0272307Y0210923D02*
X0274000Y0210923D01*
X0274000Y0214921D02*
X0270903Y0214921D01*
X0272307Y0218920D02*
X0274000Y0218920D01*
X0274000Y0222918D02*
X0270931Y0222918D01*
X0272307Y0226917D02*
X0274000Y0226917D01*
X0274000Y0230915D02*
X0271054Y0230915D01*
X0272307Y0234914D02*
X0274000Y0234914D01*
X0274000Y0238912D02*
X0270534Y0238912D01*
X0274000Y0242911D02*
X0192200Y0242911D01*
X0192200Y0246909D02*
X0274000Y0246909D01*
X0274000Y0250908D02*
X0192200Y0250908D01*
X0192200Y0254906D02*
X0261112Y0254906D01*
X0261369Y0254800D02*
X0258355Y0256048D01*
X0256048Y0258355D01*
X0254800Y0261369D01*
X0254800Y0264631D01*
X0256048Y0267645D01*
X0258355Y0269952D01*
X0261369Y0271200D01*
X0264631Y0271200D01*
X0267645Y0269952D01*
X0269952Y0267645D01*
X0271200Y0264631D01*
X0271200Y0261369D01*
X0269952Y0258355D01*
X0267645Y0256048D01*
X0264631Y0254800D01*
X0261369Y0254800D01*
X0264887Y0254906D02*
X0274000Y0254906D01*
X0274000Y0258905D02*
X0270179Y0258905D01*
X0271200Y0262903D02*
X0274000Y0262903D01*
X0274000Y0266902D02*
X0270259Y0266902D01*
X0274000Y0270900D02*
X0265355Y0270900D01*
X0260645Y0270900D02*
X0186039Y0270900D01*
X0190038Y0266902D02*
X0255741Y0266902D01*
X0254800Y0262903D02*
X0192200Y0262903D01*
X0192200Y0258905D02*
X0255821Y0258905D01*
X0262080Y0238912D02*
X0192200Y0238912D01*
X0192200Y0234914D02*
X0260307Y0234914D01*
X0261560Y0230915D02*
X0191682Y0230915D01*
X0187856Y0226917D02*
X0260307Y0226917D01*
X0261683Y0222918D02*
X0184317Y0222918D01*
X0185693Y0218920D02*
X0260307Y0218920D01*
X0261711Y0214921D02*
X0184289Y0214921D01*
X0185693Y0210923D02*
X0260307Y0210923D01*
X0261588Y0206924D02*
X0184412Y0206924D01*
X0185693Y0202926D02*
X0260307Y0202926D01*
X0261465Y0198927D02*
X0184535Y0198927D01*
X0185693Y0194929D02*
X0260307Y0194929D01*
X0261342Y0190930D02*
X0184658Y0190930D01*
X0185693Y0186932D02*
X0260307Y0186932D01*
X0261220Y0182933D02*
X0184780Y0182933D01*
X0185693Y0178934D02*
X0260307Y0178934D01*
X0261169Y0174936D02*
X0184831Y0174936D01*
X0185693Y0170937D02*
X0260307Y0170937D01*
X0261118Y0166939D02*
X0184572Y0166939D01*
X0185431Y0162940D02*
X0260307Y0162940D01*
X0262667Y0158942D02*
X0182891Y0158942D01*
X0179693Y0158942D02*
X0179693Y0158942D01*
X0176495Y0158942D02*
X0152200Y0158942D01*
X0152200Y0162940D02*
X0173955Y0162940D01*
X0174813Y0166939D02*
X0152200Y0166939D01*
X0152200Y0170937D02*
X0173693Y0170937D01*
X0174555Y0174936D02*
X0152200Y0174936D01*
X0152200Y0178934D02*
X0173693Y0178934D01*
X0174606Y0182933D02*
X0152200Y0182933D01*
X0152200Y0186932D02*
X0173693Y0186932D01*
X0174728Y0190930D02*
X0152200Y0190930D01*
X0152200Y0194929D02*
X0173693Y0194929D01*
X0174851Y0198927D02*
X0152200Y0198927D01*
X0152200Y0202926D02*
X0173693Y0202926D01*
X0174974Y0206924D02*
X0152200Y0206924D01*
X0152200Y0210923D02*
X0173693Y0210923D01*
X0175097Y0214921D02*
X0164665Y0214921D01*
X0164372Y0214800D02*
X0166909Y0215850D01*
X0168850Y0217791D01*
X0169900Y0220327D01*
X0169900Y0223072D01*
X0168850Y0225609D01*
X0166909Y0227550D01*
X0164372Y0228600D01*
X0161627Y0228600D01*
X0159091Y0227550D01*
X0157150Y0225609D01*
X0156100Y0223072D01*
X0156100Y0220327D01*
X0157150Y0217791D01*
X0159091Y0215850D01*
X0161627Y0214800D01*
X0164372Y0214800D01*
X0161335Y0214921D02*
X0152200Y0214921D01*
X0154317Y0218920D02*
X0156683Y0218920D01*
X0156100Y0222918D02*
X0154900Y0222918D01*
X0152541Y0226917D02*
X0158459Y0226917D01*
X0167541Y0226917D02*
X0173693Y0226917D01*
X0175069Y0222918D02*
X0169900Y0222918D01*
X0169317Y0218920D02*
X0173693Y0218920D01*
X0179693Y0162940D02*
X0179693Y0162940D01*
X0087337Y0258905D02*
X0025179Y0258905D01*
X0026200Y0262903D02*
X0086100Y0262903D01*
X0087148Y0266902D02*
X0025259Y0266902D01*
X0034968Y0250908D02*
X0007000Y0250908D01*
X0007000Y0246909D02*
X0030970Y0246909D01*
X0026971Y0242911D02*
X0016619Y0242911D01*
X0013000Y0242911D02*
X0013000Y0242911D01*
X0009381Y0242911D02*
X0007000Y0242911D01*
X0013000Y0238912D02*
X0013000Y0238912D01*
X0019032Y0238912D02*
X0022972Y0238912D01*
X0019247Y0234914D02*
X0018274Y0234914D01*
X0018612Y0230915D02*
X0018800Y0230915D01*
D20*
X0023000Y0233000D02*
X0038000Y0248000D01*
X0078000Y0248000D01*
X0083000Y0243000D01*
X0118000Y0243000D01*
X0123000Y0248000D01*
X0123000Y0253000D01*
X0098000Y0273000D02*
X0178000Y0273000D01*
X0188000Y0263000D01*
X0188000Y0233000D01*
X0181780Y0226780D01*
X0179693Y0226780D01*
X0148000Y0221700D02*
X0148000Y0098000D01*
X0133000Y0083000D01*
X0093000Y0083000D01*
X0088000Y0088000D01*
X0088000Y0123000D01*
X0083000Y0128000D01*
X0073000Y0128000D01*
X0073000Y0118000D02*
X0053000Y0118000D01*
X0023000Y0148000D01*
X0023000Y0233000D01*
X0093000Y0263000D02*
X0093000Y0268000D01*
X0098000Y0273000D01*
X0095500Y0170500D02*
X0110500Y0170500D01*
X0095500Y0170500D02*
X0083000Y0158000D01*
X0073000Y0158000D01*
X0028000Y0128000D02*
X0013000Y0128000D01*
X0013000Y0118000D02*
X0028000Y0118000D01*
X0073000Y0073000D01*
X0218000Y0073000D01*
X0243000Y0098000D01*
X0248000Y0098000D01*
X0228000Y0093000D02*
X0213000Y0078000D01*
X0078000Y0078000D01*
X0028000Y0128000D01*
X0028000Y0108000D02*
X0013000Y0108000D01*
X0028000Y0108000D02*
X0068000Y0068000D01*
X0218000Y0068000D01*
X0228000Y0058000D01*
X0248000Y0058000D01*
X0228000Y0093000D02*
X0228000Y0108000D01*
X0248000Y0128000D01*
X0248000Y0138000D01*
M02*
