G75*
%MOIN*%
%OFA0B0*%
%FSLAX25Y25*%
%IPPOS*%
%LPD*%
%AMOC8*
5,1,8,0,0,1.08239X$1,22.5*
%
%ADD10C,0.00500*%
%ADD11C,0.01000*%
%ADD12C,0.00400*%
%ADD13C,0.00300*%
%ADD14C,0.00800*%
%ADD15C,0.00600*%
%ADD16C,0.00100*%
D10*
X0035746Y0016901D02*
X0036497Y0016150D01*
X0039499Y0016150D01*
X0040250Y0016901D01*
X0040250Y0018402D01*
X0039499Y0019153D01*
X0037998Y0019153D01*
X0037998Y0017651D01*
X0036497Y0019153D02*
X0035746Y0018402D01*
X0035746Y0016901D01*
X0035746Y0026150D02*
X0038749Y0026150D01*
X0040250Y0027651D01*
X0038749Y0029153D01*
X0035746Y0029153D01*
X0036497Y0036150D02*
X0037247Y0036150D01*
X0037998Y0036901D01*
X0037998Y0038402D01*
X0038749Y0039153D01*
X0039499Y0039153D01*
X0040250Y0038402D01*
X0040250Y0036901D01*
X0039499Y0036150D01*
X0036497Y0036150D02*
X0035746Y0036901D01*
X0035746Y0038402D01*
X0036497Y0039153D01*
X0045946Y0044850D02*
X0047447Y0046351D01*
X0045946Y0047853D01*
X0050450Y0047853D01*
X0048198Y0049454D02*
X0048198Y0052456D01*
X0050450Y0051706D02*
X0045946Y0051706D01*
X0048198Y0049454D01*
X0050450Y0044850D02*
X0045946Y0044850D01*
X0055946Y0044850D02*
X0057447Y0046351D01*
X0055946Y0047853D01*
X0060450Y0047853D01*
X0059699Y0049454D02*
X0060450Y0050205D01*
X0060450Y0051706D01*
X0059699Y0052456D01*
X0058949Y0052456D01*
X0058198Y0051706D01*
X0058198Y0050955D01*
X0058198Y0051706D02*
X0057447Y0052456D01*
X0056697Y0052456D01*
X0055946Y0051706D01*
X0055946Y0050205D01*
X0056697Y0049454D01*
X0055946Y0044850D02*
X0060450Y0044850D01*
X0065946Y0044850D02*
X0067447Y0046351D01*
X0065946Y0047853D01*
X0070450Y0047853D01*
X0070450Y0049454D02*
X0067447Y0052456D01*
X0066697Y0052456D01*
X0065946Y0051706D01*
X0065946Y0050205D01*
X0066697Y0049454D01*
X0070450Y0049454D02*
X0070450Y0052456D01*
X0075946Y0050955D02*
X0077447Y0049454D01*
X0075946Y0050955D02*
X0080450Y0050955D01*
X0080450Y0049454D02*
X0080450Y0052456D01*
X0080450Y0047853D02*
X0075946Y0047853D01*
X0077447Y0046351D01*
X0075946Y0044850D01*
X0080450Y0044850D01*
X0070450Y0044850D02*
X0065946Y0044850D01*
X0124245Y0095750D02*
X0126247Y0097752D01*
X0124245Y0099753D01*
X0130250Y0099753D01*
X0130250Y0101735D02*
X0124245Y0101735D01*
X0124245Y0104738D01*
X0125246Y0105739D01*
X0127247Y0105739D01*
X0128248Y0104738D01*
X0128248Y0101735D01*
X0129249Y0107720D02*
X0124245Y0107720D01*
X0124245Y0111724D02*
X0129249Y0111724D01*
X0130250Y0110723D01*
X0130250Y0108721D01*
X0129249Y0107720D01*
X0129249Y0113705D02*
X0130250Y0114706D01*
X0130250Y0116708D01*
X0129249Y0117709D01*
X0125246Y0117709D01*
X0124245Y0116708D01*
X0124245Y0114706D01*
X0125246Y0113705D01*
X0126247Y0113705D01*
X0127247Y0114706D01*
X0127247Y0117709D01*
X0126247Y0119690D02*
X0124245Y0121692D01*
X0130250Y0121692D01*
X0130250Y0119690D02*
X0130250Y0123694D01*
X0129249Y0125676D02*
X0130250Y0126676D01*
X0130250Y0128678D01*
X0129249Y0129679D01*
X0127247Y0129679D01*
X0126247Y0128678D01*
X0126247Y0127677D01*
X0127247Y0125676D01*
X0124245Y0125676D01*
X0124245Y0129679D01*
X0125246Y0131661D02*
X0124245Y0132662D01*
X0124245Y0134663D01*
X0125246Y0135664D01*
X0129249Y0131661D01*
X0130250Y0132662D01*
X0130250Y0134663D01*
X0129249Y0135664D01*
X0125246Y0135664D01*
X0125246Y0131661D02*
X0129249Y0131661D01*
X0138000Y0140500D02*
X0143000Y0140500D01*
X0140500Y0143000D02*
X0140500Y0138000D01*
X0130250Y0143631D02*
X0130250Y0146633D01*
X0129249Y0147634D01*
X0128248Y0147634D01*
X0127247Y0146633D01*
X0127247Y0143631D01*
X0124245Y0143631D02*
X0124245Y0146633D01*
X0125246Y0147634D01*
X0126247Y0147634D01*
X0127247Y0146633D01*
X0126247Y0149616D02*
X0130250Y0149616D01*
X0128248Y0149616D02*
X0126247Y0151618D01*
X0126247Y0152619D01*
X0127247Y0154604D02*
X0126247Y0155604D01*
X0126247Y0157606D01*
X0127247Y0158607D01*
X0128248Y0158607D01*
X0128248Y0154604D01*
X0129249Y0154604D02*
X0127247Y0154604D01*
X0129249Y0154604D02*
X0130250Y0155604D01*
X0130250Y0157606D01*
X0129249Y0160589D02*
X0128248Y0161590D01*
X0128248Y0164592D01*
X0127247Y0164592D02*
X0130250Y0164592D01*
X0130250Y0161590D01*
X0129249Y0160589D01*
X0126247Y0161590D02*
X0126247Y0163591D01*
X0127247Y0164592D01*
X0128248Y0166574D02*
X0126247Y0169576D01*
X0127247Y0171561D02*
X0126247Y0172562D01*
X0126247Y0174564D01*
X0127247Y0175565D01*
X0129249Y0175565D01*
X0130250Y0174564D01*
X0130250Y0172562D01*
X0129249Y0171561D01*
X0127247Y0171561D01*
X0130250Y0169576D02*
X0128248Y0166574D01*
X0130250Y0166574D02*
X0124245Y0166574D01*
X0126247Y0177547D02*
X0129249Y0177547D01*
X0130250Y0178547D01*
X0130250Y0181550D01*
X0126247Y0181550D01*
X0126247Y0183532D02*
X0126247Y0185533D01*
X0125246Y0184532D02*
X0129249Y0184532D01*
X0130250Y0185533D01*
X0130250Y0143631D02*
X0124245Y0143631D01*
X0124245Y0095750D02*
X0130250Y0095750D01*
X0146187Y0070154D02*
X0145436Y0069403D01*
X0146187Y0070154D02*
X0147688Y0070154D01*
X0148439Y0069403D01*
X0148439Y0068653D01*
X0147688Y0067902D01*
X0148439Y0067151D01*
X0148439Y0066401D01*
X0147688Y0065650D01*
X0146187Y0065650D01*
X0145436Y0066401D01*
X0146938Y0067902D02*
X0147688Y0067902D01*
X0150040Y0066401D02*
X0150791Y0066401D01*
X0150791Y0065650D01*
X0150040Y0065650D01*
X0150040Y0066401D01*
X0152342Y0066401D02*
X0153093Y0065650D01*
X0154594Y0065650D01*
X0155345Y0066401D01*
X0155345Y0067151D01*
X0154594Y0067902D01*
X0153843Y0067902D01*
X0154594Y0067902D02*
X0155345Y0068653D01*
X0155345Y0069403D01*
X0154594Y0070154D01*
X0153093Y0070154D01*
X0152342Y0069403D01*
X0156946Y0070154D02*
X0156946Y0067151D01*
X0158447Y0065650D01*
X0159949Y0067151D01*
X0159949Y0070154D01*
X0174142Y0069754D02*
X0174142Y0067502D01*
X0175643Y0068253D01*
X0176394Y0068253D01*
X0177145Y0067502D01*
X0177145Y0066001D01*
X0176394Y0065250D01*
X0174893Y0065250D01*
X0174142Y0066001D01*
X0174142Y0069754D02*
X0177145Y0069754D01*
X0178746Y0069754D02*
X0178746Y0066751D01*
X0180247Y0065250D01*
X0181749Y0066751D01*
X0181749Y0069754D01*
X0179378Y0096189D02*
X0226622Y0096189D01*
X0226622Y0119811D01*
X0179378Y0119811D01*
X0179378Y0096189D01*
X0181346Y0098157D02*
X0181346Y0100394D01*
X0224654Y0100394D01*
X0224654Y0117843D01*
X0181346Y0117843D01*
X0181346Y0100394D01*
X0181346Y0098157D02*
X0224654Y0098157D01*
X0224654Y0100394D01*
X0226622Y0126189D02*
X0179378Y0126189D01*
X0179378Y0149811D01*
X0226622Y0149811D01*
X0226622Y0126189D01*
X0224654Y0128157D02*
X0181346Y0128157D01*
X0181346Y0130394D01*
X0224654Y0130394D01*
X0224654Y0147843D01*
X0181346Y0147843D01*
X0181346Y0130394D01*
X0173787Y0157882D02*
X0173787Y0240559D01*
X0203315Y0266150D01*
X0240717Y0266150D01*
X0272213Y0240559D01*
X0272213Y0157882D01*
X0173787Y0157882D01*
X0224654Y0130394D02*
X0224654Y0128157D01*
X0226321Y0208650D02*
X0225320Y0209651D01*
X0225320Y0211653D01*
X0226321Y0212653D01*
X0228323Y0212653D01*
X0229324Y0211653D01*
X0229324Y0210652D01*
X0225320Y0210652D01*
X0223339Y0210652D02*
X0222338Y0211653D01*
X0219335Y0211653D01*
X0219335Y0214655D02*
X0219335Y0208650D01*
X0222338Y0208650D01*
X0223339Y0209651D01*
X0223339Y0210652D01*
X0222338Y0211653D02*
X0223339Y0212653D01*
X0223339Y0213654D01*
X0222338Y0214655D01*
X0219335Y0214655D01*
X0217353Y0214655D02*
X0213350Y0208650D01*
X0217353Y0208650D02*
X0213350Y0214655D01*
X0226321Y0208650D02*
X0228323Y0208650D01*
X0231305Y0209651D02*
X0231305Y0211653D01*
X0232306Y0212653D01*
X0234308Y0212653D01*
X0235309Y0211653D01*
X0235309Y0210652D01*
X0231305Y0210652D01*
X0231305Y0209651D02*
X0232306Y0208650D01*
X0234308Y0208650D01*
X0135050Y0248142D02*
X0130546Y0248142D01*
X0130546Y0250394D01*
X0131297Y0251145D01*
X0132798Y0251145D01*
X0133549Y0250394D01*
X0133549Y0248142D01*
X0133549Y0249643D02*
X0135050Y0251145D01*
X0135050Y0252746D02*
X0130546Y0255749D01*
X0130546Y0259150D02*
X0130546Y0262153D01*
X0130546Y0260651D02*
X0135050Y0260651D01*
X0135050Y0263754D02*
X0130546Y0266756D01*
X0130546Y0263754D02*
X0135050Y0266756D01*
X0135050Y0255749D02*
X0130546Y0252746D01*
X0046852Y0174378D02*
X0046852Y0173377D01*
X0046852Y0174378D02*
X0045851Y0175379D01*
X0040847Y0175379D01*
X0044850Y0175379D02*
X0044850Y0172376D01*
X0043849Y0171376D01*
X0040847Y0171376D01*
X0040847Y0169394D02*
X0040847Y0166391D01*
X0041847Y0165390D01*
X0042848Y0166391D01*
X0042848Y0168393D01*
X0043849Y0169394D01*
X0044850Y0168393D01*
X0044850Y0165390D01*
X0044850Y0163409D02*
X0041847Y0163409D01*
X0040847Y0162408D01*
X0040847Y0159405D01*
X0044850Y0159405D01*
X0042848Y0157424D02*
X0042848Y0153420D01*
X0043849Y0153420D02*
X0041847Y0153420D01*
X0040847Y0154421D01*
X0040847Y0156423D01*
X0041847Y0157424D01*
X0042848Y0157424D01*
X0044850Y0156423D02*
X0044850Y0154421D01*
X0043849Y0153420D01*
X0042848Y0151439D02*
X0041847Y0151439D01*
X0040847Y0150438D01*
X0040847Y0148436D01*
X0041847Y0147435D01*
X0043849Y0147435D01*
X0044850Y0148436D01*
X0044850Y0150438D01*
X0042848Y0151439D02*
X0042848Y0147435D01*
X0044850Y0143452D02*
X0038845Y0143452D01*
X0038845Y0145453D02*
X0038845Y0141450D01*
X0039846Y0183346D02*
X0038845Y0184347D01*
X0038845Y0186348D01*
X0039846Y0187349D01*
X0040847Y0187349D01*
X0041847Y0186348D01*
X0042848Y0187349D01*
X0043849Y0187349D01*
X0044850Y0186348D01*
X0044850Y0184347D01*
X0043849Y0183346D01*
X0041847Y0185348D02*
X0041847Y0186348D01*
X0043849Y0189331D02*
X0043849Y0190332D01*
X0044850Y0190332D01*
X0044850Y0189331D01*
X0043849Y0189331D01*
X0044850Y0192323D02*
X0040847Y0196327D01*
X0039846Y0196327D01*
X0038845Y0195326D01*
X0038845Y0193324D01*
X0039846Y0192323D01*
X0044850Y0192323D02*
X0044850Y0196327D01*
D11*
X0087800Y0205400D02*
X0087800Y0215400D01*
X0097800Y0215400D01*
X0097800Y0205400D01*
X0087800Y0205400D01*
X0088000Y0241100D02*
X0105900Y0241100D01*
X0106100Y0241300D01*
X0106100Y0246200D01*
X0109900Y0246200D02*
X0109900Y0241100D01*
X0128000Y0241100D01*
X0128000Y0246100D01*
X0088000Y0246100D02*
X0088000Y0241100D01*
X0041104Y0089509D02*
X0035599Y0089509D01*
X0035599Y0078500D01*
X0041104Y0078500D01*
X0042938Y0080335D01*
X0042938Y0087675D01*
X0041104Y0089509D01*
X0046648Y0085840D02*
X0046648Y0078500D01*
X0046648Y0082170D02*
X0050318Y0085840D01*
X0052153Y0085840D01*
X0055856Y0084005D02*
X0055856Y0080335D01*
X0057691Y0078500D01*
X0061361Y0078500D01*
X0063196Y0080335D01*
X0063196Y0084005D01*
X0061361Y0085840D01*
X0057691Y0085840D01*
X0055856Y0084005D01*
X0066906Y0085840D02*
X0066906Y0078500D01*
X0074245Y0078500D02*
X0074245Y0084005D01*
X0072410Y0085840D01*
X0066906Y0085840D01*
X0077955Y0084005D02*
X0077955Y0080335D01*
X0079790Y0078500D01*
X0083460Y0078500D01*
X0085295Y0082170D02*
X0077955Y0082170D01*
X0077955Y0084005D02*
X0079790Y0085840D01*
X0083460Y0085840D01*
X0085295Y0084005D01*
X0085295Y0082170D01*
X0031889Y0078500D02*
X0024549Y0089509D01*
X0020840Y0087675D02*
X0020840Y0085840D01*
X0019005Y0084005D01*
X0013500Y0084005D01*
X0013500Y0089509D02*
X0013500Y0078500D01*
X0019005Y0078500D01*
X0020840Y0080335D01*
X0020840Y0082170D01*
X0019005Y0084005D01*
X0020840Y0087675D02*
X0019005Y0089509D01*
X0013500Y0089509D01*
X0024549Y0078500D02*
X0031889Y0089509D01*
X0193000Y0053000D02*
X0193000Y0033000D01*
X0203000Y0033000D01*
X0203000Y0053000D01*
X0193000Y0053000D01*
D12*
X0193659Y0030904D02*
X0192892Y0030137D01*
X0192892Y0027067D01*
X0193659Y0026300D01*
X0195194Y0026300D01*
X0195961Y0027067D01*
X0197496Y0026300D02*
X0200565Y0026300D01*
X0199031Y0026300D02*
X0199031Y0030904D01*
X0197496Y0029369D01*
X0195961Y0030137D02*
X0195194Y0030904D01*
X0193659Y0030904D01*
X0205000Y0016903D02*
X0205000Y0013300D01*
X0207402Y0013300D01*
X0208683Y0013901D02*
X0209284Y0013300D01*
X0210485Y0013300D01*
X0211085Y0013901D01*
X0211085Y0014501D01*
X0210485Y0015102D01*
X0209284Y0015102D01*
X0208683Y0015702D01*
X0208683Y0016303D01*
X0209284Y0016903D01*
X0210485Y0016903D01*
X0211085Y0016303D01*
X0212366Y0016303D02*
X0212366Y0013901D01*
X0212967Y0013300D01*
X0214168Y0013300D01*
X0214768Y0013901D01*
X0214768Y0016303D02*
X0214168Y0016903D01*
X0212967Y0016903D01*
X0212366Y0016303D01*
X0207402Y0016903D02*
X0205000Y0016903D01*
X0205000Y0015102D02*
X0206201Y0015102D01*
X0219733Y0014501D02*
X0221534Y0014501D01*
X0222135Y0015102D01*
X0222135Y0016303D01*
X0221534Y0016903D01*
X0219733Y0016903D01*
X0219733Y0013300D01*
X0223416Y0013300D02*
X0224617Y0014501D01*
X0225818Y0013300D01*
X0225818Y0016903D01*
X0227099Y0016903D02*
X0228900Y0016903D01*
X0229501Y0016303D01*
X0229501Y0015102D01*
X0228900Y0014501D01*
X0227099Y0014501D01*
X0228300Y0014501D02*
X0229501Y0013300D01*
X0227099Y0013300D02*
X0227099Y0016903D01*
X0223416Y0016903D02*
X0223416Y0013300D01*
X0234465Y0013901D02*
X0235066Y0013300D01*
X0236267Y0013300D01*
X0236867Y0013901D01*
X0236867Y0016303D01*
X0236267Y0016903D01*
X0235066Y0016903D01*
X0234465Y0016303D01*
X0234465Y0013901D01*
X0238148Y0013901D02*
X0238749Y0013300D01*
X0239950Y0013300D01*
X0240550Y0013901D01*
X0240550Y0016903D01*
X0241831Y0016903D02*
X0244233Y0016903D01*
X0243032Y0016903D02*
X0243032Y0013300D01*
X0238148Y0013901D02*
X0238148Y0016903D01*
X0237199Y0040900D02*
X0234797Y0040900D01*
X0234197Y0041501D01*
X0234197Y0042702D01*
X0234797Y0043302D01*
X0234797Y0044583D02*
X0237199Y0044583D01*
X0237800Y0045184D01*
X0237800Y0046385D01*
X0237199Y0046985D01*
X0234797Y0046985D01*
X0234197Y0046385D01*
X0234197Y0045184D01*
X0234797Y0044583D01*
X0237199Y0043302D02*
X0237800Y0042702D01*
X0237800Y0041501D01*
X0237199Y0040900D01*
X0237800Y0048266D02*
X0234197Y0048266D01*
X0237800Y0050668D01*
X0234197Y0050668D01*
X0234197Y0051949D02*
X0237800Y0054351D01*
X0234197Y0054351D01*
X0234197Y0055633D02*
X0237800Y0055633D01*
X0237800Y0058035D01*
X0237199Y0059316D02*
X0234797Y0059316D01*
X0234197Y0059916D01*
X0234197Y0061117D01*
X0234797Y0061718D01*
X0234197Y0062999D02*
X0234197Y0065401D01*
X0234197Y0064200D02*
X0237800Y0064200D01*
X0237800Y0066682D02*
X0237800Y0067883D01*
X0237800Y0067283D02*
X0234197Y0067283D01*
X0234197Y0067883D02*
X0234197Y0066682D01*
X0234797Y0069137D02*
X0237199Y0069137D01*
X0237800Y0069738D01*
X0237800Y0070939D01*
X0237199Y0071539D01*
X0234797Y0071539D01*
X0234197Y0070939D01*
X0234197Y0069738D01*
X0234797Y0069137D01*
X0234197Y0072821D02*
X0237800Y0075223D01*
X0234197Y0075223D01*
X0234197Y0072821D02*
X0237800Y0072821D01*
X0237199Y0061718D02*
X0237800Y0061117D01*
X0237800Y0059916D01*
X0237199Y0059316D01*
X0235998Y0056834D02*
X0235998Y0055633D01*
X0234197Y0055633D02*
X0234197Y0058035D01*
X0234197Y0051949D02*
X0237800Y0051949D01*
X0259197Y0040002D02*
X0259197Y0038200D01*
X0262800Y0038200D01*
X0262800Y0040002D01*
X0262199Y0040602D01*
X0261599Y0040602D01*
X0260998Y0040002D01*
X0260998Y0038200D01*
X0260998Y0040002D02*
X0260398Y0040602D01*
X0259797Y0040602D01*
X0259197Y0040002D01*
X0259797Y0078200D02*
X0262199Y0078200D01*
X0262800Y0078801D01*
X0262800Y0080002D01*
X0262199Y0080602D01*
X0260998Y0080602D01*
X0260998Y0079401D01*
X0259797Y0078200D02*
X0259197Y0078801D01*
X0259197Y0080002D01*
X0259797Y0080602D01*
X0237900Y0091301D02*
X0237900Y0092502D01*
X0237299Y0093102D01*
X0237299Y0094383D02*
X0237900Y0094984D01*
X0237900Y0096185D01*
X0237299Y0096785D01*
X0234897Y0096785D01*
X0234297Y0096185D01*
X0234297Y0094984D01*
X0234897Y0094383D01*
X0237299Y0094383D01*
X0234897Y0093102D02*
X0234297Y0092502D01*
X0234297Y0091301D01*
X0234897Y0090700D01*
X0237299Y0090700D01*
X0237900Y0091301D01*
X0237900Y0098066D02*
X0234297Y0098066D01*
X0235498Y0099267D01*
X0234297Y0100468D01*
X0237900Y0100468D01*
X0237900Y0101749D02*
X0234297Y0101749D01*
X0235498Y0102950D01*
X0234297Y0104151D01*
X0237900Y0104151D01*
X0259197Y0118200D02*
X0259197Y0120002D01*
X0259797Y0120602D01*
X0260998Y0120602D01*
X0261599Y0120002D01*
X0261599Y0118200D01*
X0262800Y0118200D02*
X0259197Y0118200D01*
X0261599Y0119401D02*
X0262800Y0120602D01*
X0237900Y0131701D02*
X0237299Y0131100D01*
X0237900Y0131701D02*
X0237900Y0132902D01*
X0237299Y0133502D01*
X0236699Y0133502D01*
X0236098Y0132902D01*
X0236098Y0131701D01*
X0235498Y0131100D01*
X0234897Y0131100D01*
X0234297Y0131701D01*
X0234297Y0132902D01*
X0234897Y0133502D01*
X0234297Y0134783D02*
X0237900Y0134783D01*
X0237900Y0137185D01*
X0236098Y0135984D02*
X0236098Y0134783D01*
X0234297Y0134783D02*
X0234297Y0137185D01*
X0234297Y0138466D02*
X0234297Y0140868D01*
X0234297Y0139667D02*
X0237900Y0139667D01*
X0237299Y0142149D02*
X0234297Y0142149D01*
X0234297Y0144551D02*
X0237299Y0144551D01*
X0237900Y0143951D01*
X0237900Y0142750D01*
X0237299Y0142149D01*
X0236699Y0145833D02*
X0236699Y0147634D01*
X0236098Y0148235D01*
X0234897Y0148235D01*
X0234297Y0147634D01*
X0234297Y0145833D01*
X0237900Y0145833D01*
X0131165Y0227567D02*
X0130398Y0226800D01*
X0128863Y0226800D01*
X0128096Y0227567D01*
X0126561Y0227567D02*
X0125794Y0226800D01*
X0124259Y0226800D01*
X0123492Y0227567D01*
X0123492Y0230637D01*
X0124259Y0231404D01*
X0125794Y0231404D01*
X0126561Y0230637D01*
X0128096Y0230637D02*
X0128863Y0231404D01*
X0130398Y0231404D01*
X0131165Y0230637D01*
X0131165Y0229869D01*
X0130398Y0229102D01*
X0131165Y0228335D01*
X0131165Y0227567D01*
X0130398Y0229102D02*
X0129631Y0229102D01*
X0122919Y0234801D02*
X0122318Y0234200D01*
X0120517Y0234200D01*
X0120517Y0237803D01*
X0122318Y0237803D01*
X0122919Y0237203D01*
X0122919Y0236602D01*
X0122318Y0236002D01*
X0120517Y0236002D01*
X0119236Y0235401D02*
X0119236Y0234801D01*
X0118635Y0234200D01*
X0117434Y0234200D01*
X0116834Y0234801D01*
X0115553Y0234801D02*
X0115553Y0237803D01*
X0116834Y0237203D02*
X0116834Y0236602D01*
X0117434Y0236002D01*
X0118635Y0236002D01*
X0119236Y0235401D01*
X0119236Y0237203D02*
X0118635Y0237803D01*
X0117434Y0237803D01*
X0116834Y0237203D01*
X0115553Y0234801D02*
X0114952Y0234200D01*
X0113751Y0234200D01*
X0113151Y0234801D01*
X0113151Y0237803D01*
X0122318Y0236002D02*
X0122919Y0235401D01*
X0122919Y0234801D01*
X0103219Y0234200D02*
X0100817Y0234200D01*
X0100817Y0237803D01*
X0103219Y0237803D01*
X0102018Y0236002D02*
X0100817Y0236002D01*
X0099536Y0237803D02*
X0097134Y0237803D01*
X0097134Y0234200D01*
X0099536Y0234200D01*
X0098335Y0236002D02*
X0097134Y0236002D01*
X0095853Y0236602D02*
X0095252Y0236002D01*
X0093451Y0236002D01*
X0093451Y0237803D02*
X0093451Y0234200D01*
X0095252Y0234200D01*
X0095853Y0234801D01*
X0095853Y0235401D01*
X0095252Y0236002D01*
X0095853Y0236602D02*
X0095853Y0237203D01*
X0095252Y0237803D01*
X0093451Y0237803D01*
X0092169Y0237803D02*
X0089767Y0234200D01*
X0092169Y0234200D02*
X0089767Y0237803D01*
X0089867Y0230204D02*
X0089100Y0229437D01*
X0089100Y0226367D01*
X0089867Y0225600D01*
X0091402Y0225600D01*
X0092169Y0226367D01*
X0093704Y0225600D02*
X0096773Y0228669D01*
X0096773Y0229437D01*
X0096006Y0230204D01*
X0094471Y0230204D01*
X0093704Y0229437D01*
X0092169Y0229437D02*
X0091402Y0230204D01*
X0089867Y0230204D01*
X0093704Y0225600D02*
X0096773Y0225600D01*
X0103600Y0071803D02*
X0105402Y0071803D01*
X0106002Y0071203D01*
X0106002Y0070002D01*
X0105402Y0069401D01*
X0103600Y0069401D01*
X0103600Y0068200D02*
X0103600Y0071803D01*
X0107283Y0071803D02*
X0107283Y0068200D01*
X0108484Y0069401D01*
X0109685Y0068200D01*
X0109685Y0071803D01*
X0110966Y0071803D02*
X0112768Y0071803D01*
X0113368Y0071203D01*
X0113368Y0070002D01*
X0112768Y0069401D01*
X0110966Y0069401D01*
X0110966Y0068200D02*
X0110966Y0071803D01*
X0112167Y0069401D02*
X0113368Y0068200D01*
X0118333Y0068200D02*
X0119534Y0068200D01*
X0118933Y0068200D02*
X0118933Y0071803D01*
X0118333Y0071803D02*
X0119534Y0071803D01*
X0120788Y0071803D02*
X0123190Y0068200D01*
X0123190Y0071803D01*
X0120788Y0071803D02*
X0120788Y0068200D01*
D13*
X0174648Y0096205D02*
X0176583Y0096205D01*
X0177550Y0097172D01*
X0176583Y0098140D01*
X0174648Y0098140D01*
X0174648Y0099151D02*
X0174648Y0100602D01*
X0175131Y0101086D01*
X0176099Y0101086D01*
X0176583Y0100602D01*
X0176583Y0099151D01*
X0177550Y0099151D02*
X0174648Y0099151D01*
X0176583Y0100119D02*
X0177550Y0101086D01*
X0177550Y0102098D02*
X0174648Y0102098D01*
X0174648Y0104033D01*
X0175131Y0105044D02*
X0177066Y0105044D01*
X0177550Y0105528D01*
X0177550Y0106495D01*
X0177066Y0106979D01*
X0176099Y0106979D01*
X0176099Y0106012D01*
X0175131Y0106979D02*
X0174648Y0106495D01*
X0174648Y0105528D01*
X0175131Y0105044D01*
X0176099Y0103065D02*
X0176099Y0102098D01*
X0177550Y0102098D02*
X0177550Y0104033D01*
X0178034Y0107991D02*
X0178034Y0109926D01*
X0177066Y0110937D02*
X0177550Y0111421D01*
X0177550Y0112388D01*
X0177066Y0112872D01*
X0176583Y0112872D01*
X0176099Y0112388D01*
X0176099Y0111905D01*
X0176099Y0112388D02*
X0175615Y0112872D01*
X0175131Y0112872D01*
X0174648Y0112388D01*
X0174648Y0111421D01*
X0175131Y0110937D01*
X0177066Y0113884D02*
X0177066Y0114367D01*
X0177550Y0114367D01*
X0177550Y0113884D01*
X0177066Y0113884D01*
X0177066Y0115357D02*
X0177550Y0115841D01*
X0177550Y0116808D01*
X0177066Y0117292D01*
X0176583Y0117292D01*
X0176099Y0116808D01*
X0176099Y0116324D01*
X0176099Y0116808D02*
X0175615Y0117292D01*
X0175131Y0117292D01*
X0174648Y0116808D01*
X0174648Y0115841D01*
X0175131Y0115357D01*
X0174648Y0118303D02*
X0176583Y0118303D01*
X0177550Y0119271D01*
X0176583Y0120238D01*
X0174648Y0120238D01*
X0174848Y0128224D02*
X0176783Y0128224D01*
X0177750Y0129192D01*
X0176783Y0130159D01*
X0174848Y0130159D01*
X0174848Y0131171D02*
X0174848Y0132622D01*
X0175331Y0133106D01*
X0176299Y0133106D01*
X0176783Y0132622D01*
X0176783Y0131171D01*
X0177750Y0131171D02*
X0174848Y0131171D01*
X0176783Y0132138D02*
X0177750Y0133106D01*
X0177750Y0134117D02*
X0177750Y0136052D01*
X0177266Y0137064D02*
X0177750Y0137548D01*
X0177750Y0138515D01*
X0177266Y0138999D01*
X0176299Y0138999D01*
X0176299Y0138031D01*
X0177266Y0137064D02*
X0175331Y0137064D01*
X0174848Y0137548D01*
X0174848Y0138515D01*
X0175331Y0138999D01*
X0174848Y0136052D02*
X0174848Y0134117D01*
X0177750Y0134117D01*
X0176299Y0134117D02*
X0176299Y0135085D01*
X0178234Y0140010D02*
X0178234Y0141945D01*
X0177266Y0142957D02*
X0177750Y0143441D01*
X0177750Y0144408D01*
X0177266Y0144892D01*
X0176299Y0144892D01*
X0175815Y0144408D01*
X0175815Y0143924D01*
X0176299Y0142957D01*
X0174848Y0142957D01*
X0174848Y0144892D01*
X0174848Y0145903D02*
X0176783Y0145903D01*
X0177750Y0146871D01*
X0176783Y0147838D01*
X0174848Y0147838D01*
X0131790Y0200550D02*
X0131790Y0203452D01*
X0133725Y0203452D01*
X0132757Y0202001D02*
X0131790Y0202001D01*
X0130778Y0202485D02*
X0130778Y0200550D01*
X0129327Y0200550D01*
X0128843Y0201034D01*
X0128843Y0202485D01*
X0127831Y0202969D02*
X0125897Y0201034D01*
X0126380Y0200550D01*
X0127348Y0200550D01*
X0127831Y0201034D01*
X0127831Y0202969D01*
X0127348Y0203452D01*
X0126380Y0203452D01*
X0125897Y0202969D01*
X0125897Y0201034D01*
X0124885Y0200550D02*
X0122950Y0200550D01*
X0123917Y0200550D02*
X0123917Y0203452D01*
X0122950Y0202485D01*
X0102198Y0203452D02*
X0100263Y0203452D01*
X0100263Y0200550D01*
X0099251Y0200550D02*
X0099251Y0202485D01*
X0100263Y0202001D02*
X0101230Y0202001D01*
X0099251Y0200550D02*
X0097800Y0200550D01*
X0097316Y0201034D01*
X0097316Y0202485D01*
X0096305Y0200550D02*
X0094370Y0200550D01*
X0095337Y0200550D02*
X0095337Y0203452D01*
X0094370Y0202485D01*
X0093380Y0201034D02*
X0093380Y0200550D01*
X0092897Y0200550D01*
X0092897Y0201034D01*
X0093380Y0201034D01*
X0091885Y0201034D02*
X0091885Y0202969D01*
X0089950Y0201034D01*
X0090434Y0200550D01*
X0091401Y0200550D01*
X0091885Y0201034D01*
X0091885Y0202969D02*
X0091401Y0203452D01*
X0090434Y0203452D01*
X0089950Y0202969D01*
X0089950Y0201034D01*
X0146648Y0243469D02*
X0149550Y0243469D01*
X0149550Y0242502D02*
X0149550Y0244437D01*
X0149066Y0245448D02*
X0147131Y0245448D01*
X0146648Y0245932D01*
X0146648Y0246899D01*
X0147131Y0247383D01*
X0149066Y0245448D01*
X0149550Y0245932D01*
X0149550Y0246899D01*
X0149066Y0247383D01*
X0147131Y0247383D01*
X0146648Y0248395D02*
X0149550Y0248395D01*
X0148583Y0248395D02*
X0149550Y0249846D01*
X0148583Y0248395D02*
X0147615Y0249846D01*
X0146648Y0243469D02*
X0147615Y0242502D01*
X0161648Y0243469D02*
X0164550Y0243469D01*
X0164550Y0242502D02*
X0164550Y0244437D01*
X0164066Y0245448D02*
X0162131Y0245448D01*
X0161648Y0245932D01*
X0161648Y0246899D01*
X0162131Y0247383D01*
X0164066Y0245448D01*
X0164550Y0245932D01*
X0164550Y0246899D01*
X0164066Y0247383D01*
X0162131Y0247383D01*
X0161648Y0248395D02*
X0164550Y0248395D01*
X0163583Y0248395D02*
X0162615Y0249846D01*
X0163583Y0248395D02*
X0164550Y0249846D01*
X0161648Y0243469D02*
X0162615Y0242502D01*
X0192734Y0059552D02*
X0193701Y0059552D01*
X0194185Y0059069D01*
X0192250Y0057134D01*
X0192734Y0056650D01*
X0193701Y0056650D01*
X0194185Y0057134D01*
X0194185Y0059069D01*
X0192734Y0059552D02*
X0192250Y0059069D01*
X0192250Y0057134D01*
X0195197Y0057134D02*
X0195680Y0057134D01*
X0195680Y0056650D01*
X0195197Y0056650D01*
X0195197Y0057134D01*
X0196670Y0057134D02*
X0197154Y0056650D01*
X0198121Y0056650D01*
X0198605Y0057134D01*
X0198605Y0057617D01*
X0198121Y0058101D01*
X0197637Y0058101D01*
X0198121Y0058101D02*
X0198605Y0058585D01*
X0198605Y0059069D01*
X0198121Y0059552D01*
X0197154Y0059552D01*
X0196670Y0059069D01*
X0199616Y0059069D02*
X0200100Y0059552D01*
X0201068Y0059552D01*
X0201551Y0059069D01*
X0201551Y0058585D01*
X0201068Y0058101D01*
X0201551Y0057617D01*
X0201551Y0057134D01*
X0201068Y0056650D01*
X0200100Y0056650D01*
X0199616Y0057134D01*
X0200584Y0058101D02*
X0201068Y0058101D01*
X0202563Y0058585D02*
X0202563Y0057134D01*
X0203047Y0056650D01*
X0204498Y0056650D01*
X0204498Y0058585D01*
X0205509Y0058101D02*
X0206477Y0058101D01*
X0205509Y0056650D02*
X0205509Y0059552D01*
X0207444Y0059552D01*
D14*
X0200500Y0043000D02*
X0195500Y0043000D01*
X0211386Y0036858D02*
X0234614Y0036858D01*
X0234614Y0019142D01*
X0226937Y0019142D01*
X0226937Y0021110D01*
X0219063Y0021110D01*
X0219063Y0019142D01*
X0211386Y0019142D01*
X0211386Y0036858D01*
X0186563Y0015106D02*
X0186563Y0060894D01*
X0169437Y0060894D01*
X0169437Y0015106D01*
X0186563Y0015106D01*
X0161563Y0015106D02*
X0161563Y0060894D01*
X0144437Y0060894D01*
X0144437Y0015106D01*
X0161563Y0015106D01*
X0130717Y0022173D02*
X0130717Y0045402D01*
X0130717Y0054850D02*
X0130717Y0065480D01*
X0116543Y0065480D01*
X0109457Y0065480D02*
X0095283Y0065480D01*
X0095283Y0022173D01*
X0130717Y0022173D01*
X0083000Y0020500D02*
X0083000Y0015500D01*
X0080500Y0013000D01*
X0075500Y0013000D01*
X0073000Y0015500D01*
X0073000Y0020500D01*
X0070500Y0023000D01*
X0073000Y0025500D01*
X0073000Y0030500D01*
X0070500Y0033000D01*
X0073000Y0035500D01*
X0073000Y0040500D01*
X0070500Y0043000D01*
X0065500Y0043000D01*
X0063000Y0040500D01*
X0063000Y0035500D01*
X0060500Y0033000D01*
X0063000Y0030500D01*
X0063000Y0025500D01*
X0060500Y0023000D01*
X0063000Y0020500D01*
X0063000Y0015500D01*
X0060500Y0013000D01*
X0055500Y0013000D01*
X0053000Y0015500D01*
X0053000Y0020500D01*
X0050500Y0023000D01*
X0053000Y0025500D01*
X0053000Y0030500D01*
X0050500Y0033000D01*
X0053000Y0035500D01*
X0053000Y0040500D01*
X0050500Y0043000D01*
X0045500Y0043000D01*
X0043000Y0040500D01*
X0043000Y0035500D01*
X0045500Y0033000D01*
X0043000Y0030500D01*
X0043000Y0025500D01*
X0045500Y0023000D01*
X0043000Y0020500D01*
X0043000Y0015500D01*
X0045500Y0013000D01*
X0050500Y0013000D01*
X0053000Y0015500D01*
X0053000Y0020500D01*
X0055500Y0023000D01*
X0053000Y0025500D01*
X0053000Y0030500D01*
X0055500Y0033000D01*
X0053000Y0035500D01*
X0053000Y0040500D01*
X0055500Y0043000D01*
X0060500Y0043000D01*
X0063000Y0040500D01*
X0063000Y0035500D01*
X0065500Y0033000D01*
X0063000Y0030500D01*
X0063000Y0025500D01*
X0065500Y0023000D01*
X0063000Y0020500D01*
X0063000Y0015500D01*
X0065500Y0013000D01*
X0070500Y0013000D01*
X0073000Y0015500D01*
X0073000Y0020500D01*
X0075500Y0023000D01*
X0073000Y0025500D01*
X0073000Y0030500D01*
X0075500Y0033000D01*
X0073000Y0035500D01*
X0073000Y0040500D01*
X0075500Y0043000D01*
X0080500Y0043000D01*
X0083000Y0040500D01*
X0083000Y0035500D01*
X0080500Y0033000D01*
X0083000Y0030500D01*
X0083000Y0025500D01*
X0080500Y0023000D01*
X0083000Y0020500D01*
X0105500Y0085500D02*
X0105500Y0195500D01*
X0165500Y0195500D01*
X0165500Y0085500D01*
X0105500Y0085500D01*
X0105500Y0088000D02*
X0105500Y0093000D01*
X0108000Y0095500D01*
X0105500Y0098000D01*
X0105500Y0103000D01*
X0108000Y0105500D01*
X0105500Y0108000D01*
X0105500Y0113000D01*
X0108000Y0115500D01*
X0105500Y0118000D01*
X0105500Y0123000D01*
X0108000Y0125500D01*
X0105500Y0128000D01*
X0105500Y0133000D01*
X0108000Y0135500D01*
X0105500Y0138000D01*
X0105500Y0143000D01*
X0108000Y0145500D01*
X0105500Y0148000D01*
X0105500Y0153000D01*
X0108000Y0155500D01*
X0105500Y0158000D01*
X0105500Y0163000D01*
X0108000Y0165500D01*
X0105500Y0168000D01*
X0105500Y0173000D01*
X0108000Y0175500D01*
X0105500Y0178000D01*
X0105500Y0183000D01*
X0108000Y0185500D01*
X0105500Y0188000D01*
X0105500Y0193000D01*
X0108000Y0195500D01*
X0113000Y0195500D01*
X0115500Y0193000D01*
X0115500Y0188000D01*
X0113000Y0185500D01*
X0115500Y0183000D01*
X0115500Y0178000D01*
X0113000Y0175500D01*
X0115500Y0173000D01*
X0115500Y0168000D01*
X0113000Y0165500D01*
X0115500Y0163000D01*
X0115500Y0158000D01*
X0113000Y0155500D01*
X0115500Y0153000D01*
X0115500Y0148000D01*
X0113000Y0145500D01*
X0115500Y0143000D01*
X0115500Y0138000D01*
X0113000Y0135500D01*
X0115500Y0133000D01*
X0115500Y0128000D01*
X0113000Y0125500D01*
X0115500Y0123000D01*
X0115500Y0118000D01*
X0113000Y0115500D01*
X0115500Y0113000D01*
X0115500Y0108000D01*
X0113000Y0105500D01*
X0115500Y0103000D01*
X0115500Y0098000D01*
X0113000Y0095500D01*
X0115500Y0093000D01*
X0115500Y0088000D01*
X0113000Y0085500D01*
X0108000Y0085500D01*
X0105500Y0088000D01*
X0078000Y0103000D02*
X0008000Y0103000D01*
X0008000Y0243000D01*
X0038000Y0243000D01*
X0038000Y0238000D01*
X0048000Y0238000D01*
X0048000Y0243000D01*
X0078000Y0243000D01*
X0078000Y0103000D01*
X0122300Y0208400D02*
X0122300Y0212400D01*
X0117957Y0215400D02*
X0117960Y0215642D01*
X0117969Y0215883D01*
X0117984Y0216124D01*
X0118004Y0216365D01*
X0118031Y0216605D01*
X0118064Y0216844D01*
X0118102Y0217083D01*
X0118146Y0217320D01*
X0118196Y0217557D01*
X0118252Y0217792D01*
X0118314Y0218025D01*
X0118381Y0218257D01*
X0118454Y0218488D01*
X0118532Y0218716D01*
X0118617Y0218942D01*
X0118706Y0219167D01*
X0118801Y0219389D01*
X0118902Y0219608D01*
X0119008Y0219826D01*
X0119119Y0220040D01*
X0119236Y0220252D01*
X0119357Y0220460D01*
X0119484Y0220666D01*
X0119616Y0220868D01*
X0119753Y0221068D01*
X0119894Y0221263D01*
X0120040Y0221456D01*
X0120191Y0221644D01*
X0120347Y0221829D01*
X0120507Y0222010D01*
X0120671Y0222187D01*
X0120840Y0222360D01*
X0121013Y0222529D01*
X0121190Y0222693D01*
X0121371Y0222853D01*
X0121556Y0223009D01*
X0121744Y0223160D01*
X0121937Y0223306D01*
X0122132Y0223447D01*
X0122332Y0223584D01*
X0122534Y0223716D01*
X0122740Y0223843D01*
X0122948Y0223964D01*
X0123160Y0224081D01*
X0123374Y0224192D01*
X0123592Y0224298D01*
X0123811Y0224399D01*
X0124033Y0224494D01*
X0124258Y0224583D01*
X0124484Y0224668D01*
X0124712Y0224746D01*
X0124943Y0224819D01*
X0125175Y0224886D01*
X0125408Y0224948D01*
X0125643Y0225004D01*
X0125880Y0225054D01*
X0126117Y0225098D01*
X0126356Y0225136D01*
X0126595Y0225169D01*
X0126835Y0225196D01*
X0127076Y0225216D01*
X0127317Y0225231D01*
X0127558Y0225240D01*
X0127800Y0225243D01*
X0128042Y0225240D01*
X0128283Y0225231D01*
X0128524Y0225216D01*
X0128765Y0225196D01*
X0129005Y0225169D01*
X0129244Y0225136D01*
X0129483Y0225098D01*
X0129720Y0225054D01*
X0129957Y0225004D01*
X0130192Y0224948D01*
X0130425Y0224886D01*
X0130657Y0224819D01*
X0130888Y0224746D01*
X0131116Y0224668D01*
X0131342Y0224583D01*
X0131567Y0224494D01*
X0131789Y0224399D01*
X0132008Y0224298D01*
X0132226Y0224192D01*
X0132440Y0224081D01*
X0132652Y0223964D01*
X0132860Y0223843D01*
X0133066Y0223716D01*
X0133268Y0223584D01*
X0133468Y0223447D01*
X0133663Y0223306D01*
X0133856Y0223160D01*
X0134044Y0223009D01*
X0134229Y0222853D01*
X0134410Y0222693D01*
X0134587Y0222529D01*
X0134760Y0222360D01*
X0134929Y0222187D01*
X0135093Y0222010D01*
X0135253Y0221829D01*
X0135409Y0221644D01*
X0135560Y0221456D01*
X0135706Y0221263D01*
X0135847Y0221068D01*
X0135984Y0220868D01*
X0136116Y0220666D01*
X0136243Y0220460D01*
X0136364Y0220252D01*
X0136481Y0220040D01*
X0136592Y0219826D01*
X0136698Y0219608D01*
X0136799Y0219389D01*
X0136894Y0219167D01*
X0136983Y0218942D01*
X0137068Y0218716D01*
X0137146Y0218488D01*
X0137219Y0218257D01*
X0137286Y0218025D01*
X0137348Y0217792D01*
X0137404Y0217557D01*
X0137454Y0217320D01*
X0137498Y0217083D01*
X0137536Y0216844D01*
X0137569Y0216605D01*
X0137596Y0216365D01*
X0137616Y0216124D01*
X0137631Y0215883D01*
X0137640Y0215642D01*
X0137643Y0215400D01*
X0137640Y0215158D01*
X0137631Y0214917D01*
X0137616Y0214676D01*
X0137596Y0214435D01*
X0137569Y0214195D01*
X0137536Y0213956D01*
X0137498Y0213717D01*
X0137454Y0213480D01*
X0137404Y0213243D01*
X0137348Y0213008D01*
X0137286Y0212775D01*
X0137219Y0212543D01*
X0137146Y0212312D01*
X0137068Y0212084D01*
X0136983Y0211858D01*
X0136894Y0211633D01*
X0136799Y0211411D01*
X0136698Y0211192D01*
X0136592Y0210974D01*
X0136481Y0210760D01*
X0136364Y0210548D01*
X0136243Y0210340D01*
X0136116Y0210134D01*
X0135984Y0209932D01*
X0135847Y0209732D01*
X0135706Y0209537D01*
X0135560Y0209344D01*
X0135409Y0209156D01*
X0135253Y0208971D01*
X0135093Y0208790D01*
X0134929Y0208613D01*
X0134760Y0208440D01*
X0134587Y0208271D01*
X0134410Y0208107D01*
X0134229Y0207947D01*
X0134044Y0207791D01*
X0133856Y0207640D01*
X0133663Y0207494D01*
X0133468Y0207353D01*
X0133268Y0207216D01*
X0133066Y0207084D01*
X0132860Y0206957D01*
X0132652Y0206836D01*
X0132440Y0206719D01*
X0132226Y0206608D01*
X0132008Y0206502D01*
X0131789Y0206401D01*
X0131567Y0206306D01*
X0131342Y0206217D01*
X0131116Y0206132D01*
X0130888Y0206054D01*
X0130657Y0205981D01*
X0130425Y0205914D01*
X0130192Y0205852D01*
X0129957Y0205796D01*
X0129720Y0205746D01*
X0129483Y0205702D01*
X0129244Y0205664D01*
X0129005Y0205631D01*
X0128765Y0205604D01*
X0128524Y0205584D01*
X0128283Y0205569D01*
X0128042Y0205560D01*
X0127800Y0205557D01*
X0127558Y0205560D01*
X0127317Y0205569D01*
X0127076Y0205584D01*
X0126835Y0205604D01*
X0126595Y0205631D01*
X0126356Y0205664D01*
X0126117Y0205702D01*
X0125880Y0205746D01*
X0125643Y0205796D01*
X0125408Y0205852D01*
X0125175Y0205914D01*
X0124943Y0205981D01*
X0124712Y0206054D01*
X0124484Y0206132D01*
X0124258Y0206217D01*
X0124033Y0206306D01*
X0123811Y0206401D01*
X0123592Y0206502D01*
X0123374Y0206608D01*
X0123160Y0206719D01*
X0122948Y0206836D01*
X0122740Y0206957D01*
X0122534Y0207084D01*
X0122332Y0207216D01*
X0122132Y0207353D01*
X0121937Y0207494D01*
X0121744Y0207640D01*
X0121556Y0207791D01*
X0121371Y0207947D01*
X0121190Y0208107D01*
X0121013Y0208271D01*
X0120840Y0208440D01*
X0120671Y0208613D01*
X0120507Y0208790D01*
X0120347Y0208971D01*
X0120191Y0209156D01*
X0120040Y0209344D01*
X0119894Y0209537D01*
X0119753Y0209732D01*
X0119616Y0209932D01*
X0119484Y0210134D01*
X0119357Y0210340D01*
X0119236Y0210548D01*
X0119119Y0210760D01*
X0119008Y0210974D01*
X0118902Y0211192D01*
X0118801Y0211411D01*
X0118706Y0211633D01*
X0118617Y0211858D01*
X0118532Y0212084D01*
X0118454Y0212312D01*
X0118381Y0212543D01*
X0118314Y0212775D01*
X0118252Y0213008D01*
X0118196Y0213243D01*
X0118146Y0213480D01*
X0118102Y0213717D01*
X0118064Y0213956D01*
X0118031Y0214195D01*
X0118004Y0214435D01*
X0117984Y0214676D01*
X0117969Y0214917D01*
X0117960Y0215158D01*
X0117957Y0215400D01*
X0095300Y0215400D02*
X0090300Y0215400D01*
X0090500Y0248000D02*
X0095500Y0248000D01*
X0098000Y0250500D01*
X0100500Y0248000D01*
X0105500Y0248000D01*
X0108000Y0250500D01*
X0110500Y0248000D01*
X0115500Y0248000D01*
X0118000Y0250500D01*
X0120500Y0248000D01*
X0125500Y0248000D01*
X0128000Y0250500D01*
X0128000Y0255500D01*
X0125500Y0258000D01*
X0120500Y0258000D01*
X0118000Y0260500D01*
X0115500Y0258000D01*
X0110500Y0258000D01*
X0108000Y0260500D01*
X0105500Y0258000D01*
X0100500Y0258000D01*
X0098000Y0260500D01*
X0095500Y0258000D01*
X0090500Y0258000D01*
X0088000Y0260500D01*
X0088000Y0265500D01*
X0090500Y0268000D01*
X0095500Y0268000D01*
X0098000Y0265500D01*
X0100500Y0268000D01*
X0105500Y0268000D01*
X0108000Y0265500D01*
X0110500Y0268000D01*
X0115500Y0268000D01*
X0118000Y0265500D01*
X0120500Y0268000D01*
X0125500Y0268000D01*
X0128000Y0265500D01*
X0128000Y0260500D01*
X0125500Y0258000D01*
X0120500Y0258000D01*
X0118000Y0255500D01*
X0115500Y0258000D01*
X0110500Y0258000D01*
X0108000Y0255500D01*
X0105500Y0258000D01*
X0100500Y0258000D01*
X0098000Y0255500D01*
X0095500Y0258000D01*
X0090500Y0258000D01*
X0088000Y0255500D01*
X0088000Y0250500D01*
X0090500Y0248000D01*
X0143276Y0254102D02*
X0143276Y0229298D01*
X0152724Y0229298D01*
X0152724Y0254102D01*
X0143276Y0254102D01*
X0158276Y0254102D02*
X0158276Y0229298D01*
X0167724Y0229298D01*
X0167724Y0254102D01*
X0158276Y0254102D01*
X0263000Y0145500D02*
X0263000Y0130500D01*
X0263000Y0105500D02*
X0263000Y0090500D01*
X0263000Y0065500D02*
X0263000Y0050500D01*
D15*
X0243000Y0058000D02*
X0243003Y0058245D01*
X0243012Y0058491D01*
X0243027Y0058736D01*
X0243048Y0058980D01*
X0243075Y0059224D01*
X0243108Y0059467D01*
X0243147Y0059710D01*
X0243192Y0059951D01*
X0243243Y0060191D01*
X0243300Y0060430D01*
X0243362Y0060667D01*
X0243431Y0060903D01*
X0243505Y0061137D01*
X0243585Y0061369D01*
X0243670Y0061599D01*
X0243761Y0061827D01*
X0243858Y0062052D01*
X0243960Y0062276D01*
X0244068Y0062496D01*
X0244181Y0062714D01*
X0244299Y0062929D01*
X0244423Y0063141D01*
X0244551Y0063350D01*
X0244685Y0063556D01*
X0244824Y0063758D01*
X0244968Y0063957D01*
X0245117Y0064152D01*
X0245270Y0064344D01*
X0245428Y0064532D01*
X0245590Y0064716D01*
X0245758Y0064895D01*
X0245929Y0065071D01*
X0246105Y0065242D01*
X0246284Y0065410D01*
X0246468Y0065572D01*
X0246656Y0065730D01*
X0246848Y0065883D01*
X0247043Y0066032D01*
X0247242Y0066176D01*
X0247444Y0066315D01*
X0247650Y0066449D01*
X0247859Y0066577D01*
X0248071Y0066701D01*
X0248286Y0066819D01*
X0248504Y0066932D01*
X0248724Y0067040D01*
X0248948Y0067142D01*
X0249173Y0067239D01*
X0249401Y0067330D01*
X0249631Y0067415D01*
X0249863Y0067495D01*
X0250097Y0067569D01*
X0250333Y0067638D01*
X0250570Y0067700D01*
X0250809Y0067757D01*
X0251049Y0067808D01*
X0251290Y0067853D01*
X0251533Y0067892D01*
X0251776Y0067925D01*
X0252020Y0067952D01*
X0252264Y0067973D01*
X0252509Y0067988D01*
X0252755Y0067997D01*
X0253000Y0068000D01*
X0253245Y0067997D01*
X0253491Y0067988D01*
X0253736Y0067973D01*
X0253980Y0067952D01*
X0254224Y0067925D01*
X0254467Y0067892D01*
X0254710Y0067853D01*
X0254951Y0067808D01*
X0255191Y0067757D01*
X0255430Y0067700D01*
X0255667Y0067638D01*
X0255903Y0067569D01*
X0256137Y0067495D01*
X0256369Y0067415D01*
X0256599Y0067330D01*
X0256827Y0067239D01*
X0257052Y0067142D01*
X0257276Y0067040D01*
X0257496Y0066932D01*
X0257714Y0066819D01*
X0257929Y0066701D01*
X0258141Y0066577D01*
X0258350Y0066449D01*
X0258556Y0066315D01*
X0258758Y0066176D01*
X0258957Y0066032D01*
X0259152Y0065883D01*
X0259344Y0065730D01*
X0259532Y0065572D01*
X0259716Y0065410D01*
X0259895Y0065242D01*
X0260071Y0065071D01*
X0260242Y0064895D01*
X0260410Y0064716D01*
X0260572Y0064532D01*
X0260730Y0064344D01*
X0260883Y0064152D01*
X0261032Y0063957D01*
X0261176Y0063758D01*
X0261315Y0063556D01*
X0261449Y0063350D01*
X0261577Y0063141D01*
X0261701Y0062929D01*
X0261819Y0062714D01*
X0261932Y0062496D01*
X0262040Y0062276D01*
X0262142Y0062052D01*
X0262239Y0061827D01*
X0262330Y0061599D01*
X0262415Y0061369D01*
X0262495Y0061137D01*
X0262569Y0060903D01*
X0262638Y0060667D01*
X0262700Y0060430D01*
X0262757Y0060191D01*
X0262808Y0059951D01*
X0262853Y0059710D01*
X0262892Y0059467D01*
X0262925Y0059224D01*
X0262952Y0058980D01*
X0262973Y0058736D01*
X0262988Y0058491D01*
X0262997Y0058245D01*
X0263000Y0058000D01*
X0262997Y0057755D01*
X0262988Y0057509D01*
X0262973Y0057264D01*
X0262952Y0057020D01*
X0262925Y0056776D01*
X0262892Y0056533D01*
X0262853Y0056290D01*
X0262808Y0056049D01*
X0262757Y0055809D01*
X0262700Y0055570D01*
X0262638Y0055333D01*
X0262569Y0055097D01*
X0262495Y0054863D01*
X0262415Y0054631D01*
X0262330Y0054401D01*
X0262239Y0054173D01*
X0262142Y0053948D01*
X0262040Y0053724D01*
X0261932Y0053504D01*
X0261819Y0053286D01*
X0261701Y0053071D01*
X0261577Y0052859D01*
X0261449Y0052650D01*
X0261315Y0052444D01*
X0261176Y0052242D01*
X0261032Y0052043D01*
X0260883Y0051848D01*
X0260730Y0051656D01*
X0260572Y0051468D01*
X0260410Y0051284D01*
X0260242Y0051105D01*
X0260071Y0050929D01*
X0259895Y0050758D01*
X0259716Y0050590D01*
X0259532Y0050428D01*
X0259344Y0050270D01*
X0259152Y0050117D01*
X0258957Y0049968D01*
X0258758Y0049824D01*
X0258556Y0049685D01*
X0258350Y0049551D01*
X0258141Y0049423D01*
X0257929Y0049299D01*
X0257714Y0049181D01*
X0257496Y0049068D01*
X0257276Y0048960D01*
X0257052Y0048858D01*
X0256827Y0048761D01*
X0256599Y0048670D01*
X0256369Y0048585D01*
X0256137Y0048505D01*
X0255903Y0048431D01*
X0255667Y0048362D01*
X0255430Y0048300D01*
X0255191Y0048243D01*
X0254951Y0048192D01*
X0254710Y0048147D01*
X0254467Y0048108D01*
X0254224Y0048075D01*
X0253980Y0048048D01*
X0253736Y0048027D01*
X0253491Y0048012D01*
X0253245Y0048003D01*
X0253000Y0048000D01*
X0252755Y0048003D01*
X0252509Y0048012D01*
X0252264Y0048027D01*
X0252020Y0048048D01*
X0251776Y0048075D01*
X0251533Y0048108D01*
X0251290Y0048147D01*
X0251049Y0048192D01*
X0250809Y0048243D01*
X0250570Y0048300D01*
X0250333Y0048362D01*
X0250097Y0048431D01*
X0249863Y0048505D01*
X0249631Y0048585D01*
X0249401Y0048670D01*
X0249173Y0048761D01*
X0248948Y0048858D01*
X0248724Y0048960D01*
X0248504Y0049068D01*
X0248286Y0049181D01*
X0248071Y0049299D01*
X0247859Y0049423D01*
X0247650Y0049551D01*
X0247444Y0049685D01*
X0247242Y0049824D01*
X0247043Y0049968D01*
X0246848Y0050117D01*
X0246656Y0050270D01*
X0246468Y0050428D01*
X0246284Y0050590D01*
X0246105Y0050758D01*
X0245929Y0050929D01*
X0245758Y0051105D01*
X0245590Y0051284D01*
X0245428Y0051468D01*
X0245270Y0051656D01*
X0245117Y0051848D01*
X0244968Y0052043D01*
X0244824Y0052242D01*
X0244685Y0052444D01*
X0244551Y0052650D01*
X0244423Y0052859D01*
X0244299Y0053071D01*
X0244181Y0053286D01*
X0244068Y0053504D01*
X0243960Y0053724D01*
X0243858Y0053948D01*
X0243761Y0054173D01*
X0243670Y0054401D01*
X0243585Y0054631D01*
X0243505Y0054863D01*
X0243431Y0055097D01*
X0243362Y0055333D01*
X0243300Y0055570D01*
X0243243Y0055809D01*
X0243192Y0056049D01*
X0243147Y0056290D01*
X0243108Y0056533D01*
X0243075Y0056776D01*
X0243048Y0057020D01*
X0243027Y0057264D01*
X0243012Y0057509D01*
X0243003Y0057755D01*
X0243000Y0058000D01*
X0243000Y0098000D02*
X0243003Y0098245D01*
X0243012Y0098491D01*
X0243027Y0098736D01*
X0243048Y0098980D01*
X0243075Y0099224D01*
X0243108Y0099467D01*
X0243147Y0099710D01*
X0243192Y0099951D01*
X0243243Y0100191D01*
X0243300Y0100430D01*
X0243362Y0100667D01*
X0243431Y0100903D01*
X0243505Y0101137D01*
X0243585Y0101369D01*
X0243670Y0101599D01*
X0243761Y0101827D01*
X0243858Y0102052D01*
X0243960Y0102276D01*
X0244068Y0102496D01*
X0244181Y0102714D01*
X0244299Y0102929D01*
X0244423Y0103141D01*
X0244551Y0103350D01*
X0244685Y0103556D01*
X0244824Y0103758D01*
X0244968Y0103957D01*
X0245117Y0104152D01*
X0245270Y0104344D01*
X0245428Y0104532D01*
X0245590Y0104716D01*
X0245758Y0104895D01*
X0245929Y0105071D01*
X0246105Y0105242D01*
X0246284Y0105410D01*
X0246468Y0105572D01*
X0246656Y0105730D01*
X0246848Y0105883D01*
X0247043Y0106032D01*
X0247242Y0106176D01*
X0247444Y0106315D01*
X0247650Y0106449D01*
X0247859Y0106577D01*
X0248071Y0106701D01*
X0248286Y0106819D01*
X0248504Y0106932D01*
X0248724Y0107040D01*
X0248948Y0107142D01*
X0249173Y0107239D01*
X0249401Y0107330D01*
X0249631Y0107415D01*
X0249863Y0107495D01*
X0250097Y0107569D01*
X0250333Y0107638D01*
X0250570Y0107700D01*
X0250809Y0107757D01*
X0251049Y0107808D01*
X0251290Y0107853D01*
X0251533Y0107892D01*
X0251776Y0107925D01*
X0252020Y0107952D01*
X0252264Y0107973D01*
X0252509Y0107988D01*
X0252755Y0107997D01*
X0253000Y0108000D01*
X0253245Y0107997D01*
X0253491Y0107988D01*
X0253736Y0107973D01*
X0253980Y0107952D01*
X0254224Y0107925D01*
X0254467Y0107892D01*
X0254710Y0107853D01*
X0254951Y0107808D01*
X0255191Y0107757D01*
X0255430Y0107700D01*
X0255667Y0107638D01*
X0255903Y0107569D01*
X0256137Y0107495D01*
X0256369Y0107415D01*
X0256599Y0107330D01*
X0256827Y0107239D01*
X0257052Y0107142D01*
X0257276Y0107040D01*
X0257496Y0106932D01*
X0257714Y0106819D01*
X0257929Y0106701D01*
X0258141Y0106577D01*
X0258350Y0106449D01*
X0258556Y0106315D01*
X0258758Y0106176D01*
X0258957Y0106032D01*
X0259152Y0105883D01*
X0259344Y0105730D01*
X0259532Y0105572D01*
X0259716Y0105410D01*
X0259895Y0105242D01*
X0260071Y0105071D01*
X0260242Y0104895D01*
X0260410Y0104716D01*
X0260572Y0104532D01*
X0260730Y0104344D01*
X0260883Y0104152D01*
X0261032Y0103957D01*
X0261176Y0103758D01*
X0261315Y0103556D01*
X0261449Y0103350D01*
X0261577Y0103141D01*
X0261701Y0102929D01*
X0261819Y0102714D01*
X0261932Y0102496D01*
X0262040Y0102276D01*
X0262142Y0102052D01*
X0262239Y0101827D01*
X0262330Y0101599D01*
X0262415Y0101369D01*
X0262495Y0101137D01*
X0262569Y0100903D01*
X0262638Y0100667D01*
X0262700Y0100430D01*
X0262757Y0100191D01*
X0262808Y0099951D01*
X0262853Y0099710D01*
X0262892Y0099467D01*
X0262925Y0099224D01*
X0262952Y0098980D01*
X0262973Y0098736D01*
X0262988Y0098491D01*
X0262997Y0098245D01*
X0263000Y0098000D01*
X0262997Y0097755D01*
X0262988Y0097509D01*
X0262973Y0097264D01*
X0262952Y0097020D01*
X0262925Y0096776D01*
X0262892Y0096533D01*
X0262853Y0096290D01*
X0262808Y0096049D01*
X0262757Y0095809D01*
X0262700Y0095570D01*
X0262638Y0095333D01*
X0262569Y0095097D01*
X0262495Y0094863D01*
X0262415Y0094631D01*
X0262330Y0094401D01*
X0262239Y0094173D01*
X0262142Y0093948D01*
X0262040Y0093724D01*
X0261932Y0093504D01*
X0261819Y0093286D01*
X0261701Y0093071D01*
X0261577Y0092859D01*
X0261449Y0092650D01*
X0261315Y0092444D01*
X0261176Y0092242D01*
X0261032Y0092043D01*
X0260883Y0091848D01*
X0260730Y0091656D01*
X0260572Y0091468D01*
X0260410Y0091284D01*
X0260242Y0091105D01*
X0260071Y0090929D01*
X0259895Y0090758D01*
X0259716Y0090590D01*
X0259532Y0090428D01*
X0259344Y0090270D01*
X0259152Y0090117D01*
X0258957Y0089968D01*
X0258758Y0089824D01*
X0258556Y0089685D01*
X0258350Y0089551D01*
X0258141Y0089423D01*
X0257929Y0089299D01*
X0257714Y0089181D01*
X0257496Y0089068D01*
X0257276Y0088960D01*
X0257052Y0088858D01*
X0256827Y0088761D01*
X0256599Y0088670D01*
X0256369Y0088585D01*
X0256137Y0088505D01*
X0255903Y0088431D01*
X0255667Y0088362D01*
X0255430Y0088300D01*
X0255191Y0088243D01*
X0254951Y0088192D01*
X0254710Y0088147D01*
X0254467Y0088108D01*
X0254224Y0088075D01*
X0253980Y0088048D01*
X0253736Y0088027D01*
X0253491Y0088012D01*
X0253245Y0088003D01*
X0253000Y0088000D01*
X0252755Y0088003D01*
X0252509Y0088012D01*
X0252264Y0088027D01*
X0252020Y0088048D01*
X0251776Y0088075D01*
X0251533Y0088108D01*
X0251290Y0088147D01*
X0251049Y0088192D01*
X0250809Y0088243D01*
X0250570Y0088300D01*
X0250333Y0088362D01*
X0250097Y0088431D01*
X0249863Y0088505D01*
X0249631Y0088585D01*
X0249401Y0088670D01*
X0249173Y0088761D01*
X0248948Y0088858D01*
X0248724Y0088960D01*
X0248504Y0089068D01*
X0248286Y0089181D01*
X0248071Y0089299D01*
X0247859Y0089423D01*
X0247650Y0089551D01*
X0247444Y0089685D01*
X0247242Y0089824D01*
X0247043Y0089968D01*
X0246848Y0090117D01*
X0246656Y0090270D01*
X0246468Y0090428D01*
X0246284Y0090590D01*
X0246105Y0090758D01*
X0245929Y0090929D01*
X0245758Y0091105D01*
X0245590Y0091284D01*
X0245428Y0091468D01*
X0245270Y0091656D01*
X0245117Y0091848D01*
X0244968Y0092043D01*
X0244824Y0092242D01*
X0244685Y0092444D01*
X0244551Y0092650D01*
X0244423Y0092859D01*
X0244299Y0093071D01*
X0244181Y0093286D01*
X0244068Y0093504D01*
X0243960Y0093724D01*
X0243858Y0093948D01*
X0243761Y0094173D01*
X0243670Y0094401D01*
X0243585Y0094631D01*
X0243505Y0094863D01*
X0243431Y0095097D01*
X0243362Y0095333D01*
X0243300Y0095570D01*
X0243243Y0095809D01*
X0243192Y0096049D01*
X0243147Y0096290D01*
X0243108Y0096533D01*
X0243075Y0096776D01*
X0243048Y0097020D01*
X0243027Y0097264D01*
X0243012Y0097509D01*
X0243003Y0097755D01*
X0243000Y0098000D01*
X0243000Y0138000D02*
X0243003Y0138245D01*
X0243012Y0138491D01*
X0243027Y0138736D01*
X0243048Y0138980D01*
X0243075Y0139224D01*
X0243108Y0139467D01*
X0243147Y0139710D01*
X0243192Y0139951D01*
X0243243Y0140191D01*
X0243300Y0140430D01*
X0243362Y0140667D01*
X0243431Y0140903D01*
X0243505Y0141137D01*
X0243585Y0141369D01*
X0243670Y0141599D01*
X0243761Y0141827D01*
X0243858Y0142052D01*
X0243960Y0142276D01*
X0244068Y0142496D01*
X0244181Y0142714D01*
X0244299Y0142929D01*
X0244423Y0143141D01*
X0244551Y0143350D01*
X0244685Y0143556D01*
X0244824Y0143758D01*
X0244968Y0143957D01*
X0245117Y0144152D01*
X0245270Y0144344D01*
X0245428Y0144532D01*
X0245590Y0144716D01*
X0245758Y0144895D01*
X0245929Y0145071D01*
X0246105Y0145242D01*
X0246284Y0145410D01*
X0246468Y0145572D01*
X0246656Y0145730D01*
X0246848Y0145883D01*
X0247043Y0146032D01*
X0247242Y0146176D01*
X0247444Y0146315D01*
X0247650Y0146449D01*
X0247859Y0146577D01*
X0248071Y0146701D01*
X0248286Y0146819D01*
X0248504Y0146932D01*
X0248724Y0147040D01*
X0248948Y0147142D01*
X0249173Y0147239D01*
X0249401Y0147330D01*
X0249631Y0147415D01*
X0249863Y0147495D01*
X0250097Y0147569D01*
X0250333Y0147638D01*
X0250570Y0147700D01*
X0250809Y0147757D01*
X0251049Y0147808D01*
X0251290Y0147853D01*
X0251533Y0147892D01*
X0251776Y0147925D01*
X0252020Y0147952D01*
X0252264Y0147973D01*
X0252509Y0147988D01*
X0252755Y0147997D01*
X0253000Y0148000D01*
X0253245Y0147997D01*
X0253491Y0147988D01*
X0253736Y0147973D01*
X0253980Y0147952D01*
X0254224Y0147925D01*
X0254467Y0147892D01*
X0254710Y0147853D01*
X0254951Y0147808D01*
X0255191Y0147757D01*
X0255430Y0147700D01*
X0255667Y0147638D01*
X0255903Y0147569D01*
X0256137Y0147495D01*
X0256369Y0147415D01*
X0256599Y0147330D01*
X0256827Y0147239D01*
X0257052Y0147142D01*
X0257276Y0147040D01*
X0257496Y0146932D01*
X0257714Y0146819D01*
X0257929Y0146701D01*
X0258141Y0146577D01*
X0258350Y0146449D01*
X0258556Y0146315D01*
X0258758Y0146176D01*
X0258957Y0146032D01*
X0259152Y0145883D01*
X0259344Y0145730D01*
X0259532Y0145572D01*
X0259716Y0145410D01*
X0259895Y0145242D01*
X0260071Y0145071D01*
X0260242Y0144895D01*
X0260410Y0144716D01*
X0260572Y0144532D01*
X0260730Y0144344D01*
X0260883Y0144152D01*
X0261032Y0143957D01*
X0261176Y0143758D01*
X0261315Y0143556D01*
X0261449Y0143350D01*
X0261577Y0143141D01*
X0261701Y0142929D01*
X0261819Y0142714D01*
X0261932Y0142496D01*
X0262040Y0142276D01*
X0262142Y0142052D01*
X0262239Y0141827D01*
X0262330Y0141599D01*
X0262415Y0141369D01*
X0262495Y0141137D01*
X0262569Y0140903D01*
X0262638Y0140667D01*
X0262700Y0140430D01*
X0262757Y0140191D01*
X0262808Y0139951D01*
X0262853Y0139710D01*
X0262892Y0139467D01*
X0262925Y0139224D01*
X0262952Y0138980D01*
X0262973Y0138736D01*
X0262988Y0138491D01*
X0262997Y0138245D01*
X0263000Y0138000D01*
X0262997Y0137755D01*
X0262988Y0137509D01*
X0262973Y0137264D01*
X0262952Y0137020D01*
X0262925Y0136776D01*
X0262892Y0136533D01*
X0262853Y0136290D01*
X0262808Y0136049D01*
X0262757Y0135809D01*
X0262700Y0135570D01*
X0262638Y0135333D01*
X0262569Y0135097D01*
X0262495Y0134863D01*
X0262415Y0134631D01*
X0262330Y0134401D01*
X0262239Y0134173D01*
X0262142Y0133948D01*
X0262040Y0133724D01*
X0261932Y0133504D01*
X0261819Y0133286D01*
X0261701Y0133071D01*
X0261577Y0132859D01*
X0261449Y0132650D01*
X0261315Y0132444D01*
X0261176Y0132242D01*
X0261032Y0132043D01*
X0260883Y0131848D01*
X0260730Y0131656D01*
X0260572Y0131468D01*
X0260410Y0131284D01*
X0260242Y0131105D01*
X0260071Y0130929D01*
X0259895Y0130758D01*
X0259716Y0130590D01*
X0259532Y0130428D01*
X0259344Y0130270D01*
X0259152Y0130117D01*
X0258957Y0129968D01*
X0258758Y0129824D01*
X0258556Y0129685D01*
X0258350Y0129551D01*
X0258141Y0129423D01*
X0257929Y0129299D01*
X0257714Y0129181D01*
X0257496Y0129068D01*
X0257276Y0128960D01*
X0257052Y0128858D01*
X0256827Y0128761D01*
X0256599Y0128670D01*
X0256369Y0128585D01*
X0256137Y0128505D01*
X0255903Y0128431D01*
X0255667Y0128362D01*
X0255430Y0128300D01*
X0255191Y0128243D01*
X0254951Y0128192D01*
X0254710Y0128147D01*
X0254467Y0128108D01*
X0254224Y0128075D01*
X0253980Y0128048D01*
X0253736Y0128027D01*
X0253491Y0128012D01*
X0253245Y0128003D01*
X0253000Y0128000D01*
X0252755Y0128003D01*
X0252509Y0128012D01*
X0252264Y0128027D01*
X0252020Y0128048D01*
X0251776Y0128075D01*
X0251533Y0128108D01*
X0251290Y0128147D01*
X0251049Y0128192D01*
X0250809Y0128243D01*
X0250570Y0128300D01*
X0250333Y0128362D01*
X0250097Y0128431D01*
X0249863Y0128505D01*
X0249631Y0128585D01*
X0249401Y0128670D01*
X0249173Y0128761D01*
X0248948Y0128858D01*
X0248724Y0128960D01*
X0248504Y0129068D01*
X0248286Y0129181D01*
X0248071Y0129299D01*
X0247859Y0129423D01*
X0247650Y0129551D01*
X0247444Y0129685D01*
X0247242Y0129824D01*
X0247043Y0129968D01*
X0246848Y0130117D01*
X0246656Y0130270D01*
X0246468Y0130428D01*
X0246284Y0130590D01*
X0246105Y0130758D01*
X0245929Y0130929D01*
X0245758Y0131105D01*
X0245590Y0131284D01*
X0245428Y0131468D01*
X0245270Y0131656D01*
X0245117Y0131848D01*
X0244968Y0132043D01*
X0244824Y0132242D01*
X0244685Y0132444D01*
X0244551Y0132650D01*
X0244423Y0132859D01*
X0244299Y0133071D01*
X0244181Y0133286D01*
X0244068Y0133504D01*
X0243960Y0133724D01*
X0243858Y0133948D01*
X0243761Y0134173D01*
X0243670Y0134401D01*
X0243585Y0134631D01*
X0243505Y0134863D01*
X0243431Y0135097D01*
X0243362Y0135333D01*
X0243300Y0135570D01*
X0243243Y0135809D01*
X0243192Y0136049D01*
X0243147Y0136290D01*
X0243108Y0136533D01*
X0243075Y0136776D01*
X0243048Y0137020D01*
X0243027Y0137264D01*
X0243012Y0137509D01*
X0243003Y0137755D01*
X0243000Y0138000D01*
X0036907Y0069705D02*
X0034772Y0068638D01*
X0032636Y0066503D01*
X0035839Y0066503D01*
X0036907Y0065435D01*
X0036907Y0064368D01*
X0035839Y0063300D01*
X0033704Y0063300D01*
X0032636Y0064368D01*
X0032636Y0066503D01*
X0030461Y0063300D02*
X0026191Y0063300D01*
X0028326Y0063300D02*
X0028326Y0069705D01*
X0026191Y0067570D01*
X0024016Y0068638D02*
X0019745Y0064368D01*
X0020813Y0063300D01*
X0022948Y0063300D01*
X0024016Y0064368D01*
X0024016Y0068638D01*
X0022948Y0069705D01*
X0020813Y0069705D01*
X0019745Y0068638D01*
X0019745Y0064368D01*
X0017570Y0063300D02*
X0013300Y0063300D01*
X0017570Y0067570D01*
X0017570Y0068638D01*
X0016503Y0069705D01*
X0014368Y0069705D01*
X0013300Y0068638D01*
D16*
X0263329Y0065809D02*
X0262609Y0065269D01*
X0262610Y0065270D02*
X0262429Y0065503D01*
X0262243Y0065731D01*
X0262051Y0065955D01*
X0261854Y0066174D01*
X0261652Y0066388D01*
X0261444Y0066597D01*
X0261231Y0066800D01*
X0261014Y0066999D01*
X0260791Y0067192D01*
X0260564Y0067380D01*
X0260333Y0067562D01*
X0260097Y0067739D01*
X0259856Y0067909D01*
X0259612Y0068074D01*
X0259364Y0068232D01*
X0259112Y0068385D01*
X0258856Y0068531D01*
X0258597Y0068671D01*
X0258334Y0068805D01*
X0258069Y0068932D01*
X0257800Y0069053D01*
X0257528Y0069167D01*
X0257254Y0069274D01*
X0256977Y0069375D01*
X0256698Y0069469D01*
X0256416Y0069556D01*
X0256133Y0069636D01*
X0255847Y0069709D01*
X0255560Y0069775D01*
X0255271Y0069834D01*
X0254981Y0069886D01*
X0254690Y0069931D01*
X0254398Y0069969D01*
X0254105Y0069999D01*
X0253811Y0070023D01*
X0253517Y0070039D01*
X0253223Y0070048D01*
X0252928Y0070050D01*
X0252633Y0070044D01*
X0252339Y0070032D01*
X0252045Y0070012D01*
X0251752Y0069985D01*
X0251459Y0069951D01*
X0251167Y0069910D01*
X0250877Y0069861D01*
X0250587Y0069806D01*
X0250300Y0069744D01*
X0250013Y0069674D01*
X0249729Y0069597D01*
X0249446Y0069514D01*
X0249166Y0069424D01*
X0248888Y0069327D01*
X0248612Y0069223D01*
X0248339Y0069112D01*
X0248069Y0068995D01*
X0247801Y0068871D01*
X0247537Y0068741D01*
X0247276Y0068604D01*
X0247019Y0068461D01*
X0246765Y0068311D01*
X0246514Y0068156D01*
X0246268Y0067994D01*
X0246026Y0067827D01*
X0245788Y0067653D01*
X0245554Y0067474D01*
X0245324Y0067289D01*
X0245100Y0067099D01*
X0244879Y0066903D01*
X0244664Y0066702D01*
X0244454Y0066495D01*
X0244249Y0066284D01*
X0244049Y0066067D01*
X0243854Y0065846D01*
X0243665Y0065620D01*
X0243482Y0065390D01*
X0243304Y0065155D01*
X0243132Y0064915D01*
X0242966Y0064672D01*
X0242806Y0064425D01*
X0242652Y0064174D01*
X0242504Y0063919D01*
X0242362Y0063660D01*
X0242227Y0063399D01*
X0242098Y0063134D01*
X0241976Y0062866D01*
X0241860Y0062595D01*
X0241751Y0062321D01*
X0241649Y0062045D01*
X0241554Y0061766D01*
X0241465Y0061485D01*
X0241383Y0061202D01*
X0241308Y0060917D01*
X0241241Y0060630D01*
X0241180Y0060342D01*
X0241126Y0060052D01*
X0241079Y0059761D01*
X0241040Y0059469D01*
X0241008Y0059177D01*
X0240982Y0058883D01*
X0240964Y0058589D01*
X0240954Y0058295D01*
X0240950Y0058000D01*
X0240954Y0057705D01*
X0240964Y0057411D01*
X0240982Y0057117D01*
X0241008Y0056823D01*
X0241040Y0056531D01*
X0241079Y0056239D01*
X0241126Y0055948D01*
X0241180Y0055658D01*
X0241241Y0055370D01*
X0241308Y0055083D01*
X0241383Y0054798D01*
X0241465Y0054515D01*
X0241554Y0054234D01*
X0241649Y0053955D01*
X0241751Y0053679D01*
X0241860Y0053405D01*
X0241976Y0053134D01*
X0242098Y0052866D01*
X0242227Y0052601D01*
X0242362Y0052340D01*
X0242504Y0052081D01*
X0242652Y0051826D01*
X0242806Y0051575D01*
X0242966Y0051328D01*
X0243132Y0051085D01*
X0243304Y0050845D01*
X0243482Y0050610D01*
X0243665Y0050380D01*
X0243854Y0050154D01*
X0244049Y0049933D01*
X0244249Y0049716D01*
X0244454Y0049505D01*
X0244664Y0049298D01*
X0244879Y0049097D01*
X0245100Y0048901D01*
X0245324Y0048711D01*
X0245554Y0048526D01*
X0245788Y0048347D01*
X0246026Y0048173D01*
X0246268Y0048006D01*
X0246514Y0047844D01*
X0246765Y0047689D01*
X0247019Y0047539D01*
X0247276Y0047396D01*
X0247537Y0047259D01*
X0247801Y0047129D01*
X0248069Y0047005D01*
X0248339Y0046888D01*
X0248612Y0046777D01*
X0248888Y0046673D01*
X0249166Y0046576D01*
X0249446Y0046486D01*
X0249729Y0046403D01*
X0250013Y0046326D01*
X0250300Y0046256D01*
X0250587Y0046194D01*
X0250877Y0046139D01*
X0251167Y0046090D01*
X0251459Y0046049D01*
X0251752Y0046015D01*
X0252045Y0045988D01*
X0252339Y0045968D01*
X0252633Y0045956D01*
X0252928Y0045950D01*
X0253223Y0045952D01*
X0253517Y0045961D01*
X0253811Y0045977D01*
X0254105Y0046001D01*
X0254398Y0046031D01*
X0254690Y0046069D01*
X0254981Y0046114D01*
X0255271Y0046166D01*
X0255560Y0046225D01*
X0255847Y0046291D01*
X0256133Y0046364D01*
X0256416Y0046444D01*
X0256698Y0046531D01*
X0256977Y0046625D01*
X0257254Y0046726D01*
X0257528Y0046833D01*
X0257800Y0046947D01*
X0258069Y0047068D01*
X0258334Y0047195D01*
X0258597Y0047329D01*
X0258856Y0047469D01*
X0259112Y0047615D01*
X0259364Y0047768D01*
X0259612Y0047926D01*
X0259856Y0048091D01*
X0260097Y0048261D01*
X0260333Y0048438D01*
X0260564Y0048620D01*
X0260791Y0048808D01*
X0261014Y0049001D01*
X0261231Y0049200D01*
X0261444Y0049403D01*
X0261652Y0049612D01*
X0261854Y0049826D01*
X0262051Y0050045D01*
X0262243Y0050269D01*
X0262429Y0050497D01*
X0262610Y0050730D01*
X0263329Y0050191D01*
X0263330Y0050190D01*
X0263136Y0049940D01*
X0262936Y0049694D01*
X0262730Y0049454D01*
X0262518Y0049219D01*
X0262300Y0048989D01*
X0262077Y0048764D01*
X0261849Y0048545D01*
X0261615Y0048331D01*
X0261376Y0048123D01*
X0261132Y0047921D01*
X0260883Y0047726D01*
X0260629Y0047536D01*
X0260371Y0047353D01*
X0260109Y0047176D01*
X0259842Y0047005D01*
X0259571Y0046841D01*
X0259296Y0046684D01*
X0259018Y0046533D01*
X0258735Y0046389D01*
X0258450Y0046253D01*
X0258161Y0046123D01*
X0257869Y0046000D01*
X0257574Y0045885D01*
X0257277Y0045777D01*
X0256976Y0045676D01*
X0256674Y0045582D01*
X0256369Y0045496D01*
X0256062Y0045417D01*
X0255754Y0045346D01*
X0255444Y0045283D01*
X0255132Y0045227D01*
X0254819Y0045178D01*
X0254505Y0045138D01*
X0254190Y0045105D01*
X0253874Y0045080D01*
X0253558Y0045062D01*
X0253242Y0045052D01*
X0252925Y0045050D01*
X0252608Y0045056D01*
X0252292Y0045069D01*
X0251976Y0045091D01*
X0251661Y0045119D01*
X0251346Y0045156D01*
X0251033Y0045200D01*
X0250720Y0045252D01*
X0250409Y0045312D01*
X0250100Y0045379D01*
X0249792Y0045454D01*
X0249486Y0045536D01*
X0249183Y0045625D01*
X0248881Y0045722D01*
X0248582Y0045827D01*
X0248286Y0045939D01*
X0247992Y0046057D01*
X0247702Y0046183D01*
X0247415Y0046316D01*
X0247130Y0046457D01*
X0246850Y0046604D01*
X0246573Y0046757D01*
X0246300Y0046918D01*
X0246031Y0047085D01*
X0245766Y0047259D01*
X0245506Y0047439D01*
X0245250Y0047625D01*
X0244999Y0047818D01*
X0244752Y0048016D01*
X0244510Y0048221D01*
X0244274Y0048431D01*
X0244042Y0048648D01*
X0243817Y0048870D01*
X0243596Y0049097D01*
X0243381Y0049329D01*
X0243172Y0049567D01*
X0242969Y0049810D01*
X0242771Y0050058D01*
X0242580Y0050310D01*
X0242395Y0050567D01*
X0242217Y0050829D01*
X0242045Y0051095D01*
X0241879Y0051364D01*
X0241720Y0051638D01*
X0241568Y0051916D01*
X0241423Y0052197D01*
X0241284Y0052482D01*
X0241153Y0052770D01*
X0241029Y0053062D01*
X0240911Y0053356D01*
X0240801Y0053653D01*
X0240699Y0053952D01*
X0240604Y0054254D01*
X0240516Y0054558D01*
X0240435Y0054865D01*
X0240362Y0055173D01*
X0240297Y0055483D01*
X0240239Y0055794D01*
X0240189Y0056107D01*
X0240147Y0056421D01*
X0240112Y0056735D01*
X0240085Y0057051D01*
X0240065Y0057367D01*
X0240054Y0057683D01*
X0240050Y0058000D01*
X0240054Y0058317D01*
X0240065Y0058633D01*
X0240085Y0058949D01*
X0240112Y0059265D01*
X0240147Y0059579D01*
X0240189Y0059893D01*
X0240239Y0060206D01*
X0240297Y0060517D01*
X0240362Y0060827D01*
X0240435Y0061135D01*
X0240516Y0061442D01*
X0240604Y0061746D01*
X0240699Y0062048D01*
X0240801Y0062347D01*
X0240911Y0062644D01*
X0241029Y0062938D01*
X0241153Y0063230D01*
X0241284Y0063518D01*
X0241423Y0063803D01*
X0241568Y0064084D01*
X0241720Y0064362D01*
X0241879Y0064636D01*
X0242045Y0064905D01*
X0242217Y0065171D01*
X0242395Y0065433D01*
X0242580Y0065690D01*
X0242771Y0065942D01*
X0242969Y0066190D01*
X0243172Y0066433D01*
X0243381Y0066671D01*
X0243596Y0066903D01*
X0243817Y0067130D01*
X0244042Y0067352D01*
X0244274Y0067569D01*
X0244510Y0067779D01*
X0244752Y0067984D01*
X0244999Y0068182D01*
X0245250Y0068375D01*
X0245506Y0068561D01*
X0245766Y0068741D01*
X0246031Y0068915D01*
X0246300Y0069082D01*
X0246573Y0069243D01*
X0246850Y0069396D01*
X0247130Y0069543D01*
X0247415Y0069684D01*
X0247702Y0069817D01*
X0247992Y0069943D01*
X0248286Y0070061D01*
X0248582Y0070173D01*
X0248881Y0070278D01*
X0249183Y0070375D01*
X0249486Y0070464D01*
X0249792Y0070546D01*
X0250100Y0070621D01*
X0250409Y0070688D01*
X0250720Y0070748D01*
X0251033Y0070800D01*
X0251346Y0070844D01*
X0251661Y0070881D01*
X0251976Y0070909D01*
X0252292Y0070931D01*
X0252608Y0070944D01*
X0252925Y0070950D01*
X0253242Y0070948D01*
X0253558Y0070938D01*
X0253874Y0070920D01*
X0254190Y0070895D01*
X0254505Y0070862D01*
X0254819Y0070822D01*
X0255132Y0070773D01*
X0255444Y0070717D01*
X0255754Y0070654D01*
X0256062Y0070583D01*
X0256369Y0070504D01*
X0256674Y0070418D01*
X0256976Y0070324D01*
X0257277Y0070223D01*
X0257574Y0070115D01*
X0257869Y0070000D01*
X0258161Y0069877D01*
X0258450Y0069747D01*
X0258735Y0069611D01*
X0259018Y0069467D01*
X0259296Y0069316D01*
X0259571Y0069159D01*
X0259842Y0068995D01*
X0260109Y0068824D01*
X0260371Y0068647D01*
X0260629Y0068464D01*
X0260883Y0068274D01*
X0261132Y0068079D01*
X0261376Y0067877D01*
X0261615Y0067669D01*
X0261849Y0067455D01*
X0262077Y0067236D01*
X0262300Y0067011D01*
X0262518Y0066781D01*
X0262730Y0066546D01*
X0262936Y0066306D01*
X0263136Y0066060D01*
X0263330Y0065810D01*
X0263255Y0065754D01*
X0263062Y0066002D01*
X0262863Y0066246D01*
X0262659Y0066484D01*
X0262449Y0066718D01*
X0262233Y0066946D01*
X0262011Y0067169D01*
X0261784Y0067387D01*
X0261552Y0067599D01*
X0261315Y0067805D01*
X0261073Y0068006D01*
X0260825Y0068200D01*
X0260574Y0068388D01*
X0260317Y0068570D01*
X0260057Y0068746D01*
X0259792Y0068915D01*
X0259523Y0069078D01*
X0259250Y0069234D01*
X0258974Y0069384D01*
X0258694Y0069526D01*
X0258410Y0069662D01*
X0258123Y0069791D01*
X0257833Y0069913D01*
X0257541Y0070027D01*
X0257245Y0070135D01*
X0256947Y0070235D01*
X0256647Y0070328D01*
X0256344Y0070413D01*
X0256040Y0070491D01*
X0255734Y0070562D01*
X0255426Y0070625D01*
X0255116Y0070681D01*
X0254806Y0070729D01*
X0254494Y0070769D01*
X0254181Y0070802D01*
X0253868Y0070827D01*
X0253554Y0070844D01*
X0253240Y0070854D01*
X0252925Y0070856D01*
X0252611Y0070850D01*
X0252297Y0070837D01*
X0251983Y0070816D01*
X0251670Y0070787D01*
X0251358Y0070751D01*
X0251047Y0070707D01*
X0250737Y0070655D01*
X0250428Y0070596D01*
X0250121Y0070529D01*
X0249815Y0070455D01*
X0249512Y0070374D01*
X0249210Y0070285D01*
X0248911Y0070188D01*
X0248614Y0070085D01*
X0248320Y0069974D01*
X0248029Y0069856D01*
X0247740Y0069731D01*
X0247455Y0069599D01*
X0247173Y0069460D01*
X0246895Y0069314D01*
X0246620Y0069161D01*
X0246349Y0069002D01*
X0246082Y0068836D01*
X0245819Y0068663D01*
X0245560Y0068485D01*
X0245306Y0068300D01*
X0245057Y0068108D01*
X0244812Y0067911D01*
X0244572Y0067708D01*
X0244337Y0067499D01*
X0244107Y0067284D01*
X0243883Y0067064D01*
X0243664Y0066839D01*
X0243451Y0066608D01*
X0243243Y0066372D01*
X0243041Y0066130D01*
X0242846Y0065885D01*
X0242656Y0065634D01*
X0242472Y0065379D01*
X0242295Y0065119D01*
X0242124Y0064855D01*
X0241960Y0064587D01*
X0241802Y0064315D01*
X0241651Y0064040D01*
X0241507Y0063760D01*
X0241369Y0063478D01*
X0241239Y0063192D01*
X0241115Y0062903D01*
X0240999Y0062610D01*
X0240890Y0062316D01*
X0240788Y0062018D01*
X0240694Y0061719D01*
X0240606Y0061416D01*
X0240526Y0061112D01*
X0240454Y0060807D01*
X0240389Y0060499D01*
X0240332Y0060190D01*
X0240282Y0059879D01*
X0240240Y0059568D01*
X0240205Y0059255D01*
X0240179Y0058942D01*
X0240159Y0058628D01*
X0240148Y0058314D01*
X0240144Y0058000D01*
X0240148Y0057686D01*
X0240159Y0057372D01*
X0240179Y0057058D01*
X0240205Y0056745D01*
X0240240Y0056432D01*
X0240282Y0056121D01*
X0240332Y0055810D01*
X0240389Y0055501D01*
X0240454Y0055193D01*
X0240526Y0054888D01*
X0240606Y0054584D01*
X0240694Y0054281D01*
X0240788Y0053982D01*
X0240890Y0053684D01*
X0240999Y0053390D01*
X0241115Y0053097D01*
X0241239Y0052808D01*
X0241369Y0052522D01*
X0241507Y0052240D01*
X0241651Y0051960D01*
X0241802Y0051685D01*
X0241960Y0051413D01*
X0242124Y0051145D01*
X0242295Y0050881D01*
X0242472Y0050621D01*
X0242656Y0050366D01*
X0242846Y0050115D01*
X0243041Y0049870D01*
X0243243Y0049628D01*
X0243451Y0049392D01*
X0243664Y0049161D01*
X0243883Y0048936D01*
X0244107Y0048716D01*
X0244337Y0048501D01*
X0244572Y0048292D01*
X0244812Y0048089D01*
X0245057Y0047892D01*
X0245306Y0047700D01*
X0245560Y0047515D01*
X0245819Y0047337D01*
X0246082Y0047164D01*
X0246349Y0046998D01*
X0246620Y0046839D01*
X0246895Y0046686D01*
X0247173Y0046540D01*
X0247455Y0046401D01*
X0247740Y0046269D01*
X0248029Y0046144D01*
X0248320Y0046026D01*
X0248614Y0045915D01*
X0248911Y0045812D01*
X0249210Y0045715D01*
X0249512Y0045626D01*
X0249815Y0045545D01*
X0250121Y0045471D01*
X0250428Y0045404D01*
X0250737Y0045345D01*
X0251047Y0045293D01*
X0251358Y0045249D01*
X0251670Y0045213D01*
X0251983Y0045184D01*
X0252297Y0045163D01*
X0252611Y0045150D01*
X0252925Y0045144D01*
X0253240Y0045146D01*
X0253554Y0045156D01*
X0253868Y0045173D01*
X0254181Y0045198D01*
X0254494Y0045231D01*
X0254806Y0045271D01*
X0255116Y0045319D01*
X0255426Y0045375D01*
X0255734Y0045438D01*
X0256040Y0045509D01*
X0256344Y0045587D01*
X0256647Y0045672D01*
X0256947Y0045765D01*
X0257245Y0045865D01*
X0257541Y0045973D01*
X0257833Y0046087D01*
X0258123Y0046209D01*
X0258410Y0046338D01*
X0258694Y0046474D01*
X0258974Y0046616D01*
X0259250Y0046766D01*
X0259523Y0046922D01*
X0259792Y0047085D01*
X0260057Y0047254D01*
X0260317Y0047430D01*
X0260574Y0047612D01*
X0260825Y0047800D01*
X0261073Y0047994D01*
X0261315Y0048195D01*
X0261552Y0048401D01*
X0261784Y0048613D01*
X0262011Y0048831D01*
X0262233Y0049054D01*
X0262449Y0049282D01*
X0262659Y0049516D01*
X0262863Y0049754D01*
X0263062Y0049998D01*
X0263255Y0050246D01*
X0263180Y0050303D01*
X0262988Y0050056D01*
X0262791Y0049814D01*
X0262588Y0049577D01*
X0262379Y0049346D01*
X0262165Y0049119D01*
X0261945Y0048897D01*
X0261720Y0048681D01*
X0261489Y0048471D01*
X0261254Y0048266D01*
X0261013Y0048067D01*
X0260768Y0047874D01*
X0260518Y0047688D01*
X0260264Y0047507D01*
X0260005Y0047332D01*
X0259742Y0047164D01*
X0259475Y0047003D01*
X0259204Y0046848D01*
X0258930Y0046699D01*
X0258652Y0046558D01*
X0258370Y0046423D01*
X0258086Y0046295D01*
X0257798Y0046174D01*
X0257507Y0046060D01*
X0257214Y0045954D01*
X0256918Y0045854D01*
X0256620Y0045762D01*
X0256320Y0045677D01*
X0256017Y0045600D01*
X0255713Y0045530D01*
X0255408Y0045467D01*
X0255101Y0045412D01*
X0254792Y0045364D01*
X0254483Y0045324D01*
X0254172Y0045292D01*
X0253861Y0045267D01*
X0253550Y0045250D01*
X0253238Y0045240D01*
X0252926Y0045238D01*
X0252614Y0045244D01*
X0252302Y0045257D01*
X0251991Y0045278D01*
X0251680Y0045306D01*
X0251370Y0045343D01*
X0251061Y0045386D01*
X0250753Y0045437D01*
X0250446Y0045496D01*
X0250142Y0045562D01*
X0249838Y0045636D01*
X0249537Y0045717D01*
X0249238Y0045805D01*
X0248941Y0045901D01*
X0248646Y0046004D01*
X0248354Y0046114D01*
X0248065Y0046231D01*
X0247778Y0046355D01*
X0247495Y0046486D01*
X0247215Y0046624D01*
X0246939Y0046769D01*
X0246666Y0046921D01*
X0246397Y0047079D01*
X0246132Y0047244D01*
X0245871Y0047415D01*
X0245615Y0047592D01*
X0245362Y0047776D01*
X0245115Y0047966D01*
X0244872Y0048161D01*
X0244633Y0048363D01*
X0244400Y0048571D01*
X0244172Y0048784D01*
X0243950Y0049002D01*
X0243732Y0049226D01*
X0243521Y0049455D01*
X0243315Y0049690D01*
X0243114Y0049929D01*
X0242920Y0050173D01*
X0242732Y0050422D01*
X0242549Y0050675D01*
X0242373Y0050933D01*
X0242204Y0051195D01*
X0242041Y0051461D01*
X0241884Y0051731D01*
X0241734Y0052005D01*
X0241591Y0052282D01*
X0241454Y0052562D01*
X0241325Y0052846D01*
X0241202Y0053133D01*
X0241087Y0053423D01*
X0240979Y0053716D01*
X0240877Y0054011D01*
X0240783Y0054309D01*
X0240697Y0054609D01*
X0240618Y0054910D01*
X0240546Y0055214D01*
X0240481Y0055519D01*
X0240424Y0055826D01*
X0240375Y0056134D01*
X0240333Y0056444D01*
X0240299Y0056754D01*
X0240272Y0057065D01*
X0240253Y0057376D01*
X0240242Y0057688D01*
X0240238Y0058000D01*
X0240242Y0058312D01*
X0240253Y0058624D01*
X0240272Y0058935D01*
X0240299Y0059246D01*
X0240333Y0059556D01*
X0240375Y0059866D01*
X0240424Y0060174D01*
X0240481Y0060481D01*
X0240546Y0060786D01*
X0240618Y0061090D01*
X0240697Y0061391D01*
X0240783Y0061691D01*
X0240877Y0061989D01*
X0240979Y0062284D01*
X0241087Y0062577D01*
X0241202Y0062867D01*
X0241325Y0063154D01*
X0241454Y0063438D01*
X0241591Y0063718D01*
X0241734Y0063995D01*
X0241884Y0064269D01*
X0242041Y0064539D01*
X0242204Y0064805D01*
X0242373Y0065067D01*
X0242549Y0065325D01*
X0242732Y0065578D01*
X0242920Y0065827D01*
X0243114Y0066071D01*
X0243315Y0066310D01*
X0243521Y0066545D01*
X0243732Y0066774D01*
X0243950Y0066998D01*
X0244172Y0067216D01*
X0244400Y0067429D01*
X0244633Y0067637D01*
X0244872Y0067839D01*
X0245115Y0068034D01*
X0245362Y0068224D01*
X0245615Y0068408D01*
X0245871Y0068585D01*
X0246132Y0068756D01*
X0246397Y0068921D01*
X0246666Y0069079D01*
X0246939Y0069231D01*
X0247215Y0069376D01*
X0247495Y0069514D01*
X0247778Y0069645D01*
X0248065Y0069769D01*
X0248354Y0069886D01*
X0248646Y0069996D01*
X0248941Y0070099D01*
X0249238Y0070195D01*
X0249537Y0070283D01*
X0249838Y0070364D01*
X0250142Y0070438D01*
X0250446Y0070504D01*
X0250753Y0070563D01*
X0251061Y0070614D01*
X0251370Y0070657D01*
X0251680Y0070694D01*
X0251991Y0070722D01*
X0252302Y0070743D01*
X0252614Y0070756D01*
X0252926Y0070762D01*
X0253238Y0070760D01*
X0253550Y0070750D01*
X0253861Y0070733D01*
X0254172Y0070708D01*
X0254483Y0070676D01*
X0254792Y0070636D01*
X0255101Y0070588D01*
X0255408Y0070533D01*
X0255713Y0070470D01*
X0256017Y0070400D01*
X0256320Y0070323D01*
X0256620Y0070238D01*
X0256918Y0070146D01*
X0257214Y0070046D01*
X0257507Y0069940D01*
X0257798Y0069826D01*
X0258086Y0069705D01*
X0258370Y0069577D01*
X0258652Y0069442D01*
X0258930Y0069301D01*
X0259204Y0069152D01*
X0259475Y0068997D01*
X0259742Y0068836D01*
X0260005Y0068668D01*
X0260264Y0068493D01*
X0260518Y0068312D01*
X0260768Y0068126D01*
X0261013Y0067933D01*
X0261254Y0067734D01*
X0261489Y0067529D01*
X0261720Y0067319D01*
X0261945Y0067103D01*
X0262165Y0066881D01*
X0262379Y0066654D01*
X0262588Y0066423D01*
X0262791Y0066186D01*
X0262988Y0065944D01*
X0263180Y0065697D01*
X0263104Y0065641D01*
X0262914Y0065886D01*
X0262719Y0066126D01*
X0262517Y0066361D01*
X0262310Y0066591D01*
X0262097Y0066816D01*
X0261879Y0067036D01*
X0261655Y0067250D01*
X0261426Y0067459D01*
X0261193Y0067662D01*
X0260954Y0067860D01*
X0260711Y0068051D01*
X0260462Y0068237D01*
X0260210Y0068416D01*
X0259953Y0068589D01*
X0259692Y0068756D01*
X0259427Y0068917D01*
X0259158Y0069070D01*
X0258886Y0069218D01*
X0258610Y0069358D01*
X0258330Y0069492D01*
X0258048Y0069619D01*
X0257762Y0069739D01*
X0257474Y0069852D01*
X0257183Y0069958D01*
X0256889Y0070056D01*
X0256593Y0070148D01*
X0256295Y0070232D01*
X0255995Y0070309D01*
X0255693Y0070378D01*
X0255390Y0070441D01*
X0255085Y0070495D01*
X0254779Y0070543D01*
X0254471Y0070582D01*
X0254163Y0070614D01*
X0253855Y0070639D01*
X0253545Y0070656D01*
X0253236Y0070666D01*
X0252926Y0070668D01*
X0252616Y0070662D01*
X0252307Y0070649D01*
X0251998Y0070628D01*
X0251689Y0070600D01*
X0251382Y0070564D01*
X0251075Y0070521D01*
X0250769Y0070470D01*
X0250465Y0070412D01*
X0250162Y0070346D01*
X0249861Y0070273D01*
X0249562Y0070193D01*
X0249265Y0070105D01*
X0248970Y0070010D01*
X0248678Y0069908D01*
X0248388Y0069799D01*
X0248101Y0069682D01*
X0247817Y0069559D01*
X0247536Y0069429D01*
X0247258Y0069292D01*
X0246984Y0069148D01*
X0246713Y0068998D01*
X0246446Y0068841D01*
X0246183Y0068677D01*
X0245924Y0068507D01*
X0245669Y0068331D01*
X0245418Y0068149D01*
X0245173Y0067960D01*
X0244931Y0067766D01*
X0244695Y0067566D01*
X0244464Y0067360D01*
X0244237Y0067148D01*
X0244016Y0066931D01*
X0243801Y0066709D01*
X0243590Y0066482D01*
X0243386Y0066249D01*
X0243187Y0066011D01*
X0242994Y0065769D01*
X0242807Y0065522D01*
X0242626Y0065271D01*
X0242452Y0065015D01*
X0242283Y0064755D01*
X0242121Y0064491D01*
X0241966Y0064223D01*
X0241817Y0063951D01*
X0241675Y0063676D01*
X0241539Y0063397D01*
X0241411Y0063116D01*
X0241289Y0062831D01*
X0241175Y0062543D01*
X0241067Y0062252D01*
X0240967Y0061959D01*
X0240873Y0061664D01*
X0240787Y0061366D01*
X0240709Y0061067D01*
X0240638Y0060765D01*
X0240574Y0060462D01*
X0240517Y0060158D01*
X0240468Y0059852D01*
X0240427Y0059545D01*
X0240393Y0059237D01*
X0240366Y0058928D01*
X0240347Y0058619D01*
X0240336Y0058310D01*
X0240332Y0058000D01*
X0240336Y0057690D01*
X0240347Y0057381D01*
X0240366Y0057072D01*
X0240393Y0056763D01*
X0240427Y0056455D01*
X0240468Y0056148D01*
X0240517Y0055842D01*
X0240574Y0055538D01*
X0240638Y0055235D01*
X0240709Y0054933D01*
X0240787Y0054634D01*
X0240873Y0054336D01*
X0240967Y0054041D01*
X0241067Y0053748D01*
X0241175Y0053457D01*
X0241289Y0053169D01*
X0241411Y0052884D01*
X0241539Y0052603D01*
X0241675Y0052324D01*
X0241817Y0052049D01*
X0241966Y0051777D01*
X0242121Y0051509D01*
X0242283Y0051245D01*
X0242452Y0050985D01*
X0242626Y0050729D01*
X0242807Y0050478D01*
X0242994Y0050231D01*
X0243187Y0049989D01*
X0243386Y0049751D01*
X0243590Y0049518D01*
X0243801Y0049291D01*
X0244016Y0049069D01*
X0244237Y0048852D01*
X0244464Y0048640D01*
X0244695Y0048434D01*
X0244931Y0048234D01*
X0245173Y0048040D01*
X0245418Y0047851D01*
X0245669Y0047669D01*
X0245924Y0047493D01*
X0246183Y0047323D01*
X0246446Y0047159D01*
X0246713Y0047002D01*
X0246984Y0046852D01*
X0247258Y0046708D01*
X0247536Y0046571D01*
X0247817Y0046441D01*
X0248101Y0046318D01*
X0248388Y0046201D01*
X0248678Y0046092D01*
X0248970Y0045990D01*
X0249265Y0045895D01*
X0249562Y0045807D01*
X0249861Y0045727D01*
X0250162Y0045654D01*
X0250465Y0045588D01*
X0250769Y0045530D01*
X0251075Y0045479D01*
X0251382Y0045436D01*
X0251689Y0045400D01*
X0251998Y0045372D01*
X0252307Y0045351D01*
X0252616Y0045338D01*
X0252926Y0045332D01*
X0253236Y0045334D01*
X0253545Y0045344D01*
X0253855Y0045361D01*
X0254163Y0045386D01*
X0254471Y0045418D01*
X0254779Y0045457D01*
X0255085Y0045505D01*
X0255390Y0045559D01*
X0255693Y0045622D01*
X0255995Y0045691D01*
X0256295Y0045768D01*
X0256593Y0045852D01*
X0256889Y0045944D01*
X0257183Y0046042D01*
X0257474Y0046148D01*
X0257762Y0046261D01*
X0258048Y0046381D01*
X0258330Y0046508D01*
X0258610Y0046642D01*
X0258886Y0046782D01*
X0259158Y0046930D01*
X0259427Y0047083D01*
X0259692Y0047244D01*
X0259953Y0047411D01*
X0260210Y0047584D01*
X0260462Y0047763D01*
X0260711Y0047949D01*
X0260954Y0048140D01*
X0261193Y0048338D01*
X0261426Y0048541D01*
X0261655Y0048750D01*
X0261879Y0048964D01*
X0262097Y0049184D01*
X0262310Y0049409D01*
X0262517Y0049639D01*
X0262719Y0049874D01*
X0262914Y0050114D01*
X0263104Y0050359D01*
X0263029Y0050416D01*
X0262841Y0050173D01*
X0262646Y0049934D01*
X0262446Y0049701D01*
X0262241Y0049473D01*
X0262029Y0049249D01*
X0261813Y0049031D01*
X0261591Y0048818D01*
X0261364Y0048611D01*
X0261132Y0048409D01*
X0260895Y0048213D01*
X0260653Y0048023D01*
X0260407Y0047839D01*
X0260156Y0047661D01*
X0259901Y0047489D01*
X0259642Y0047324D01*
X0259379Y0047164D01*
X0259112Y0047012D01*
X0258842Y0046865D01*
X0258568Y0046726D01*
X0258291Y0046593D01*
X0258010Y0046467D01*
X0257727Y0046348D01*
X0257440Y0046236D01*
X0257151Y0046131D01*
X0256860Y0046033D01*
X0256566Y0045942D01*
X0256270Y0045859D01*
X0255973Y0045782D01*
X0255673Y0045713D01*
X0255372Y0045652D01*
X0255069Y0045597D01*
X0254765Y0045551D01*
X0254460Y0045511D01*
X0254155Y0045479D01*
X0253848Y0045455D01*
X0253541Y0045438D01*
X0253234Y0045428D01*
X0252926Y0045426D01*
X0252619Y0045432D01*
X0252312Y0045445D01*
X0252005Y0045465D01*
X0251699Y0045494D01*
X0251393Y0045529D01*
X0251089Y0045572D01*
X0250786Y0045623D01*
X0250484Y0045680D01*
X0250183Y0045746D01*
X0249884Y0045818D01*
X0249588Y0045898D01*
X0249293Y0045985D01*
X0249000Y0046079D01*
X0248710Y0046181D01*
X0248422Y0046289D01*
X0248137Y0046404D01*
X0247855Y0046527D01*
X0247576Y0046656D01*
X0247300Y0046792D01*
X0247028Y0046935D01*
X0246759Y0047084D01*
X0246494Y0047240D01*
X0246233Y0047402D01*
X0245976Y0047571D01*
X0245723Y0047746D01*
X0245475Y0047927D01*
X0245231Y0048114D01*
X0244991Y0048307D01*
X0244757Y0048505D01*
X0244527Y0048710D01*
X0244302Y0048920D01*
X0244083Y0049135D01*
X0243869Y0049356D01*
X0243660Y0049581D01*
X0243457Y0049812D01*
X0243260Y0050048D01*
X0243068Y0050289D01*
X0242883Y0050534D01*
X0242703Y0050783D01*
X0242530Y0051037D01*
X0242363Y0051295D01*
X0242202Y0051557D01*
X0242048Y0051823D01*
X0241900Y0052093D01*
X0241759Y0052366D01*
X0241624Y0052643D01*
X0241497Y0052922D01*
X0241376Y0053205D01*
X0241262Y0053491D01*
X0241156Y0053779D01*
X0241056Y0054070D01*
X0240963Y0054363D01*
X0240878Y0054659D01*
X0240800Y0054956D01*
X0240729Y0055255D01*
X0240666Y0055556D01*
X0240610Y0055858D01*
X0240561Y0056162D01*
X0240520Y0056467D01*
X0240486Y0056772D01*
X0240460Y0057078D01*
X0240441Y0057385D01*
X0240430Y0057693D01*
X0240426Y0058000D01*
X0240430Y0058307D01*
X0240441Y0058615D01*
X0240460Y0058922D01*
X0240486Y0059228D01*
X0240520Y0059533D01*
X0240561Y0059838D01*
X0240610Y0060142D01*
X0240666Y0060444D01*
X0240729Y0060745D01*
X0240800Y0061044D01*
X0240878Y0061341D01*
X0240963Y0061637D01*
X0241056Y0061930D01*
X0241156Y0062221D01*
X0241262Y0062509D01*
X0241376Y0062795D01*
X0241497Y0063078D01*
X0241624Y0063357D01*
X0241759Y0063634D01*
X0241900Y0063907D01*
X0242048Y0064177D01*
X0242202Y0064443D01*
X0242363Y0064705D01*
X0242530Y0064963D01*
X0242703Y0065217D01*
X0242883Y0065466D01*
X0243068Y0065711D01*
X0243260Y0065952D01*
X0243457Y0066188D01*
X0243660Y0066419D01*
X0243869Y0066644D01*
X0244083Y0066865D01*
X0244302Y0067080D01*
X0244527Y0067290D01*
X0244757Y0067495D01*
X0244991Y0067693D01*
X0245231Y0067886D01*
X0245475Y0068073D01*
X0245723Y0068254D01*
X0245976Y0068429D01*
X0246233Y0068598D01*
X0246494Y0068760D01*
X0246759Y0068916D01*
X0247028Y0069065D01*
X0247300Y0069208D01*
X0247576Y0069344D01*
X0247855Y0069473D01*
X0248137Y0069596D01*
X0248422Y0069711D01*
X0248710Y0069819D01*
X0249000Y0069921D01*
X0249293Y0070015D01*
X0249588Y0070102D01*
X0249884Y0070182D01*
X0250183Y0070254D01*
X0250484Y0070320D01*
X0250786Y0070377D01*
X0251089Y0070428D01*
X0251393Y0070471D01*
X0251699Y0070506D01*
X0252005Y0070535D01*
X0252312Y0070555D01*
X0252619Y0070568D01*
X0252926Y0070574D01*
X0253234Y0070572D01*
X0253541Y0070562D01*
X0253848Y0070545D01*
X0254155Y0070521D01*
X0254460Y0070489D01*
X0254765Y0070449D01*
X0255069Y0070403D01*
X0255372Y0070348D01*
X0255673Y0070287D01*
X0255973Y0070218D01*
X0256270Y0070141D01*
X0256566Y0070058D01*
X0256860Y0069967D01*
X0257151Y0069869D01*
X0257440Y0069764D01*
X0257727Y0069652D01*
X0258010Y0069533D01*
X0258291Y0069407D01*
X0258568Y0069274D01*
X0258842Y0069135D01*
X0259112Y0068988D01*
X0259379Y0068836D01*
X0259642Y0068676D01*
X0259901Y0068511D01*
X0260156Y0068339D01*
X0260407Y0068161D01*
X0260653Y0067977D01*
X0260895Y0067787D01*
X0261132Y0067591D01*
X0261364Y0067389D01*
X0261591Y0067182D01*
X0261813Y0066969D01*
X0262029Y0066751D01*
X0262241Y0066527D01*
X0262446Y0066299D01*
X0262646Y0066066D01*
X0262841Y0065827D01*
X0263029Y0065584D01*
X0262954Y0065528D01*
X0262767Y0065769D01*
X0262574Y0066006D01*
X0262375Y0066237D01*
X0262171Y0066464D01*
X0261962Y0066686D01*
X0261747Y0066902D01*
X0261526Y0067113D01*
X0261301Y0067319D01*
X0261071Y0067519D01*
X0260835Y0067714D01*
X0260596Y0067902D01*
X0260351Y0068085D01*
X0260102Y0068262D01*
X0259849Y0068432D01*
X0259592Y0068597D01*
X0259331Y0068755D01*
X0259066Y0068906D01*
X0258798Y0069051D01*
X0258526Y0069190D01*
X0258251Y0069322D01*
X0257972Y0069447D01*
X0257691Y0069565D01*
X0257407Y0069676D01*
X0257120Y0069780D01*
X0256831Y0069878D01*
X0256539Y0069968D01*
X0256246Y0070051D01*
X0255950Y0070126D01*
X0255653Y0070195D01*
X0255354Y0070256D01*
X0255053Y0070310D01*
X0254752Y0070356D01*
X0254449Y0070396D01*
X0254146Y0070427D01*
X0253841Y0070452D01*
X0253537Y0070468D01*
X0253232Y0070478D01*
X0252927Y0070480D01*
X0252622Y0070474D01*
X0252317Y0070461D01*
X0252012Y0070441D01*
X0251708Y0070413D01*
X0251405Y0070378D01*
X0251103Y0070335D01*
X0250802Y0070285D01*
X0250502Y0070228D01*
X0250204Y0070163D01*
X0249908Y0070091D01*
X0249613Y0070012D01*
X0249320Y0069925D01*
X0249030Y0069832D01*
X0248742Y0069731D01*
X0248456Y0069623D01*
X0248173Y0069509D01*
X0247893Y0069387D01*
X0247616Y0069259D01*
X0247343Y0069124D01*
X0247073Y0068983D01*
X0246806Y0068834D01*
X0246543Y0068680D01*
X0246284Y0068519D01*
X0246028Y0068351D01*
X0245777Y0068178D01*
X0245531Y0067998D01*
X0245289Y0067812D01*
X0245051Y0067621D01*
X0244818Y0067424D01*
X0244590Y0067221D01*
X0244367Y0067012D01*
X0244149Y0066799D01*
X0243937Y0066580D01*
X0243730Y0066356D01*
X0243528Y0066126D01*
X0243332Y0065892D01*
X0243142Y0065654D01*
X0242958Y0065410D01*
X0242780Y0065163D01*
X0242608Y0064911D01*
X0242442Y0064654D01*
X0242283Y0064394D01*
X0242129Y0064130D01*
X0241983Y0063863D01*
X0241843Y0063592D01*
X0241709Y0063317D01*
X0241583Y0063040D01*
X0241463Y0062759D01*
X0241350Y0062475D01*
X0241244Y0062189D01*
X0241145Y0061901D01*
X0241053Y0061610D01*
X0240969Y0061316D01*
X0240891Y0061021D01*
X0240821Y0060724D01*
X0240758Y0060426D01*
X0240702Y0060126D01*
X0240654Y0059824D01*
X0240613Y0059522D01*
X0240580Y0059219D01*
X0240554Y0058915D01*
X0240535Y0058610D01*
X0240524Y0058305D01*
X0240520Y0058000D01*
X0240524Y0057695D01*
X0240535Y0057390D01*
X0240554Y0057085D01*
X0240580Y0056781D01*
X0240613Y0056478D01*
X0240654Y0056176D01*
X0240702Y0055874D01*
X0240758Y0055574D01*
X0240821Y0055276D01*
X0240891Y0054979D01*
X0240969Y0054684D01*
X0241053Y0054390D01*
X0241145Y0054099D01*
X0241244Y0053811D01*
X0241350Y0053525D01*
X0241463Y0053241D01*
X0241583Y0052960D01*
X0241709Y0052683D01*
X0241843Y0052408D01*
X0241983Y0052137D01*
X0242129Y0051870D01*
X0242283Y0051606D01*
X0242442Y0051346D01*
X0242608Y0051089D01*
X0242780Y0050837D01*
X0242958Y0050590D01*
X0243142Y0050346D01*
X0243332Y0050108D01*
X0243528Y0049874D01*
X0243730Y0049644D01*
X0243937Y0049420D01*
X0244149Y0049201D01*
X0244367Y0048988D01*
X0244590Y0048779D01*
X0244818Y0048576D01*
X0245051Y0048379D01*
X0245289Y0048188D01*
X0245531Y0048002D01*
X0245777Y0047822D01*
X0246028Y0047649D01*
X0246284Y0047481D01*
X0246543Y0047320D01*
X0246806Y0047166D01*
X0247073Y0047017D01*
X0247343Y0046876D01*
X0247616Y0046741D01*
X0247893Y0046613D01*
X0248173Y0046491D01*
X0248456Y0046377D01*
X0248742Y0046269D01*
X0249030Y0046168D01*
X0249320Y0046075D01*
X0249613Y0045988D01*
X0249908Y0045909D01*
X0250204Y0045837D01*
X0250502Y0045772D01*
X0250802Y0045715D01*
X0251103Y0045665D01*
X0251405Y0045622D01*
X0251708Y0045587D01*
X0252012Y0045559D01*
X0252317Y0045539D01*
X0252622Y0045526D01*
X0252927Y0045520D01*
X0253232Y0045522D01*
X0253537Y0045532D01*
X0253841Y0045548D01*
X0254146Y0045573D01*
X0254449Y0045604D01*
X0254752Y0045644D01*
X0255053Y0045690D01*
X0255354Y0045744D01*
X0255653Y0045805D01*
X0255950Y0045874D01*
X0256246Y0045949D01*
X0256539Y0046032D01*
X0256831Y0046122D01*
X0257120Y0046220D01*
X0257407Y0046324D01*
X0257691Y0046435D01*
X0257972Y0046553D01*
X0258251Y0046678D01*
X0258526Y0046810D01*
X0258798Y0046949D01*
X0259066Y0047094D01*
X0259331Y0047245D01*
X0259592Y0047403D01*
X0259849Y0047568D01*
X0260102Y0047738D01*
X0260351Y0047915D01*
X0260596Y0048098D01*
X0260835Y0048286D01*
X0261071Y0048481D01*
X0261301Y0048681D01*
X0261526Y0048887D01*
X0261747Y0049098D01*
X0261962Y0049314D01*
X0262171Y0049536D01*
X0262375Y0049763D01*
X0262574Y0049994D01*
X0262767Y0050231D01*
X0262954Y0050472D01*
X0262879Y0050528D01*
X0262693Y0050289D01*
X0262502Y0050054D01*
X0262305Y0049825D01*
X0262102Y0049600D01*
X0261894Y0049379D01*
X0261680Y0049165D01*
X0261462Y0048955D01*
X0261238Y0048751D01*
X0261010Y0048552D01*
X0260776Y0048359D01*
X0260538Y0048172D01*
X0260296Y0047991D01*
X0260049Y0047815D01*
X0259798Y0047646D01*
X0259542Y0047483D01*
X0259283Y0047326D01*
X0259020Y0047176D01*
X0258754Y0047032D01*
X0258484Y0046894D01*
X0258211Y0046763D01*
X0257935Y0046639D01*
X0257655Y0046522D01*
X0257373Y0046412D01*
X0257089Y0046308D01*
X0256802Y0046212D01*
X0256512Y0046122D01*
X0256221Y0046040D01*
X0255928Y0045965D01*
X0255632Y0045897D01*
X0255336Y0045836D01*
X0255038Y0045783D01*
X0254738Y0045737D01*
X0254438Y0045698D01*
X0254137Y0045666D01*
X0253835Y0045642D01*
X0253532Y0045625D01*
X0253230Y0045616D01*
X0252927Y0045614D01*
X0252624Y0045620D01*
X0252322Y0045633D01*
X0252019Y0045653D01*
X0251718Y0045681D01*
X0251417Y0045716D01*
X0251117Y0045758D01*
X0250818Y0045808D01*
X0250521Y0045865D01*
X0250225Y0045929D01*
X0249931Y0046000D01*
X0249638Y0046079D01*
X0249348Y0046165D01*
X0249059Y0046258D01*
X0248774Y0046357D01*
X0248490Y0046464D01*
X0248210Y0046578D01*
X0247932Y0046698D01*
X0247657Y0046826D01*
X0247385Y0046960D01*
X0247117Y0047100D01*
X0246852Y0047247D01*
X0246591Y0047401D01*
X0246334Y0047561D01*
X0246081Y0047727D01*
X0245832Y0047899D01*
X0245587Y0048077D01*
X0245346Y0048262D01*
X0245111Y0048452D01*
X0244880Y0048647D01*
X0244653Y0048849D01*
X0244432Y0049055D01*
X0244216Y0049268D01*
X0244005Y0049485D01*
X0243800Y0049707D01*
X0243600Y0049935D01*
X0243405Y0050167D01*
X0243217Y0050404D01*
X0243034Y0050646D01*
X0242857Y0050891D01*
X0242686Y0051142D01*
X0242522Y0051396D01*
X0242363Y0051654D01*
X0242211Y0051916D01*
X0242066Y0052181D01*
X0241927Y0052450D01*
X0241794Y0052723D01*
X0241669Y0052998D01*
X0241550Y0053277D01*
X0241438Y0053558D01*
X0241333Y0053842D01*
X0241234Y0054129D01*
X0241143Y0054418D01*
X0241059Y0054709D01*
X0240982Y0055002D01*
X0240913Y0055296D01*
X0240850Y0055593D01*
X0240795Y0055890D01*
X0240747Y0056189D01*
X0240706Y0056489D01*
X0240673Y0056791D01*
X0240647Y0057092D01*
X0240629Y0057395D01*
X0240618Y0057697D01*
X0240614Y0058000D01*
X0240618Y0058303D01*
X0240629Y0058605D01*
X0240647Y0058908D01*
X0240673Y0059209D01*
X0240706Y0059511D01*
X0240747Y0059811D01*
X0240795Y0060110D01*
X0240850Y0060407D01*
X0240913Y0060704D01*
X0240982Y0060998D01*
X0241059Y0061291D01*
X0241143Y0061582D01*
X0241234Y0061871D01*
X0241333Y0062158D01*
X0241438Y0062442D01*
X0241550Y0062723D01*
X0241669Y0063002D01*
X0241794Y0063277D01*
X0241927Y0063550D01*
X0242066Y0063819D01*
X0242211Y0064084D01*
X0242363Y0064346D01*
X0242522Y0064604D01*
X0242686Y0064858D01*
X0242857Y0065109D01*
X0243034Y0065354D01*
X0243217Y0065596D01*
X0243405Y0065833D01*
X0243600Y0066065D01*
X0243800Y0066293D01*
X0244005Y0066515D01*
X0244216Y0066732D01*
X0244432Y0066945D01*
X0244653Y0067151D01*
X0244880Y0067353D01*
X0245111Y0067548D01*
X0245346Y0067738D01*
X0245587Y0067923D01*
X0245832Y0068101D01*
X0246081Y0068273D01*
X0246334Y0068439D01*
X0246591Y0068599D01*
X0246852Y0068753D01*
X0247117Y0068900D01*
X0247385Y0069040D01*
X0247657Y0069174D01*
X0247932Y0069302D01*
X0248210Y0069422D01*
X0248490Y0069536D01*
X0248774Y0069643D01*
X0249059Y0069742D01*
X0249348Y0069835D01*
X0249638Y0069921D01*
X0249931Y0070000D01*
X0250225Y0070071D01*
X0250521Y0070135D01*
X0250818Y0070192D01*
X0251117Y0070242D01*
X0251417Y0070284D01*
X0251718Y0070319D01*
X0252019Y0070347D01*
X0252322Y0070367D01*
X0252624Y0070380D01*
X0252927Y0070386D01*
X0253230Y0070384D01*
X0253532Y0070375D01*
X0253835Y0070358D01*
X0254137Y0070334D01*
X0254438Y0070302D01*
X0254738Y0070263D01*
X0255038Y0070217D01*
X0255336Y0070164D01*
X0255632Y0070103D01*
X0255928Y0070035D01*
X0256221Y0069960D01*
X0256512Y0069878D01*
X0256802Y0069788D01*
X0257089Y0069692D01*
X0257373Y0069588D01*
X0257655Y0069478D01*
X0257935Y0069361D01*
X0258211Y0069237D01*
X0258484Y0069106D01*
X0258754Y0068968D01*
X0259020Y0068824D01*
X0259283Y0068674D01*
X0259542Y0068517D01*
X0259798Y0068354D01*
X0260049Y0068185D01*
X0260296Y0068009D01*
X0260538Y0067828D01*
X0260776Y0067641D01*
X0261010Y0067448D01*
X0261238Y0067249D01*
X0261462Y0067045D01*
X0261680Y0066835D01*
X0261894Y0066621D01*
X0262102Y0066400D01*
X0262305Y0066175D01*
X0262502Y0065946D01*
X0262693Y0065711D01*
X0262879Y0065472D01*
X0262804Y0065415D01*
X0262619Y0065653D01*
X0262429Y0065885D01*
X0262234Y0066114D01*
X0262033Y0066337D01*
X0261826Y0066555D01*
X0261614Y0066769D01*
X0261397Y0066977D01*
X0261175Y0067179D01*
X0260948Y0067376D01*
X0260717Y0067568D01*
X0260481Y0067754D01*
X0260240Y0067934D01*
X0259995Y0068108D01*
X0259746Y0068276D01*
X0259492Y0068438D01*
X0259235Y0068593D01*
X0258974Y0068742D01*
X0258710Y0068885D01*
X0258442Y0069022D01*
X0258171Y0069151D01*
X0257897Y0069274D01*
X0257620Y0069391D01*
X0257340Y0069500D01*
X0257057Y0069603D01*
X0256773Y0069699D01*
X0256485Y0069787D01*
X0256196Y0069869D01*
X0255905Y0069944D01*
X0255612Y0070011D01*
X0255318Y0070072D01*
X0255022Y0070125D01*
X0254725Y0070170D01*
X0254427Y0070209D01*
X0254128Y0070240D01*
X0253828Y0070264D01*
X0253528Y0070281D01*
X0253228Y0070290D01*
X0252927Y0070292D01*
X0252627Y0070286D01*
X0252326Y0070274D01*
X0252027Y0070253D01*
X0251727Y0070226D01*
X0251429Y0070191D01*
X0251131Y0070149D01*
X0250835Y0070100D01*
X0250540Y0070043D01*
X0250246Y0069979D01*
X0249954Y0069909D01*
X0249664Y0069831D01*
X0249375Y0069745D01*
X0249089Y0069653D01*
X0248805Y0069554D01*
X0248524Y0069448D01*
X0248246Y0069335D01*
X0247970Y0069216D01*
X0247697Y0069089D01*
X0247428Y0068956D01*
X0247162Y0068817D01*
X0246899Y0068671D01*
X0246640Y0068519D01*
X0246384Y0068360D01*
X0246133Y0068195D01*
X0245886Y0068024D01*
X0245643Y0067847D01*
X0245404Y0067664D01*
X0245170Y0067476D01*
X0244941Y0067282D01*
X0244717Y0067082D01*
X0244497Y0066877D01*
X0244283Y0066666D01*
X0244073Y0066450D01*
X0243869Y0066230D01*
X0243671Y0066004D01*
X0243478Y0065773D01*
X0243291Y0065538D01*
X0243109Y0065299D01*
X0242934Y0065055D01*
X0242764Y0064806D01*
X0242601Y0064554D01*
X0242444Y0064298D01*
X0242293Y0064038D01*
X0242149Y0063774D01*
X0242011Y0063507D01*
X0241879Y0063237D01*
X0241755Y0062964D01*
X0241637Y0062687D01*
X0241526Y0062408D01*
X0241421Y0062126D01*
X0241324Y0061842D01*
X0241233Y0061555D01*
X0241150Y0061266D01*
X0241074Y0060976D01*
X0241004Y0060683D01*
X0240942Y0060389D01*
X0240888Y0060094D01*
X0240840Y0059797D01*
X0240800Y0059499D01*
X0240767Y0059200D01*
X0240741Y0058901D01*
X0240723Y0058601D01*
X0240712Y0058301D01*
X0240708Y0058000D01*
X0240712Y0057699D01*
X0240723Y0057399D01*
X0240741Y0057099D01*
X0240767Y0056800D01*
X0240800Y0056501D01*
X0240840Y0056203D01*
X0240888Y0055906D01*
X0240942Y0055611D01*
X0241004Y0055317D01*
X0241074Y0055024D01*
X0241150Y0054734D01*
X0241233Y0054445D01*
X0241324Y0054158D01*
X0241421Y0053874D01*
X0241526Y0053592D01*
X0241637Y0053313D01*
X0241755Y0053036D01*
X0241879Y0052763D01*
X0242011Y0052493D01*
X0242149Y0052226D01*
X0242293Y0051962D01*
X0242444Y0051702D01*
X0242601Y0051446D01*
X0242764Y0051194D01*
X0242934Y0050945D01*
X0243109Y0050701D01*
X0243291Y0050462D01*
X0243478Y0050227D01*
X0243671Y0049996D01*
X0243869Y0049770D01*
X0244073Y0049550D01*
X0244283Y0049334D01*
X0244497Y0049123D01*
X0244717Y0048918D01*
X0244941Y0048718D01*
X0245170Y0048524D01*
X0245404Y0048336D01*
X0245643Y0048153D01*
X0245886Y0047976D01*
X0246133Y0047805D01*
X0246384Y0047640D01*
X0246640Y0047481D01*
X0246899Y0047329D01*
X0247162Y0047183D01*
X0247428Y0047044D01*
X0247697Y0046911D01*
X0247970Y0046784D01*
X0248246Y0046665D01*
X0248524Y0046552D01*
X0248805Y0046446D01*
X0249089Y0046347D01*
X0249375Y0046255D01*
X0249664Y0046169D01*
X0249954Y0046091D01*
X0250246Y0046021D01*
X0250540Y0045957D01*
X0250835Y0045900D01*
X0251131Y0045851D01*
X0251429Y0045809D01*
X0251727Y0045774D01*
X0252027Y0045747D01*
X0252326Y0045726D01*
X0252627Y0045714D01*
X0252927Y0045708D01*
X0253228Y0045710D01*
X0253528Y0045719D01*
X0253828Y0045736D01*
X0254128Y0045760D01*
X0254427Y0045791D01*
X0254725Y0045830D01*
X0255022Y0045875D01*
X0255318Y0045928D01*
X0255612Y0045989D01*
X0255905Y0046056D01*
X0256196Y0046131D01*
X0256485Y0046213D01*
X0256773Y0046301D01*
X0257057Y0046397D01*
X0257340Y0046500D01*
X0257620Y0046609D01*
X0257897Y0046726D01*
X0258171Y0046849D01*
X0258442Y0046978D01*
X0258710Y0047115D01*
X0258974Y0047258D01*
X0259235Y0047407D01*
X0259492Y0047562D01*
X0259746Y0047724D01*
X0259995Y0047892D01*
X0260240Y0048066D01*
X0260481Y0048246D01*
X0260717Y0048432D01*
X0260948Y0048624D01*
X0261175Y0048821D01*
X0261397Y0049023D01*
X0261614Y0049231D01*
X0261826Y0049445D01*
X0262033Y0049663D01*
X0262234Y0049886D01*
X0262429Y0050115D01*
X0262619Y0050347D01*
X0262804Y0050585D01*
X0262728Y0050641D01*
X0262546Y0050406D01*
X0262357Y0050175D01*
X0262163Y0049948D01*
X0261963Y0049726D01*
X0261758Y0049510D01*
X0261548Y0049298D01*
X0261333Y0049092D01*
X0261113Y0048891D01*
X0260887Y0048695D01*
X0260658Y0048505D01*
X0260423Y0048321D01*
X0260184Y0048142D01*
X0259941Y0047969D01*
X0259694Y0047803D01*
X0259442Y0047642D01*
X0259187Y0047488D01*
X0258928Y0047340D01*
X0258666Y0047198D01*
X0258400Y0047063D01*
X0258131Y0046934D01*
X0257859Y0046812D01*
X0257584Y0046696D01*
X0257306Y0046587D01*
X0257026Y0046486D01*
X0256743Y0046391D01*
X0256458Y0046303D01*
X0256171Y0046222D01*
X0255883Y0046147D01*
X0255592Y0046081D01*
X0255300Y0046021D01*
X0255006Y0045968D01*
X0254711Y0045923D01*
X0254416Y0045884D01*
X0254119Y0045853D01*
X0253822Y0045830D01*
X0253524Y0045813D01*
X0253226Y0045804D01*
X0252928Y0045802D01*
X0252629Y0045808D01*
X0252331Y0045820D01*
X0252034Y0045840D01*
X0251737Y0045868D01*
X0251441Y0045902D01*
X0251145Y0045944D01*
X0250851Y0045993D01*
X0250558Y0046049D01*
X0250267Y0046112D01*
X0249977Y0046183D01*
X0249689Y0046260D01*
X0249403Y0046344D01*
X0249119Y0046436D01*
X0248837Y0046534D01*
X0248558Y0046639D01*
X0248282Y0046751D01*
X0248008Y0046870D01*
X0247738Y0046995D01*
X0247470Y0047127D01*
X0247206Y0047266D01*
X0246945Y0047411D01*
X0246688Y0047562D01*
X0246435Y0047719D01*
X0246186Y0047883D01*
X0245940Y0048053D01*
X0245699Y0048228D01*
X0245462Y0048410D01*
X0245230Y0048597D01*
X0245003Y0048789D01*
X0244780Y0048988D01*
X0244562Y0049191D01*
X0244349Y0049400D01*
X0244141Y0049614D01*
X0243939Y0049834D01*
X0243742Y0050057D01*
X0243551Y0050286D01*
X0243365Y0050520D01*
X0243185Y0050757D01*
X0243011Y0050999D01*
X0242843Y0051246D01*
X0242681Y0051496D01*
X0242525Y0051750D01*
X0242375Y0052008D01*
X0242232Y0052270D01*
X0242095Y0052535D01*
X0241964Y0052803D01*
X0241841Y0053074D01*
X0241724Y0053349D01*
X0241613Y0053626D01*
X0241510Y0053906D01*
X0241413Y0054188D01*
X0241323Y0054472D01*
X0241241Y0054759D01*
X0241165Y0055047D01*
X0241096Y0055337D01*
X0241035Y0055629D01*
X0240980Y0055922D01*
X0240933Y0056217D01*
X0240893Y0056512D01*
X0240860Y0056809D01*
X0240835Y0057106D01*
X0240817Y0057404D01*
X0240806Y0057702D01*
X0240802Y0058000D01*
X0240806Y0058298D01*
X0240817Y0058596D01*
X0240835Y0058894D01*
X0240860Y0059191D01*
X0240893Y0059488D01*
X0240933Y0059783D01*
X0240980Y0060078D01*
X0241035Y0060371D01*
X0241096Y0060663D01*
X0241165Y0060953D01*
X0241241Y0061241D01*
X0241323Y0061528D01*
X0241413Y0061812D01*
X0241510Y0062094D01*
X0241613Y0062374D01*
X0241724Y0062651D01*
X0241841Y0062926D01*
X0241964Y0063197D01*
X0242095Y0063465D01*
X0242232Y0063730D01*
X0242375Y0063992D01*
X0242525Y0064250D01*
X0242681Y0064504D01*
X0242843Y0064754D01*
X0243011Y0065001D01*
X0243185Y0065243D01*
X0243365Y0065480D01*
X0243551Y0065714D01*
X0243742Y0065943D01*
X0243939Y0066166D01*
X0244141Y0066386D01*
X0244349Y0066600D01*
X0244562Y0066809D01*
X0244780Y0067012D01*
X0245003Y0067211D01*
X0245230Y0067403D01*
X0245462Y0067590D01*
X0245699Y0067772D01*
X0245940Y0067947D01*
X0246186Y0068117D01*
X0246435Y0068281D01*
X0246688Y0068438D01*
X0246945Y0068589D01*
X0247206Y0068734D01*
X0247470Y0068873D01*
X0247738Y0069005D01*
X0248008Y0069130D01*
X0248282Y0069249D01*
X0248558Y0069361D01*
X0248837Y0069466D01*
X0249119Y0069564D01*
X0249403Y0069656D01*
X0249689Y0069740D01*
X0249977Y0069817D01*
X0250267Y0069888D01*
X0250558Y0069951D01*
X0250851Y0070007D01*
X0251145Y0070056D01*
X0251441Y0070098D01*
X0251737Y0070132D01*
X0252034Y0070160D01*
X0252331Y0070180D01*
X0252629Y0070192D01*
X0252928Y0070198D01*
X0253226Y0070196D01*
X0253524Y0070187D01*
X0253822Y0070170D01*
X0254119Y0070147D01*
X0254416Y0070116D01*
X0254711Y0070077D01*
X0255006Y0070032D01*
X0255300Y0069979D01*
X0255592Y0069919D01*
X0255883Y0069853D01*
X0256171Y0069778D01*
X0256458Y0069697D01*
X0256743Y0069609D01*
X0257026Y0069514D01*
X0257306Y0069413D01*
X0257584Y0069304D01*
X0257859Y0069188D01*
X0258131Y0069066D01*
X0258400Y0068937D01*
X0258666Y0068802D01*
X0258928Y0068660D01*
X0259187Y0068512D01*
X0259442Y0068358D01*
X0259694Y0068197D01*
X0259941Y0068031D01*
X0260184Y0067858D01*
X0260423Y0067679D01*
X0260658Y0067495D01*
X0260887Y0067305D01*
X0261113Y0067109D01*
X0261333Y0066908D01*
X0261548Y0066702D01*
X0261758Y0066490D01*
X0261963Y0066274D01*
X0262163Y0066052D01*
X0262357Y0065825D01*
X0262546Y0065594D01*
X0262728Y0065359D01*
X0262653Y0065302D01*
X0262472Y0065536D01*
X0262285Y0065765D01*
X0262092Y0065990D01*
X0261894Y0066210D01*
X0261691Y0066425D01*
X0261482Y0066635D01*
X0261268Y0066840D01*
X0261050Y0067039D01*
X0260826Y0067233D01*
X0260598Y0067422D01*
X0260366Y0067605D01*
X0260129Y0067782D01*
X0259887Y0067953D01*
X0259642Y0068119D01*
X0259393Y0068278D01*
X0259139Y0068431D01*
X0258883Y0068578D01*
X0258622Y0068719D01*
X0258358Y0068853D01*
X0258091Y0068981D01*
X0257821Y0069102D01*
X0257549Y0069217D01*
X0257273Y0069325D01*
X0256995Y0069426D01*
X0256714Y0069520D01*
X0256432Y0069607D01*
X0256147Y0069688D01*
X0255860Y0069761D01*
X0255572Y0069828D01*
X0255282Y0069887D01*
X0254990Y0069939D01*
X0254698Y0069984D01*
X0254404Y0070022D01*
X0254110Y0070053D01*
X0253815Y0070077D01*
X0253520Y0070093D01*
X0253224Y0070102D01*
X0252928Y0070104D01*
X0252632Y0070098D01*
X0252336Y0070086D01*
X0252041Y0070066D01*
X0251746Y0070039D01*
X0251452Y0070005D01*
X0251159Y0069963D01*
X0250867Y0069915D01*
X0250577Y0069859D01*
X0250288Y0069796D01*
X0250000Y0069726D01*
X0249714Y0069649D01*
X0249430Y0069566D01*
X0249149Y0069475D01*
X0248869Y0069377D01*
X0248592Y0069273D01*
X0248318Y0069162D01*
X0248047Y0069044D01*
X0247778Y0068920D01*
X0247513Y0068789D01*
X0247251Y0068651D01*
X0246992Y0068508D01*
X0246737Y0068358D01*
X0246485Y0068201D01*
X0246238Y0068039D01*
X0245995Y0067871D01*
X0245755Y0067696D01*
X0245520Y0067516D01*
X0245290Y0067331D01*
X0245064Y0067139D01*
X0244843Y0066943D01*
X0244627Y0066741D01*
X0244416Y0066533D01*
X0244210Y0066321D01*
X0244009Y0066103D01*
X0243813Y0065881D01*
X0243623Y0065654D01*
X0243439Y0065423D01*
X0243261Y0065187D01*
X0243088Y0064947D01*
X0242921Y0064702D01*
X0242760Y0064454D01*
X0242605Y0064201D01*
X0242457Y0063945D01*
X0242315Y0063686D01*
X0242179Y0063423D01*
X0242049Y0063157D01*
X0241927Y0062888D01*
X0241810Y0062615D01*
X0241701Y0062340D01*
X0241598Y0062063D01*
X0241502Y0061783D01*
X0241413Y0061501D01*
X0241331Y0061216D01*
X0241256Y0060930D01*
X0241188Y0060642D01*
X0241127Y0060353D01*
X0241073Y0060062D01*
X0241026Y0059769D01*
X0240986Y0059476D01*
X0240954Y0059182D01*
X0240929Y0058887D01*
X0240910Y0058592D01*
X0240900Y0058296D01*
X0240896Y0058000D01*
X0240900Y0057704D01*
X0240910Y0057408D01*
X0240929Y0057113D01*
X0240954Y0056818D01*
X0240986Y0056524D01*
X0241026Y0056231D01*
X0241073Y0055938D01*
X0241127Y0055647D01*
X0241188Y0055358D01*
X0241256Y0055070D01*
X0241331Y0054784D01*
X0241413Y0054499D01*
X0241502Y0054217D01*
X0241598Y0053937D01*
X0241701Y0053660D01*
X0241810Y0053385D01*
X0241927Y0053112D01*
X0242049Y0052843D01*
X0242179Y0052577D01*
X0242315Y0052314D01*
X0242457Y0052055D01*
X0242605Y0051799D01*
X0242760Y0051546D01*
X0242921Y0051298D01*
X0243088Y0051053D01*
X0243261Y0050813D01*
X0243439Y0050577D01*
X0243623Y0050346D01*
X0243813Y0050119D01*
X0244009Y0049897D01*
X0244210Y0049679D01*
X0244416Y0049467D01*
X0244627Y0049259D01*
X0244843Y0049057D01*
X0245064Y0048861D01*
X0245290Y0048669D01*
X0245520Y0048484D01*
X0245755Y0048304D01*
X0245995Y0048129D01*
X0246238Y0047961D01*
X0246485Y0047799D01*
X0246737Y0047642D01*
X0246992Y0047492D01*
X0247251Y0047349D01*
X0247513Y0047211D01*
X0247778Y0047080D01*
X0248047Y0046956D01*
X0248318Y0046838D01*
X0248592Y0046727D01*
X0248869Y0046623D01*
X0249149Y0046525D01*
X0249430Y0046434D01*
X0249714Y0046351D01*
X0250000Y0046274D01*
X0250288Y0046204D01*
X0250577Y0046141D01*
X0250867Y0046085D01*
X0251159Y0046037D01*
X0251452Y0045995D01*
X0251746Y0045961D01*
X0252041Y0045934D01*
X0252336Y0045914D01*
X0252632Y0045902D01*
X0252928Y0045896D01*
X0253224Y0045898D01*
X0253520Y0045907D01*
X0253815Y0045923D01*
X0254110Y0045947D01*
X0254404Y0045978D01*
X0254698Y0046016D01*
X0254990Y0046061D01*
X0255282Y0046113D01*
X0255572Y0046172D01*
X0255860Y0046239D01*
X0256147Y0046312D01*
X0256432Y0046393D01*
X0256714Y0046480D01*
X0256995Y0046574D01*
X0257273Y0046675D01*
X0257549Y0046783D01*
X0257821Y0046898D01*
X0258091Y0047019D01*
X0258358Y0047147D01*
X0258622Y0047281D01*
X0258883Y0047422D01*
X0259139Y0047569D01*
X0259393Y0047722D01*
X0259642Y0047881D01*
X0259887Y0048047D01*
X0260129Y0048218D01*
X0260366Y0048395D01*
X0260598Y0048578D01*
X0260826Y0048767D01*
X0261050Y0048961D01*
X0261268Y0049160D01*
X0261482Y0049365D01*
X0261691Y0049575D01*
X0261894Y0049790D01*
X0262092Y0050010D01*
X0262285Y0050235D01*
X0262472Y0050464D01*
X0262653Y0050698D01*
X0263329Y0105809D02*
X0262609Y0105269D01*
X0262610Y0105270D02*
X0262429Y0105503D01*
X0262243Y0105731D01*
X0262051Y0105955D01*
X0261854Y0106174D01*
X0261652Y0106388D01*
X0261444Y0106597D01*
X0261231Y0106800D01*
X0261014Y0106999D01*
X0260791Y0107192D01*
X0260564Y0107380D01*
X0260333Y0107562D01*
X0260097Y0107739D01*
X0259856Y0107909D01*
X0259612Y0108074D01*
X0259364Y0108232D01*
X0259112Y0108385D01*
X0258856Y0108531D01*
X0258597Y0108671D01*
X0258334Y0108805D01*
X0258069Y0108932D01*
X0257800Y0109053D01*
X0257528Y0109167D01*
X0257254Y0109274D01*
X0256977Y0109375D01*
X0256698Y0109469D01*
X0256416Y0109556D01*
X0256133Y0109636D01*
X0255847Y0109709D01*
X0255560Y0109775D01*
X0255271Y0109834D01*
X0254981Y0109886D01*
X0254690Y0109931D01*
X0254398Y0109969D01*
X0254105Y0109999D01*
X0253811Y0110023D01*
X0253517Y0110039D01*
X0253223Y0110048D01*
X0252928Y0110050D01*
X0252633Y0110044D01*
X0252339Y0110032D01*
X0252045Y0110012D01*
X0251752Y0109985D01*
X0251459Y0109951D01*
X0251167Y0109910D01*
X0250877Y0109861D01*
X0250587Y0109806D01*
X0250300Y0109744D01*
X0250013Y0109674D01*
X0249729Y0109597D01*
X0249446Y0109514D01*
X0249166Y0109424D01*
X0248888Y0109327D01*
X0248612Y0109223D01*
X0248339Y0109112D01*
X0248069Y0108995D01*
X0247801Y0108871D01*
X0247537Y0108741D01*
X0247276Y0108604D01*
X0247019Y0108461D01*
X0246765Y0108311D01*
X0246514Y0108156D01*
X0246268Y0107994D01*
X0246026Y0107827D01*
X0245788Y0107653D01*
X0245554Y0107474D01*
X0245324Y0107289D01*
X0245100Y0107099D01*
X0244879Y0106903D01*
X0244664Y0106702D01*
X0244454Y0106495D01*
X0244249Y0106284D01*
X0244049Y0106067D01*
X0243854Y0105846D01*
X0243665Y0105620D01*
X0243482Y0105390D01*
X0243304Y0105155D01*
X0243132Y0104915D01*
X0242966Y0104672D01*
X0242806Y0104425D01*
X0242652Y0104174D01*
X0242504Y0103919D01*
X0242362Y0103660D01*
X0242227Y0103399D01*
X0242098Y0103134D01*
X0241976Y0102866D01*
X0241860Y0102595D01*
X0241751Y0102321D01*
X0241649Y0102045D01*
X0241554Y0101766D01*
X0241465Y0101485D01*
X0241383Y0101202D01*
X0241308Y0100917D01*
X0241241Y0100630D01*
X0241180Y0100342D01*
X0241126Y0100052D01*
X0241079Y0099761D01*
X0241040Y0099469D01*
X0241008Y0099177D01*
X0240982Y0098883D01*
X0240964Y0098589D01*
X0240954Y0098295D01*
X0240950Y0098000D01*
X0240954Y0097705D01*
X0240964Y0097411D01*
X0240982Y0097117D01*
X0241008Y0096823D01*
X0241040Y0096531D01*
X0241079Y0096239D01*
X0241126Y0095948D01*
X0241180Y0095658D01*
X0241241Y0095370D01*
X0241308Y0095083D01*
X0241383Y0094798D01*
X0241465Y0094515D01*
X0241554Y0094234D01*
X0241649Y0093955D01*
X0241751Y0093679D01*
X0241860Y0093405D01*
X0241976Y0093134D01*
X0242098Y0092866D01*
X0242227Y0092601D01*
X0242362Y0092340D01*
X0242504Y0092081D01*
X0242652Y0091826D01*
X0242806Y0091575D01*
X0242966Y0091328D01*
X0243132Y0091085D01*
X0243304Y0090845D01*
X0243482Y0090610D01*
X0243665Y0090380D01*
X0243854Y0090154D01*
X0244049Y0089933D01*
X0244249Y0089716D01*
X0244454Y0089505D01*
X0244664Y0089298D01*
X0244879Y0089097D01*
X0245100Y0088901D01*
X0245324Y0088711D01*
X0245554Y0088526D01*
X0245788Y0088347D01*
X0246026Y0088173D01*
X0246268Y0088006D01*
X0246514Y0087844D01*
X0246765Y0087689D01*
X0247019Y0087539D01*
X0247276Y0087396D01*
X0247537Y0087259D01*
X0247801Y0087129D01*
X0248069Y0087005D01*
X0248339Y0086888D01*
X0248612Y0086777D01*
X0248888Y0086673D01*
X0249166Y0086576D01*
X0249446Y0086486D01*
X0249729Y0086403D01*
X0250013Y0086326D01*
X0250300Y0086256D01*
X0250587Y0086194D01*
X0250877Y0086139D01*
X0251167Y0086090D01*
X0251459Y0086049D01*
X0251752Y0086015D01*
X0252045Y0085988D01*
X0252339Y0085968D01*
X0252633Y0085956D01*
X0252928Y0085950D01*
X0253223Y0085952D01*
X0253517Y0085961D01*
X0253811Y0085977D01*
X0254105Y0086001D01*
X0254398Y0086031D01*
X0254690Y0086069D01*
X0254981Y0086114D01*
X0255271Y0086166D01*
X0255560Y0086225D01*
X0255847Y0086291D01*
X0256133Y0086364D01*
X0256416Y0086444D01*
X0256698Y0086531D01*
X0256977Y0086625D01*
X0257254Y0086726D01*
X0257528Y0086833D01*
X0257800Y0086947D01*
X0258069Y0087068D01*
X0258334Y0087195D01*
X0258597Y0087329D01*
X0258856Y0087469D01*
X0259112Y0087615D01*
X0259364Y0087768D01*
X0259612Y0087926D01*
X0259856Y0088091D01*
X0260097Y0088261D01*
X0260333Y0088438D01*
X0260564Y0088620D01*
X0260791Y0088808D01*
X0261014Y0089001D01*
X0261231Y0089200D01*
X0261444Y0089403D01*
X0261652Y0089612D01*
X0261854Y0089826D01*
X0262051Y0090045D01*
X0262243Y0090269D01*
X0262429Y0090497D01*
X0262610Y0090730D01*
X0263329Y0090191D01*
X0263330Y0090190D01*
X0263136Y0089940D01*
X0262936Y0089694D01*
X0262730Y0089454D01*
X0262518Y0089219D01*
X0262300Y0088989D01*
X0262077Y0088764D01*
X0261849Y0088545D01*
X0261615Y0088331D01*
X0261376Y0088123D01*
X0261132Y0087921D01*
X0260883Y0087726D01*
X0260629Y0087536D01*
X0260371Y0087353D01*
X0260109Y0087176D01*
X0259842Y0087005D01*
X0259571Y0086841D01*
X0259296Y0086684D01*
X0259018Y0086533D01*
X0258735Y0086389D01*
X0258450Y0086253D01*
X0258161Y0086123D01*
X0257869Y0086000D01*
X0257574Y0085885D01*
X0257277Y0085777D01*
X0256976Y0085676D01*
X0256674Y0085582D01*
X0256369Y0085496D01*
X0256062Y0085417D01*
X0255754Y0085346D01*
X0255444Y0085283D01*
X0255132Y0085227D01*
X0254819Y0085178D01*
X0254505Y0085138D01*
X0254190Y0085105D01*
X0253874Y0085080D01*
X0253558Y0085062D01*
X0253242Y0085052D01*
X0252925Y0085050D01*
X0252608Y0085056D01*
X0252292Y0085069D01*
X0251976Y0085091D01*
X0251661Y0085119D01*
X0251346Y0085156D01*
X0251033Y0085200D01*
X0250720Y0085252D01*
X0250409Y0085312D01*
X0250100Y0085379D01*
X0249792Y0085454D01*
X0249486Y0085536D01*
X0249183Y0085625D01*
X0248881Y0085722D01*
X0248582Y0085827D01*
X0248286Y0085939D01*
X0247992Y0086057D01*
X0247702Y0086183D01*
X0247415Y0086316D01*
X0247130Y0086457D01*
X0246850Y0086604D01*
X0246573Y0086757D01*
X0246300Y0086918D01*
X0246031Y0087085D01*
X0245766Y0087259D01*
X0245506Y0087439D01*
X0245250Y0087625D01*
X0244999Y0087818D01*
X0244752Y0088016D01*
X0244510Y0088221D01*
X0244274Y0088431D01*
X0244042Y0088648D01*
X0243817Y0088870D01*
X0243596Y0089097D01*
X0243381Y0089329D01*
X0243172Y0089567D01*
X0242969Y0089810D01*
X0242771Y0090058D01*
X0242580Y0090310D01*
X0242395Y0090567D01*
X0242217Y0090829D01*
X0242045Y0091095D01*
X0241879Y0091364D01*
X0241720Y0091638D01*
X0241568Y0091916D01*
X0241423Y0092197D01*
X0241284Y0092482D01*
X0241153Y0092770D01*
X0241029Y0093062D01*
X0240911Y0093356D01*
X0240801Y0093653D01*
X0240699Y0093952D01*
X0240604Y0094254D01*
X0240516Y0094558D01*
X0240435Y0094865D01*
X0240362Y0095173D01*
X0240297Y0095483D01*
X0240239Y0095794D01*
X0240189Y0096107D01*
X0240147Y0096421D01*
X0240112Y0096735D01*
X0240085Y0097051D01*
X0240065Y0097367D01*
X0240054Y0097683D01*
X0240050Y0098000D01*
X0240054Y0098317D01*
X0240065Y0098633D01*
X0240085Y0098949D01*
X0240112Y0099265D01*
X0240147Y0099579D01*
X0240189Y0099893D01*
X0240239Y0100206D01*
X0240297Y0100517D01*
X0240362Y0100827D01*
X0240435Y0101135D01*
X0240516Y0101442D01*
X0240604Y0101746D01*
X0240699Y0102048D01*
X0240801Y0102347D01*
X0240911Y0102644D01*
X0241029Y0102938D01*
X0241153Y0103230D01*
X0241284Y0103518D01*
X0241423Y0103803D01*
X0241568Y0104084D01*
X0241720Y0104362D01*
X0241879Y0104636D01*
X0242045Y0104905D01*
X0242217Y0105171D01*
X0242395Y0105433D01*
X0242580Y0105690D01*
X0242771Y0105942D01*
X0242969Y0106190D01*
X0243172Y0106433D01*
X0243381Y0106671D01*
X0243596Y0106903D01*
X0243817Y0107130D01*
X0244042Y0107352D01*
X0244274Y0107569D01*
X0244510Y0107779D01*
X0244752Y0107984D01*
X0244999Y0108182D01*
X0245250Y0108375D01*
X0245506Y0108561D01*
X0245766Y0108741D01*
X0246031Y0108915D01*
X0246300Y0109082D01*
X0246573Y0109243D01*
X0246850Y0109396D01*
X0247130Y0109543D01*
X0247415Y0109684D01*
X0247702Y0109817D01*
X0247992Y0109943D01*
X0248286Y0110061D01*
X0248582Y0110173D01*
X0248881Y0110278D01*
X0249183Y0110375D01*
X0249486Y0110464D01*
X0249792Y0110546D01*
X0250100Y0110621D01*
X0250409Y0110688D01*
X0250720Y0110748D01*
X0251033Y0110800D01*
X0251346Y0110844D01*
X0251661Y0110881D01*
X0251976Y0110909D01*
X0252292Y0110931D01*
X0252608Y0110944D01*
X0252925Y0110950D01*
X0253242Y0110948D01*
X0253558Y0110938D01*
X0253874Y0110920D01*
X0254190Y0110895D01*
X0254505Y0110862D01*
X0254819Y0110822D01*
X0255132Y0110773D01*
X0255444Y0110717D01*
X0255754Y0110654D01*
X0256062Y0110583D01*
X0256369Y0110504D01*
X0256674Y0110418D01*
X0256976Y0110324D01*
X0257277Y0110223D01*
X0257574Y0110115D01*
X0257869Y0110000D01*
X0258161Y0109877D01*
X0258450Y0109747D01*
X0258735Y0109611D01*
X0259018Y0109467D01*
X0259296Y0109316D01*
X0259571Y0109159D01*
X0259842Y0108995D01*
X0260109Y0108824D01*
X0260371Y0108647D01*
X0260629Y0108464D01*
X0260883Y0108274D01*
X0261132Y0108079D01*
X0261376Y0107877D01*
X0261615Y0107669D01*
X0261849Y0107455D01*
X0262077Y0107236D01*
X0262300Y0107011D01*
X0262518Y0106781D01*
X0262730Y0106546D01*
X0262936Y0106306D01*
X0263136Y0106060D01*
X0263330Y0105810D01*
X0263255Y0105754D01*
X0263062Y0106002D01*
X0262863Y0106246D01*
X0262659Y0106484D01*
X0262449Y0106718D01*
X0262233Y0106946D01*
X0262011Y0107169D01*
X0261784Y0107387D01*
X0261552Y0107599D01*
X0261315Y0107805D01*
X0261073Y0108006D01*
X0260825Y0108200D01*
X0260574Y0108388D01*
X0260317Y0108570D01*
X0260057Y0108746D01*
X0259792Y0108915D01*
X0259523Y0109078D01*
X0259250Y0109234D01*
X0258974Y0109384D01*
X0258694Y0109526D01*
X0258410Y0109662D01*
X0258123Y0109791D01*
X0257833Y0109913D01*
X0257541Y0110027D01*
X0257245Y0110135D01*
X0256947Y0110235D01*
X0256647Y0110328D01*
X0256344Y0110413D01*
X0256040Y0110491D01*
X0255734Y0110562D01*
X0255426Y0110625D01*
X0255116Y0110681D01*
X0254806Y0110729D01*
X0254494Y0110769D01*
X0254181Y0110802D01*
X0253868Y0110827D01*
X0253554Y0110844D01*
X0253240Y0110854D01*
X0252925Y0110856D01*
X0252611Y0110850D01*
X0252297Y0110837D01*
X0251983Y0110816D01*
X0251670Y0110787D01*
X0251358Y0110751D01*
X0251047Y0110707D01*
X0250737Y0110655D01*
X0250428Y0110596D01*
X0250121Y0110529D01*
X0249815Y0110455D01*
X0249512Y0110374D01*
X0249210Y0110285D01*
X0248911Y0110188D01*
X0248614Y0110085D01*
X0248320Y0109974D01*
X0248029Y0109856D01*
X0247740Y0109731D01*
X0247455Y0109599D01*
X0247173Y0109460D01*
X0246895Y0109314D01*
X0246620Y0109161D01*
X0246349Y0109002D01*
X0246082Y0108836D01*
X0245819Y0108663D01*
X0245560Y0108485D01*
X0245306Y0108300D01*
X0245057Y0108108D01*
X0244812Y0107911D01*
X0244572Y0107708D01*
X0244337Y0107499D01*
X0244107Y0107284D01*
X0243883Y0107064D01*
X0243664Y0106839D01*
X0243451Y0106608D01*
X0243243Y0106372D01*
X0243041Y0106130D01*
X0242846Y0105885D01*
X0242656Y0105634D01*
X0242472Y0105379D01*
X0242295Y0105119D01*
X0242124Y0104855D01*
X0241960Y0104587D01*
X0241802Y0104315D01*
X0241651Y0104040D01*
X0241507Y0103760D01*
X0241369Y0103478D01*
X0241239Y0103192D01*
X0241115Y0102903D01*
X0240999Y0102610D01*
X0240890Y0102316D01*
X0240788Y0102018D01*
X0240694Y0101719D01*
X0240606Y0101416D01*
X0240526Y0101112D01*
X0240454Y0100807D01*
X0240389Y0100499D01*
X0240332Y0100190D01*
X0240282Y0099879D01*
X0240240Y0099568D01*
X0240205Y0099255D01*
X0240179Y0098942D01*
X0240159Y0098628D01*
X0240148Y0098314D01*
X0240144Y0098000D01*
X0240148Y0097686D01*
X0240159Y0097372D01*
X0240179Y0097058D01*
X0240205Y0096745D01*
X0240240Y0096432D01*
X0240282Y0096121D01*
X0240332Y0095810D01*
X0240389Y0095501D01*
X0240454Y0095193D01*
X0240526Y0094888D01*
X0240606Y0094584D01*
X0240694Y0094281D01*
X0240788Y0093982D01*
X0240890Y0093684D01*
X0240999Y0093390D01*
X0241115Y0093097D01*
X0241239Y0092808D01*
X0241369Y0092522D01*
X0241507Y0092240D01*
X0241651Y0091960D01*
X0241802Y0091685D01*
X0241960Y0091413D01*
X0242124Y0091145D01*
X0242295Y0090881D01*
X0242472Y0090621D01*
X0242656Y0090366D01*
X0242846Y0090115D01*
X0243041Y0089870D01*
X0243243Y0089628D01*
X0243451Y0089392D01*
X0243664Y0089161D01*
X0243883Y0088936D01*
X0244107Y0088716D01*
X0244337Y0088501D01*
X0244572Y0088292D01*
X0244812Y0088089D01*
X0245057Y0087892D01*
X0245306Y0087700D01*
X0245560Y0087515D01*
X0245819Y0087337D01*
X0246082Y0087164D01*
X0246349Y0086998D01*
X0246620Y0086839D01*
X0246895Y0086686D01*
X0247173Y0086540D01*
X0247455Y0086401D01*
X0247740Y0086269D01*
X0248029Y0086144D01*
X0248320Y0086026D01*
X0248614Y0085915D01*
X0248911Y0085812D01*
X0249210Y0085715D01*
X0249512Y0085626D01*
X0249815Y0085545D01*
X0250121Y0085471D01*
X0250428Y0085404D01*
X0250737Y0085345D01*
X0251047Y0085293D01*
X0251358Y0085249D01*
X0251670Y0085213D01*
X0251983Y0085184D01*
X0252297Y0085163D01*
X0252611Y0085150D01*
X0252925Y0085144D01*
X0253240Y0085146D01*
X0253554Y0085156D01*
X0253868Y0085173D01*
X0254181Y0085198D01*
X0254494Y0085231D01*
X0254806Y0085271D01*
X0255116Y0085319D01*
X0255426Y0085375D01*
X0255734Y0085438D01*
X0256040Y0085509D01*
X0256344Y0085587D01*
X0256647Y0085672D01*
X0256947Y0085765D01*
X0257245Y0085865D01*
X0257541Y0085973D01*
X0257833Y0086087D01*
X0258123Y0086209D01*
X0258410Y0086338D01*
X0258694Y0086474D01*
X0258974Y0086616D01*
X0259250Y0086766D01*
X0259523Y0086922D01*
X0259792Y0087085D01*
X0260057Y0087254D01*
X0260317Y0087430D01*
X0260574Y0087612D01*
X0260825Y0087800D01*
X0261073Y0087994D01*
X0261315Y0088195D01*
X0261552Y0088401D01*
X0261784Y0088613D01*
X0262011Y0088831D01*
X0262233Y0089054D01*
X0262449Y0089282D01*
X0262659Y0089516D01*
X0262863Y0089754D01*
X0263062Y0089998D01*
X0263255Y0090246D01*
X0263180Y0090303D01*
X0262988Y0090056D01*
X0262791Y0089814D01*
X0262588Y0089577D01*
X0262379Y0089346D01*
X0262165Y0089119D01*
X0261945Y0088897D01*
X0261720Y0088681D01*
X0261489Y0088471D01*
X0261254Y0088266D01*
X0261013Y0088067D01*
X0260768Y0087874D01*
X0260518Y0087688D01*
X0260264Y0087507D01*
X0260005Y0087332D01*
X0259742Y0087164D01*
X0259475Y0087003D01*
X0259204Y0086848D01*
X0258930Y0086699D01*
X0258652Y0086558D01*
X0258370Y0086423D01*
X0258086Y0086295D01*
X0257798Y0086174D01*
X0257507Y0086060D01*
X0257214Y0085954D01*
X0256918Y0085854D01*
X0256620Y0085762D01*
X0256320Y0085677D01*
X0256017Y0085600D01*
X0255713Y0085530D01*
X0255408Y0085467D01*
X0255101Y0085412D01*
X0254792Y0085364D01*
X0254483Y0085324D01*
X0254172Y0085292D01*
X0253861Y0085267D01*
X0253550Y0085250D01*
X0253238Y0085240D01*
X0252926Y0085238D01*
X0252614Y0085244D01*
X0252302Y0085257D01*
X0251991Y0085278D01*
X0251680Y0085306D01*
X0251370Y0085343D01*
X0251061Y0085386D01*
X0250753Y0085437D01*
X0250446Y0085496D01*
X0250142Y0085562D01*
X0249838Y0085636D01*
X0249537Y0085717D01*
X0249238Y0085805D01*
X0248941Y0085901D01*
X0248646Y0086004D01*
X0248354Y0086114D01*
X0248065Y0086231D01*
X0247778Y0086355D01*
X0247495Y0086486D01*
X0247215Y0086624D01*
X0246939Y0086769D01*
X0246666Y0086921D01*
X0246397Y0087079D01*
X0246132Y0087244D01*
X0245871Y0087415D01*
X0245615Y0087592D01*
X0245362Y0087776D01*
X0245115Y0087966D01*
X0244872Y0088161D01*
X0244633Y0088363D01*
X0244400Y0088571D01*
X0244172Y0088784D01*
X0243950Y0089002D01*
X0243732Y0089226D01*
X0243521Y0089455D01*
X0243315Y0089690D01*
X0243114Y0089929D01*
X0242920Y0090173D01*
X0242732Y0090422D01*
X0242549Y0090675D01*
X0242373Y0090933D01*
X0242204Y0091195D01*
X0242041Y0091461D01*
X0241884Y0091731D01*
X0241734Y0092005D01*
X0241591Y0092282D01*
X0241454Y0092562D01*
X0241325Y0092846D01*
X0241202Y0093133D01*
X0241087Y0093423D01*
X0240979Y0093716D01*
X0240877Y0094011D01*
X0240783Y0094309D01*
X0240697Y0094609D01*
X0240618Y0094910D01*
X0240546Y0095214D01*
X0240481Y0095519D01*
X0240424Y0095826D01*
X0240375Y0096134D01*
X0240333Y0096444D01*
X0240299Y0096754D01*
X0240272Y0097065D01*
X0240253Y0097376D01*
X0240242Y0097688D01*
X0240238Y0098000D01*
X0240242Y0098312D01*
X0240253Y0098624D01*
X0240272Y0098935D01*
X0240299Y0099246D01*
X0240333Y0099556D01*
X0240375Y0099866D01*
X0240424Y0100174D01*
X0240481Y0100481D01*
X0240546Y0100786D01*
X0240618Y0101090D01*
X0240697Y0101391D01*
X0240783Y0101691D01*
X0240877Y0101989D01*
X0240979Y0102284D01*
X0241087Y0102577D01*
X0241202Y0102867D01*
X0241325Y0103154D01*
X0241454Y0103438D01*
X0241591Y0103718D01*
X0241734Y0103995D01*
X0241884Y0104269D01*
X0242041Y0104539D01*
X0242204Y0104805D01*
X0242373Y0105067D01*
X0242549Y0105325D01*
X0242732Y0105578D01*
X0242920Y0105827D01*
X0243114Y0106071D01*
X0243315Y0106310D01*
X0243521Y0106545D01*
X0243732Y0106774D01*
X0243950Y0106998D01*
X0244172Y0107216D01*
X0244400Y0107429D01*
X0244633Y0107637D01*
X0244872Y0107839D01*
X0245115Y0108034D01*
X0245362Y0108224D01*
X0245615Y0108408D01*
X0245871Y0108585D01*
X0246132Y0108756D01*
X0246397Y0108921D01*
X0246666Y0109079D01*
X0246939Y0109231D01*
X0247215Y0109376D01*
X0247495Y0109514D01*
X0247778Y0109645D01*
X0248065Y0109769D01*
X0248354Y0109886D01*
X0248646Y0109996D01*
X0248941Y0110099D01*
X0249238Y0110195D01*
X0249537Y0110283D01*
X0249838Y0110364D01*
X0250142Y0110438D01*
X0250446Y0110504D01*
X0250753Y0110563D01*
X0251061Y0110614D01*
X0251370Y0110657D01*
X0251680Y0110694D01*
X0251991Y0110722D01*
X0252302Y0110743D01*
X0252614Y0110756D01*
X0252926Y0110762D01*
X0253238Y0110760D01*
X0253550Y0110750D01*
X0253861Y0110733D01*
X0254172Y0110708D01*
X0254483Y0110676D01*
X0254792Y0110636D01*
X0255101Y0110588D01*
X0255408Y0110533D01*
X0255713Y0110470D01*
X0256017Y0110400D01*
X0256320Y0110323D01*
X0256620Y0110238D01*
X0256918Y0110146D01*
X0257214Y0110046D01*
X0257507Y0109940D01*
X0257798Y0109826D01*
X0258086Y0109705D01*
X0258370Y0109577D01*
X0258652Y0109442D01*
X0258930Y0109301D01*
X0259204Y0109152D01*
X0259475Y0108997D01*
X0259742Y0108836D01*
X0260005Y0108668D01*
X0260264Y0108493D01*
X0260518Y0108312D01*
X0260768Y0108126D01*
X0261013Y0107933D01*
X0261254Y0107734D01*
X0261489Y0107529D01*
X0261720Y0107319D01*
X0261945Y0107103D01*
X0262165Y0106881D01*
X0262379Y0106654D01*
X0262588Y0106423D01*
X0262791Y0106186D01*
X0262988Y0105944D01*
X0263180Y0105697D01*
X0263104Y0105641D01*
X0262914Y0105886D01*
X0262719Y0106126D01*
X0262517Y0106361D01*
X0262310Y0106591D01*
X0262097Y0106816D01*
X0261879Y0107036D01*
X0261655Y0107250D01*
X0261426Y0107459D01*
X0261193Y0107662D01*
X0260954Y0107860D01*
X0260711Y0108051D01*
X0260462Y0108237D01*
X0260210Y0108416D01*
X0259953Y0108589D01*
X0259692Y0108756D01*
X0259427Y0108917D01*
X0259158Y0109070D01*
X0258886Y0109218D01*
X0258610Y0109358D01*
X0258330Y0109492D01*
X0258048Y0109619D01*
X0257762Y0109739D01*
X0257474Y0109852D01*
X0257183Y0109958D01*
X0256889Y0110056D01*
X0256593Y0110148D01*
X0256295Y0110232D01*
X0255995Y0110309D01*
X0255693Y0110378D01*
X0255390Y0110441D01*
X0255085Y0110495D01*
X0254779Y0110543D01*
X0254471Y0110582D01*
X0254163Y0110614D01*
X0253855Y0110639D01*
X0253545Y0110656D01*
X0253236Y0110666D01*
X0252926Y0110668D01*
X0252616Y0110662D01*
X0252307Y0110649D01*
X0251998Y0110628D01*
X0251689Y0110600D01*
X0251382Y0110564D01*
X0251075Y0110521D01*
X0250769Y0110470D01*
X0250465Y0110412D01*
X0250162Y0110346D01*
X0249861Y0110273D01*
X0249562Y0110193D01*
X0249265Y0110105D01*
X0248970Y0110010D01*
X0248678Y0109908D01*
X0248388Y0109799D01*
X0248101Y0109682D01*
X0247817Y0109559D01*
X0247536Y0109429D01*
X0247258Y0109292D01*
X0246984Y0109148D01*
X0246713Y0108998D01*
X0246446Y0108841D01*
X0246183Y0108677D01*
X0245924Y0108507D01*
X0245669Y0108331D01*
X0245418Y0108149D01*
X0245173Y0107960D01*
X0244931Y0107766D01*
X0244695Y0107566D01*
X0244464Y0107360D01*
X0244237Y0107148D01*
X0244016Y0106931D01*
X0243801Y0106709D01*
X0243590Y0106482D01*
X0243386Y0106249D01*
X0243187Y0106011D01*
X0242994Y0105769D01*
X0242807Y0105522D01*
X0242626Y0105271D01*
X0242452Y0105015D01*
X0242283Y0104755D01*
X0242121Y0104491D01*
X0241966Y0104223D01*
X0241817Y0103951D01*
X0241675Y0103676D01*
X0241539Y0103397D01*
X0241411Y0103116D01*
X0241289Y0102831D01*
X0241175Y0102543D01*
X0241067Y0102252D01*
X0240967Y0101959D01*
X0240873Y0101664D01*
X0240787Y0101366D01*
X0240709Y0101067D01*
X0240638Y0100765D01*
X0240574Y0100462D01*
X0240517Y0100158D01*
X0240468Y0099852D01*
X0240427Y0099545D01*
X0240393Y0099237D01*
X0240366Y0098928D01*
X0240347Y0098619D01*
X0240336Y0098310D01*
X0240332Y0098000D01*
X0240336Y0097690D01*
X0240347Y0097381D01*
X0240366Y0097072D01*
X0240393Y0096763D01*
X0240427Y0096455D01*
X0240468Y0096148D01*
X0240517Y0095842D01*
X0240574Y0095538D01*
X0240638Y0095235D01*
X0240709Y0094933D01*
X0240787Y0094634D01*
X0240873Y0094336D01*
X0240967Y0094041D01*
X0241067Y0093748D01*
X0241175Y0093457D01*
X0241289Y0093169D01*
X0241411Y0092884D01*
X0241539Y0092603D01*
X0241675Y0092324D01*
X0241817Y0092049D01*
X0241966Y0091777D01*
X0242121Y0091509D01*
X0242283Y0091245D01*
X0242452Y0090985D01*
X0242626Y0090729D01*
X0242807Y0090478D01*
X0242994Y0090231D01*
X0243187Y0089989D01*
X0243386Y0089751D01*
X0243590Y0089518D01*
X0243801Y0089291D01*
X0244016Y0089069D01*
X0244237Y0088852D01*
X0244464Y0088640D01*
X0244695Y0088434D01*
X0244931Y0088234D01*
X0245173Y0088040D01*
X0245418Y0087851D01*
X0245669Y0087669D01*
X0245924Y0087493D01*
X0246183Y0087323D01*
X0246446Y0087159D01*
X0246713Y0087002D01*
X0246984Y0086852D01*
X0247258Y0086708D01*
X0247536Y0086571D01*
X0247817Y0086441D01*
X0248101Y0086318D01*
X0248388Y0086201D01*
X0248678Y0086092D01*
X0248970Y0085990D01*
X0249265Y0085895D01*
X0249562Y0085807D01*
X0249861Y0085727D01*
X0250162Y0085654D01*
X0250465Y0085588D01*
X0250769Y0085530D01*
X0251075Y0085479D01*
X0251382Y0085436D01*
X0251689Y0085400D01*
X0251998Y0085372D01*
X0252307Y0085351D01*
X0252616Y0085338D01*
X0252926Y0085332D01*
X0253236Y0085334D01*
X0253545Y0085344D01*
X0253855Y0085361D01*
X0254163Y0085386D01*
X0254471Y0085418D01*
X0254779Y0085457D01*
X0255085Y0085505D01*
X0255390Y0085559D01*
X0255693Y0085622D01*
X0255995Y0085691D01*
X0256295Y0085768D01*
X0256593Y0085852D01*
X0256889Y0085944D01*
X0257183Y0086042D01*
X0257474Y0086148D01*
X0257762Y0086261D01*
X0258048Y0086381D01*
X0258330Y0086508D01*
X0258610Y0086642D01*
X0258886Y0086782D01*
X0259158Y0086930D01*
X0259427Y0087083D01*
X0259692Y0087244D01*
X0259953Y0087411D01*
X0260210Y0087584D01*
X0260462Y0087763D01*
X0260711Y0087949D01*
X0260954Y0088140D01*
X0261193Y0088338D01*
X0261426Y0088541D01*
X0261655Y0088750D01*
X0261879Y0088964D01*
X0262097Y0089184D01*
X0262310Y0089409D01*
X0262517Y0089639D01*
X0262719Y0089874D01*
X0262914Y0090114D01*
X0263104Y0090359D01*
X0263029Y0090416D01*
X0262841Y0090173D01*
X0262646Y0089934D01*
X0262446Y0089701D01*
X0262241Y0089473D01*
X0262029Y0089249D01*
X0261813Y0089031D01*
X0261591Y0088818D01*
X0261364Y0088611D01*
X0261132Y0088409D01*
X0260895Y0088213D01*
X0260653Y0088023D01*
X0260407Y0087839D01*
X0260156Y0087661D01*
X0259901Y0087489D01*
X0259642Y0087324D01*
X0259379Y0087164D01*
X0259112Y0087012D01*
X0258842Y0086865D01*
X0258568Y0086726D01*
X0258291Y0086593D01*
X0258010Y0086467D01*
X0257727Y0086348D01*
X0257440Y0086236D01*
X0257151Y0086131D01*
X0256860Y0086033D01*
X0256566Y0085942D01*
X0256270Y0085859D01*
X0255973Y0085782D01*
X0255673Y0085713D01*
X0255372Y0085652D01*
X0255069Y0085597D01*
X0254765Y0085551D01*
X0254460Y0085511D01*
X0254155Y0085479D01*
X0253848Y0085455D01*
X0253541Y0085438D01*
X0253234Y0085428D01*
X0252926Y0085426D01*
X0252619Y0085432D01*
X0252312Y0085445D01*
X0252005Y0085465D01*
X0251699Y0085494D01*
X0251393Y0085529D01*
X0251089Y0085572D01*
X0250786Y0085623D01*
X0250484Y0085680D01*
X0250183Y0085746D01*
X0249884Y0085818D01*
X0249588Y0085898D01*
X0249293Y0085985D01*
X0249000Y0086079D01*
X0248710Y0086181D01*
X0248422Y0086289D01*
X0248137Y0086404D01*
X0247855Y0086527D01*
X0247576Y0086656D01*
X0247300Y0086792D01*
X0247028Y0086935D01*
X0246759Y0087084D01*
X0246494Y0087240D01*
X0246233Y0087402D01*
X0245976Y0087571D01*
X0245723Y0087746D01*
X0245475Y0087927D01*
X0245231Y0088114D01*
X0244991Y0088307D01*
X0244757Y0088505D01*
X0244527Y0088710D01*
X0244302Y0088920D01*
X0244083Y0089135D01*
X0243869Y0089356D01*
X0243660Y0089581D01*
X0243457Y0089812D01*
X0243260Y0090048D01*
X0243068Y0090289D01*
X0242883Y0090534D01*
X0242703Y0090783D01*
X0242530Y0091037D01*
X0242363Y0091295D01*
X0242202Y0091557D01*
X0242048Y0091823D01*
X0241900Y0092093D01*
X0241759Y0092366D01*
X0241624Y0092643D01*
X0241497Y0092922D01*
X0241376Y0093205D01*
X0241262Y0093491D01*
X0241156Y0093779D01*
X0241056Y0094070D01*
X0240963Y0094363D01*
X0240878Y0094659D01*
X0240800Y0094956D01*
X0240729Y0095255D01*
X0240666Y0095556D01*
X0240610Y0095858D01*
X0240561Y0096162D01*
X0240520Y0096467D01*
X0240486Y0096772D01*
X0240460Y0097078D01*
X0240441Y0097385D01*
X0240430Y0097693D01*
X0240426Y0098000D01*
X0240430Y0098307D01*
X0240441Y0098615D01*
X0240460Y0098922D01*
X0240486Y0099228D01*
X0240520Y0099533D01*
X0240561Y0099838D01*
X0240610Y0100142D01*
X0240666Y0100444D01*
X0240729Y0100745D01*
X0240800Y0101044D01*
X0240878Y0101341D01*
X0240963Y0101637D01*
X0241056Y0101930D01*
X0241156Y0102221D01*
X0241262Y0102509D01*
X0241376Y0102795D01*
X0241497Y0103078D01*
X0241624Y0103357D01*
X0241759Y0103634D01*
X0241900Y0103907D01*
X0242048Y0104177D01*
X0242202Y0104443D01*
X0242363Y0104705D01*
X0242530Y0104963D01*
X0242703Y0105217D01*
X0242883Y0105466D01*
X0243068Y0105711D01*
X0243260Y0105952D01*
X0243457Y0106188D01*
X0243660Y0106419D01*
X0243869Y0106644D01*
X0244083Y0106865D01*
X0244302Y0107080D01*
X0244527Y0107290D01*
X0244757Y0107495D01*
X0244991Y0107693D01*
X0245231Y0107886D01*
X0245475Y0108073D01*
X0245723Y0108254D01*
X0245976Y0108429D01*
X0246233Y0108598D01*
X0246494Y0108760D01*
X0246759Y0108916D01*
X0247028Y0109065D01*
X0247300Y0109208D01*
X0247576Y0109344D01*
X0247855Y0109473D01*
X0248137Y0109596D01*
X0248422Y0109711D01*
X0248710Y0109819D01*
X0249000Y0109921D01*
X0249293Y0110015D01*
X0249588Y0110102D01*
X0249884Y0110182D01*
X0250183Y0110254D01*
X0250484Y0110320D01*
X0250786Y0110377D01*
X0251089Y0110428D01*
X0251393Y0110471D01*
X0251699Y0110506D01*
X0252005Y0110535D01*
X0252312Y0110555D01*
X0252619Y0110568D01*
X0252926Y0110574D01*
X0253234Y0110572D01*
X0253541Y0110562D01*
X0253848Y0110545D01*
X0254155Y0110521D01*
X0254460Y0110489D01*
X0254765Y0110449D01*
X0255069Y0110403D01*
X0255372Y0110348D01*
X0255673Y0110287D01*
X0255973Y0110218D01*
X0256270Y0110141D01*
X0256566Y0110058D01*
X0256860Y0109967D01*
X0257151Y0109869D01*
X0257440Y0109764D01*
X0257727Y0109652D01*
X0258010Y0109533D01*
X0258291Y0109407D01*
X0258568Y0109274D01*
X0258842Y0109135D01*
X0259112Y0108988D01*
X0259379Y0108836D01*
X0259642Y0108676D01*
X0259901Y0108511D01*
X0260156Y0108339D01*
X0260407Y0108161D01*
X0260653Y0107977D01*
X0260895Y0107787D01*
X0261132Y0107591D01*
X0261364Y0107389D01*
X0261591Y0107182D01*
X0261813Y0106969D01*
X0262029Y0106751D01*
X0262241Y0106527D01*
X0262446Y0106299D01*
X0262646Y0106066D01*
X0262841Y0105827D01*
X0263029Y0105584D01*
X0262954Y0105528D01*
X0262767Y0105769D01*
X0262574Y0106006D01*
X0262375Y0106237D01*
X0262171Y0106464D01*
X0261962Y0106686D01*
X0261747Y0106902D01*
X0261526Y0107113D01*
X0261301Y0107319D01*
X0261071Y0107519D01*
X0260835Y0107714D01*
X0260596Y0107902D01*
X0260351Y0108085D01*
X0260102Y0108262D01*
X0259849Y0108432D01*
X0259592Y0108597D01*
X0259331Y0108755D01*
X0259066Y0108906D01*
X0258798Y0109051D01*
X0258526Y0109190D01*
X0258251Y0109322D01*
X0257972Y0109447D01*
X0257691Y0109565D01*
X0257407Y0109676D01*
X0257120Y0109780D01*
X0256831Y0109878D01*
X0256539Y0109968D01*
X0256246Y0110051D01*
X0255950Y0110126D01*
X0255653Y0110195D01*
X0255354Y0110256D01*
X0255053Y0110310D01*
X0254752Y0110356D01*
X0254449Y0110396D01*
X0254146Y0110427D01*
X0253841Y0110452D01*
X0253537Y0110468D01*
X0253232Y0110478D01*
X0252927Y0110480D01*
X0252622Y0110474D01*
X0252317Y0110461D01*
X0252012Y0110441D01*
X0251708Y0110413D01*
X0251405Y0110378D01*
X0251103Y0110335D01*
X0250802Y0110285D01*
X0250502Y0110228D01*
X0250204Y0110163D01*
X0249908Y0110091D01*
X0249613Y0110012D01*
X0249320Y0109925D01*
X0249030Y0109832D01*
X0248742Y0109731D01*
X0248456Y0109623D01*
X0248173Y0109509D01*
X0247893Y0109387D01*
X0247616Y0109259D01*
X0247343Y0109124D01*
X0247073Y0108983D01*
X0246806Y0108834D01*
X0246543Y0108680D01*
X0246284Y0108519D01*
X0246028Y0108351D01*
X0245777Y0108178D01*
X0245531Y0107998D01*
X0245289Y0107812D01*
X0245051Y0107621D01*
X0244818Y0107424D01*
X0244590Y0107221D01*
X0244367Y0107012D01*
X0244149Y0106799D01*
X0243937Y0106580D01*
X0243730Y0106356D01*
X0243528Y0106126D01*
X0243332Y0105892D01*
X0243142Y0105654D01*
X0242958Y0105410D01*
X0242780Y0105163D01*
X0242608Y0104911D01*
X0242442Y0104654D01*
X0242283Y0104394D01*
X0242129Y0104130D01*
X0241983Y0103863D01*
X0241843Y0103592D01*
X0241709Y0103317D01*
X0241583Y0103040D01*
X0241463Y0102759D01*
X0241350Y0102475D01*
X0241244Y0102189D01*
X0241145Y0101901D01*
X0241053Y0101610D01*
X0240969Y0101316D01*
X0240891Y0101021D01*
X0240821Y0100724D01*
X0240758Y0100426D01*
X0240702Y0100126D01*
X0240654Y0099824D01*
X0240613Y0099522D01*
X0240580Y0099219D01*
X0240554Y0098915D01*
X0240535Y0098610D01*
X0240524Y0098305D01*
X0240520Y0098000D01*
X0240524Y0097695D01*
X0240535Y0097390D01*
X0240554Y0097085D01*
X0240580Y0096781D01*
X0240613Y0096478D01*
X0240654Y0096176D01*
X0240702Y0095874D01*
X0240758Y0095574D01*
X0240821Y0095276D01*
X0240891Y0094979D01*
X0240969Y0094684D01*
X0241053Y0094390D01*
X0241145Y0094099D01*
X0241244Y0093811D01*
X0241350Y0093525D01*
X0241463Y0093241D01*
X0241583Y0092960D01*
X0241709Y0092683D01*
X0241843Y0092408D01*
X0241983Y0092137D01*
X0242129Y0091870D01*
X0242283Y0091606D01*
X0242442Y0091346D01*
X0242608Y0091089D01*
X0242780Y0090837D01*
X0242958Y0090590D01*
X0243142Y0090346D01*
X0243332Y0090108D01*
X0243528Y0089874D01*
X0243730Y0089644D01*
X0243937Y0089420D01*
X0244149Y0089201D01*
X0244367Y0088988D01*
X0244590Y0088779D01*
X0244818Y0088576D01*
X0245051Y0088379D01*
X0245289Y0088188D01*
X0245531Y0088002D01*
X0245777Y0087822D01*
X0246028Y0087649D01*
X0246284Y0087481D01*
X0246543Y0087320D01*
X0246806Y0087166D01*
X0247073Y0087017D01*
X0247343Y0086876D01*
X0247616Y0086741D01*
X0247893Y0086613D01*
X0248173Y0086491D01*
X0248456Y0086377D01*
X0248742Y0086269D01*
X0249030Y0086168D01*
X0249320Y0086075D01*
X0249613Y0085988D01*
X0249908Y0085909D01*
X0250204Y0085837D01*
X0250502Y0085772D01*
X0250802Y0085715D01*
X0251103Y0085665D01*
X0251405Y0085622D01*
X0251708Y0085587D01*
X0252012Y0085559D01*
X0252317Y0085539D01*
X0252622Y0085526D01*
X0252927Y0085520D01*
X0253232Y0085522D01*
X0253537Y0085532D01*
X0253841Y0085548D01*
X0254146Y0085573D01*
X0254449Y0085604D01*
X0254752Y0085644D01*
X0255053Y0085690D01*
X0255354Y0085744D01*
X0255653Y0085805D01*
X0255950Y0085874D01*
X0256246Y0085949D01*
X0256539Y0086032D01*
X0256831Y0086122D01*
X0257120Y0086220D01*
X0257407Y0086324D01*
X0257691Y0086435D01*
X0257972Y0086553D01*
X0258251Y0086678D01*
X0258526Y0086810D01*
X0258798Y0086949D01*
X0259066Y0087094D01*
X0259331Y0087245D01*
X0259592Y0087403D01*
X0259849Y0087568D01*
X0260102Y0087738D01*
X0260351Y0087915D01*
X0260596Y0088098D01*
X0260835Y0088286D01*
X0261071Y0088481D01*
X0261301Y0088681D01*
X0261526Y0088887D01*
X0261747Y0089098D01*
X0261962Y0089314D01*
X0262171Y0089536D01*
X0262375Y0089763D01*
X0262574Y0089994D01*
X0262767Y0090231D01*
X0262954Y0090472D01*
X0262879Y0090528D01*
X0262693Y0090289D01*
X0262502Y0090054D01*
X0262305Y0089825D01*
X0262102Y0089600D01*
X0261894Y0089379D01*
X0261680Y0089165D01*
X0261462Y0088955D01*
X0261238Y0088751D01*
X0261010Y0088552D01*
X0260776Y0088359D01*
X0260538Y0088172D01*
X0260296Y0087991D01*
X0260049Y0087815D01*
X0259798Y0087646D01*
X0259542Y0087483D01*
X0259283Y0087326D01*
X0259020Y0087176D01*
X0258754Y0087032D01*
X0258484Y0086894D01*
X0258211Y0086763D01*
X0257935Y0086639D01*
X0257655Y0086522D01*
X0257373Y0086412D01*
X0257089Y0086308D01*
X0256802Y0086212D01*
X0256512Y0086122D01*
X0256221Y0086040D01*
X0255928Y0085965D01*
X0255632Y0085897D01*
X0255336Y0085836D01*
X0255038Y0085783D01*
X0254738Y0085737D01*
X0254438Y0085698D01*
X0254137Y0085666D01*
X0253835Y0085642D01*
X0253532Y0085625D01*
X0253230Y0085616D01*
X0252927Y0085614D01*
X0252624Y0085620D01*
X0252322Y0085633D01*
X0252019Y0085653D01*
X0251718Y0085681D01*
X0251417Y0085716D01*
X0251117Y0085758D01*
X0250818Y0085808D01*
X0250521Y0085865D01*
X0250225Y0085929D01*
X0249931Y0086000D01*
X0249638Y0086079D01*
X0249348Y0086165D01*
X0249059Y0086258D01*
X0248774Y0086357D01*
X0248490Y0086464D01*
X0248210Y0086578D01*
X0247932Y0086698D01*
X0247657Y0086826D01*
X0247385Y0086960D01*
X0247117Y0087100D01*
X0246852Y0087247D01*
X0246591Y0087401D01*
X0246334Y0087561D01*
X0246081Y0087727D01*
X0245832Y0087899D01*
X0245587Y0088077D01*
X0245346Y0088262D01*
X0245111Y0088452D01*
X0244880Y0088647D01*
X0244653Y0088849D01*
X0244432Y0089055D01*
X0244216Y0089268D01*
X0244005Y0089485D01*
X0243800Y0089707D01*
X0243600Y0089935D01*
X0243405Y0090167D01*
X0243217Y0090404D01*
X0243034Y0090646D01*
X0242857Y0090891D01*
X0242686Y0091142D01*
X0242522Y0091396D01*
X0242363Y0091654D01*
X0242211Y0091916D01*
X0242066Y0092181D01*
X0241927Y0092450D01*
X0241794Y0092723D01*
X0241669Y0092998D01*
X0241550Y0093277D01*
X0241438Y0093558D01*
X0241333Y0093842D01*
X0241234Y0094129D01*
X0241143Y0094418D01*
X0241059Y0094709D01*
X0240982Y0095002D01*
X0240913Y0095296D01*
X0240850Y0095593D01*
X0240795Y0095890D01*
X0240747Y0096189D01*
X0240706Y0096489D01*
X0240673Y0096791D01*
X0240647Y0097092D01*
X0240629Y0097395D01*
X0240618Y0097697D01*
X0240614Y0098000D01*
X0240618Y0098303D01*
X0240629Y0098605D01*
X0240647Y0098908D01*
X0240673Y0099209D01*
X0240706Y0099511D01*
X0240747Y0099811D01*
X0240795Y0100110D01*
X0240850Y0100407D01*
X0240913Y0100704D01*
X0240982Y0100998D01*
X0241059Y0101291D01*
X0241143Y0101582D01*
X0241234Y0101871D01*
X0241333Y0102158D01*
X0241438Y0102442D01*
X0241550Y0102723D01*
X0241669Y0103002D01*
X0241794Y0103277D01*
X0241927Y0103550D01*
X0242066Y0103819D01*
X0242211Y0104084D01*
X0242363Y0104346D01*
X0242522Y0104604D01*
X0242686Y0104858D01*
X0242857Y0105109D01*
X0243034Y0105354D01*
X0243217Y0105596D01*
X0243405Y0105833D01*
X0243600Y0106065D01*
X0243800Y0106293D01*
X0244005Y0106515D01*
X0244216Y0106732D01*
X0244432Y0106945D01*
X0244653Y0107151D01*
X0244880Y0107353D01*
X0245111Y0107548D01*
X0245346Y0107738D01*
X0245587Y0107923D01*
X0245832Y0108101D01*
X0246081Y0108273D01*
X0246334Y0108439D01*
X0246591Y0108599D01*
X0246852Y0108753D01*
X0247117Y0108900D01*
X0247385Y0109040D01*
X0247657Y0109174D01*
X0247932Y0109302D01*
X0248210Y0109422D01*
X0248490Y0109536D01*
X0248774Y0109643D01*
X0249059Y0109742D01*
X0249348Y0109835D01*
X0249638Y0109921D01*
X0249931Y0110000D01*
X0250225Y0110071D01*
X0250521Y0110135D01*
X0250818Y0110192D01*
X0251117Y0110242D01*
X0251417Y0110284D01*
X0251718Y0110319D01*
X0252019Y0110347D01*
X0252322Y0110367D01*
X0252624Y0110380D01*
X0252927Y0110386D01*
X0253230Y0110384D01*
X0253532Y0110375D01*
X0253835Y0110358D01*
X0254137Y0110334D01*
X0254438Y0110302D01*
X0254738Y0110263D01*
X0255038Y0110217D01*
X0255336Y0110164D01*
X0255632Y0110103D01*
X0255928Y0110035D01*
X0256221Y0109960D01*
X0256512Y0109878D01*
X0256802Y0109788D01*
X0257089Y0109692D01*
X0257373Y0109588D01*
X0257655Y0109478D01*
X0257935Y0109361D01*
X0258211Y0109237D01*
X0258484Y0109106D01*
X0258754Y0108968D01*
X0259020Y0108824D01*
X0259283Y0108674D01*
X0259542Y0108517D01*
X0259798Y0108354D01*
X0260049Y0108185D01*
X0260296Y0108009D01*
X0260538Y0107828D01*
X0260776Y0107641D01*
X0261010Y0107448D01*
X0261238Y0107249D01*
X0261462Y0107045D01*
X0261680Y0106835D01*
X0261894Y0106621D01*
X0262102Y0106400D01*
X0262305Y0106175D01*
X0262502Y0105946D01*
X0262693Y0105711D01*
X0262879Y0105472D01*
X0262804Y0105415D01*
X0262619Y0105653D01*
X0262429Y0105885D01*
X0262234Y0106114D01*
X0262033Y0106337D01*
X0261826Y0106555D01*
X0261614Y0106769D01*
X0261397Y0106977D01*
X0261175Y0107179D01*
X0260948Y0107376D01*
X0260717Y0107568D01*
X0260481Y0107754D01*
X0260240Y0107934D01*
X0259995Y0108108D01*
X0259746Y0108276D01*
X0259492Y0108438D01*
X0259235Y0108593D01*
X0258974Y0108742D01*
X0258710Y0108885D01*
X0258442Y0109022D01*
X0258171Y0109151D01*
X0257897Y0109274D01*
X0257620Y0109391D01*
X0257340Y0109500D01*
X0257057Y0109603D01*
X0256773Y0109699D01*
X0256485Y0109787D01*
X0256196Y0109869D01*
X0255905Y0109944D01*
X0255612Y0110011D01*
X0255318Y0110072D01*
X0255022Y0110125D01*
X0254725Y0110170D01*
X0254427Y0110209D01*
X0254128Y0110240D01*
X0253828Y0110264D01*
X0253528Y0110281D01*
X0253228Y0110290D01*
X0252927Y0110292D01*
X0252627Y0110286D01*
X0252326Y0110274D01*
X0252027Y0110253D01*
X0251727Y0110226D01*
X0251429Y0110191D01*
X0251131Y0110149D01*
X0250835Y0110100D01*
X0250540Y0110043D01*
X0250246Y0109979D01*
X0249954Y0109909D01*
X0249664Y0109831D01*
X0249375Y0109745D01*
X0249089Y0109653D01*
X0248805Y0109554D01*
X0248524Y0109448D01*
X0248246Y0109335D01*
X0247970Y0109216D01*
X0247697Y0109089D01*
X0247428Y0108956D01*
X0247162Y0108817D01*
X0246899Y0108671D01*
X0246640Y0108519D01*
X0246384Y0108360D01*
X0246133Y0108195D01*
X0245886Y0108024D01*
X0245643Y0107847D01*
X0245404Y0107664D01*
X0245170Y0107476D01*
X0244941Y0107282D01*
X0244717Y0107082D01*
X0244497Y0106877D01*
X0244283Y0106666D01*
X0244073Y0106450D01*
X0243869Y0106230D01*
X0243671Y0106004D01*
X0243478Y0105773D01*
X0243291Y0105538D01*
X0243109Y0105299D01*
X0242934Y0105055D01*
X0242764Y0104806D01*
X0242601Y0104554D01*
X0242444Y0104298D01*
X0242293Y0104038D01*
X0242149Y0103774D01*
X0242011Y0103507D01*
X0241879Y0103237D01*
X0241755Y0102964D01*
X0241637Y0102687D01*
X0241526Y0102408D01*
X0241421Y0102126D01*
X0241324Y0101842D01*
X0241233Y0101555D01*
X0241150Y0101266D01*
X0241074Y0100976D01*
X0241004Y0100683D01*
X0240942Y0100389D01*
X0240888Y0100094D01*
X0240840Y0099797D01*
X0240800Y0099499D01*
X0240767Y0099200D01*
X0240741Y0098901D01*
X0240723Y0098601D01*
X0240712Y0098301D01*
X0240708Y0098000D01*
X0240712Y0097699D01*
X0240723Y0097399D01*
X0240741Y0097099D01*
X0240767Y0096800D01*
X0240800Y0096501D01*
X0240840Y0096203D01*
X0240888Y0095906D01*
X0240942Y0095611D01*
X0241004Y0095317D01*
X0241074Y0095024D01*
X0241150Y0094734D01*
X0241233Y0094445D01*
X0241324Y0094158D01*
X0241421Y0093874D01*
X0241526Y0093592D01*
X0241637Y0093313D01*
X0241755Y0093036D01*
X0241879Y0092763D01*
X0242011Y0092493D01*
X0242149Y0092226D01*
X0242293Y0091962D01*
X0242444Y0091702D01*
X0242601Y0091446D01*
X0242764Y0091194D01*
X0242934Y0090945D01*
X0243109Y0090701D01*
X0243291Y0090462D01*
X0243478Y0090227D01*
X0243671Y0089996D01*
X0243869Y0089770D01*
X0244073Y0089550D01*
X0244283Y0089334D01*
X0244497Y0089123D01*
X0244717Y0088918D01*
X0244941Y0088718D01*
X0245170Y0088524D01*
X0245404Y0088336D01*
X0245643Y0088153D01*
X0245886Y0087976D01*
X0246133Y0087805D01*
X0246384Y0087640D01*
X0246640Y0087481D01*
X0246899Y0087329D01*
X0247162Y0087183D01*
X0247428Y0087044D01*
X0247697Y0086911D01*
X0247970Y0086784D01*
X0248246Y0086665D01*
X0248524Y0086552D01*
X0248805Y0086446D01*
X0249089Y0086347D01*
X0249375Y0086255D01*
X0249664Y0086169D01*
X0249954Y0086091D01*
X0250246Y0086021D01*
X0250540Y0085957D01*
X0250835Y0085900D01*
X0251131Y0085851D01*
X0251429Y0085809D01*
X0251727Y0085774D01*
X0252027Y0085747D01*
X0252326Y0085726D01*
X0252627Y0085714D01*
X0252927Y0085708D01*
X0253228Y0085710D01*
X0253528Y0085719D01*
X0253828Y0085736D01*
X0254128Y0085760D01*
X0254427Y0085791D01*
X0254725Y0085830D01*
X0255022Y0085875D01*
X0255318Y0085928D01*
X0255612Y0085989D01*
X0255905Y0086056D01*
X0256196Y0086131D01*
X0256485Y0086213D01*
X0256773Y0086301D01*
X0257057Y0086397D01*
X0257340Y0086500D01*
X0257620Y0086609D01*
X0257897Y0086726D01*
X0258171Y0086849D01*
X0258442Y0086978D01*
X0258710Y0087115D01*
X0258974Y0087258D01*
X0259235Y0087407D01*
X0259492Y0087562D01*
X0259746Y0087724D01*
X0259995Y0087892D01*
X0260240Y0088066D01*
X0260481Y0088246D01*
X0260717Y0088432D01*
X0260948Y0088624D01*
X0261175Y0088821D01*
X0261397Y0089023D01*
X0261614Y0089231D01*
X0261826Y0089445D01*
X0262033Y0089663D01*
X0262234Y0089886D01*
X0262429Y0090115D01*
X0262619Y0090347D01*
X0262804Y0090585D01*
X0262728Y0090641D01*
X0262546Y0090406D01*
X0262357Y0090175D01*
X0262163Y0089948D01*
X0261963Y0089726D01*
X0261758Y0089510D01*
X0261548Y0089298D01*
X0261333Y0089092D01*
X0261113Y0088891D01*
X0260887Y0088695D01*
X0260658Y0088505D01*
X0260423Y0088321D01*
X0260184Y0088142D01*
X0259941Y0087969D01*
X0259694Y0087803D01*
X0259442Y0087642D01*
X0259187Y0087488D01*
X0258928Y0087340D01*
X0258666Y0087198D01*
X0258400Y0087063D01*
X0258131Y0086934D01*
X0257859Y0086812D01*
X0257584Y0086696D01*
X0257306Y0086587D01*
X0257026Y0086486D01*
X0256743Y0086391D01*
X0256458Y0086303D01*
X0256171Y0086222D01*
X0255883Y0086147D01*
X0255592Y0086081D01*
X0255300Y0086021D01*
X0255006Y0085968D01*
X0254711Y0085923D01*
X0254416Y0085884D01*
X0254119Y0085853D01*
X0253822Y0085830D01*
X0253524Y0085813D01*
X0253226Y0085804D01*
X0252928Y0085802D01*
X0252629Y0085808D01*
X0252331Y0085820D01*
X0252034Y0085840D01*
X0251737Y0085868D01*
X0251441Y0085902D01*
X0251145Y0085944D01*
X0250851Y0085993D01*
X0250558Y0086049D01*
X0250267Y0086112D01*
X0249977Y0086183D01*
X0249689Y0086260D01*
X0249403Y0086344D01*
X0249119Y0086436D01*
X0248837Y0086534D01*
X0248558Y0086639D01*
X0248282Y0086751D01*
X0248008Y0086870D01*
X0247738Y0086995D01*
X0247470Y0087127D01*
X0247206Y0087266D01*
X0246945Y0087411D01*
X0246688Y0087562D01*
X0246435Y0087719D01*
X0246186Y0087883D01*
X0245940Y0088053D01*
X0245699Y0088228D01*
X0245462Y0088410D01*
X0245230Y0088597D01*
X0245003Y0088789D01*
X0244780Y0088988D01*
X0244562Y0089191D01*
X0244349Y0089400D01*
X0244141Y0089614D01*
X0243939Y0089834D01*
X0243742Y0090057D01*
X0243551Y0090286D01*
X0243365Y0090520D01*
X0243185Y0090757D01*
X0243011Y0090999D01*
X0242843Y0091246D01*
X0242681Y0091496D01*
X0242525Y0091750D01*
X0242375Y0092008D01*
X0242232Y0092270D01*
X0242095Y0092535D01*
X0241964Y0092803D01*
X0241841Y0093074D01*
X0241724Y0093349D01*
X0241613Y0093626D01*
X0241510Y0093906D01*
X0241413Y0094188D01*
X0241323Y0094472D01*
X0241241Y0094759D01*
X0241165Y0095047D01*
X0241096Y0095337D01*
X0241035Y0095629D01*
X0240980Y0095922D01*
X0240933Y0096217D01*
X0240893Y0096512D01*
X0240860Y0096809D01*
X0240835Y0097106D01*
X0240817Y0097404D01*
X0240806Y0097702D01*
X0240802Y0098000D01*
X0240806Y0098298D01*
X0240817Y0098596D01*
X0240835Y0098894D01*
X0240860Y0099191D01*
X0240893Y0099488D01*
X0240933Y0099783D01*
X0240980Y0100078D01*
X0241035Y0100371D01*
X0241096Y0100663D01*
X0241165Y0100953D01*
X0241241Y0101241D01*
X0241323Y0101528D01*
X0241413Y0101812D01*
X0241510Y0102094D01*
X0241613Y0102374D01*
X0241724Y0102651D01*
X0241841Y0102926D01*
X0241964Y0103197D01*
X0242095Y0103465D01*
X0242232Y0103730D01*
X0242375Y0103992D01*
X0242525Y0104250D01*
X0242681Y0104504D01*
X0242843Y0104754D01*
X0243011Y0105001D01*
X0243185Y0105243D01*
X0243365Y0105480D01*
X0243551Y0105714D01*
X0243742Y0105943D01*
X0243939Y0106166D01*
X0244141Y0106386D01*
X0244349Y0106600D01*
X0244562Y0106809D01*
X0244780Y0107012D01*
X0245003Y0107211D01*
X0245230Y0107403D01*
X0245462Y0107590D01*
X0245699Y0107772D01*
X0245940Y0107947D01*
X0246186Y0108117D01*
X0246435Y0108281D01*
X0246688Y0108438D01*
X0246945Y0108589D01*
X0247206Y0108734D01*
X0247470Y0108873D01*
X0247738Y0109005D01*
X0248008Y0109130D01*
X0248282Y0109249D01*
X0248558Y0109361D01*
X0248837Y0109466D01*
X0249119Y0109564D01*
X0249403Y0109656D01*
X0249689Y0109740D01*
X0249977Y0109817D01*
X0250267Y0109888D01*
X0250558Y0109951D01*
X0250851Y0110007D01*
X0251145Y0110056D01*
X0251441Y0110098D01*
X0251737Y0110132D01*
X0252034Y0110160D01*
X0252331Y0110180D01*
X0252629Y0110192D01*
X0252928Y0110198D01*
X0253226Y0110196D01*
X0253524Y0110187D01*
X0253822Y0110170D01*
X0254119Y0110147D01*
X0254416Y0110116D01*
X0254711Y0110077D01*
X0255006Y0110032D01*
X0255300Y0109979D01*
X0255592Y0109919D01*
X0255883Y0109853D01*
X0256171Y0109778D01*
X0256458Y0109697D01*
X0256743Y0109609D01*
X0257026Y0109514D01*
X0257306Y0109413D01*
X0257584Y0109304D01*
X0257859Y0109188D01*
X0258131Y0109066D01*
X0258400Y0108937D01*
X0258666Y0108802D01*
X0258928Y0108660D01*
X0259187Y0108512D01*
X0259442Y0108358D01*
X0259694Y0108197D01*
X0259941Y0108031D01*
X0260184Y0107858D01*
X0260423Y0107679D01*
X0260658Y0107495D01*
X0260887Y0107305D01*
X0261113Y0107109D01*
X0261333Y0106908D01*
X0261548Y0106702D01*
X0261758Y0106490D01*
X0261963Y0106274D01*
X0262163Y0106052D01*
X0262357Y0105825D01*
X0262546Y0105594D01*
X0262728Y0105359D01*
X0262653Y0105302D01*
X0262472Y0105536D01*
X0262285Y0105765D01*
X0262092Y0105990D01*
X0261894Y0106210D01*
X0261691Y0106425D01*
X0261482Y0106635D01*
X0261268Y0106840D01*
X0261050Y0107039D01*
X0260826Y0107233D01*
X0260598Y0107422D01*
X0260366Y0107605D01*
X0260129Y0107782D01*
X0259887Y0107953D01*
X0259642Y0108119D01*
X0259393Y0108278D01*
X0259139Y0108431D01*
X0258883Y0108578D01*
X0258622Y0108719D01*
X0258358Y0108853D01*
X0258091Y0108981D01*
X0257821Y0109102D01*
X0257549Y0109217D01*
X0257273Y0109325D01*
X0256995Y0109426D01*
X0256714Y0109520D01*
X0256432Y0109607D01*
X0256147Y0109688D01*
X0255860Y0109761D01*
X0255572Y0109828D01*
X0255282Y0109887D01*
X0254990Y0109939D01*
X0254698Y0109984D01*
X0254404Y0110022D01*
X0254110Y0110053D01*
X0253815Y0110077D01*
X0253520Y0110093D01*
X0253224Y0110102D01*
X0252928Y0110104D01*
X0252632Y0110098D01*
X0252336Y0110086D01*
X0252041Y0110066D01*
X0251746Y0110039D01*
X0251452Y0110005D01*
X0251159Y0109963D01*
X0250867Y0109915D01*
X0250577Y0109859D01*
X0250288Y0109796D01*
X0250000Y0109726D01*
X0249714Y0109649D01*
X0249430Y0109566D01*
X0249149Y0109475D01*
X0248869Y0109377D01*
X0248592Y0109273D01*
X0248318Y0109162D01*
X0248047Y0109044D01*
X0247778Y0108920D01*
X0247513Y0108789D01*
X0247251Y0108651D01*
X0246992Y0108508D01*
X0246737Y0108358D01*
X0246485Y0108201D01*
X0246238Y0108039D01*
X0245995Y0107871D01*
X0245755Y0107696D01*
X0245520Y0107516D01*
X0245290Y0107331D01*
X0245064Y0107139D01*
X0244843Y0106943D01*
X0244627Y0106741D01*
X0244416Y0106533D01*
X0244210Y0106321D01*
X0244009Y0106103D01*
X0243813Y0105881D01*
X0243623Y0105654D01*
X0243439Y0105423D01*
X0243261Y0105187D01*
X0243088Y0104947D01*
X0242921Y0104702D01*
X0242760Y0104454D01*
X0242605Y0104201D01*
X0242457Y0103945D01*
X0242315Y0103686D01*
X0242179Y0103423D01*
X0242049Y0103157D01*
X0241927Y0102888D01*
X0241810Y0102615D01*
X0241701Y0102340D01*
X0241598Y0102063D01*
X0241502Y0101783D01*
X0241413Y0101501D01*
X0241331Y0101216D01*
X0241256Y0100930D01*
X0241188Y0100642D01*
X0241127Y0100353D01*
X0241073Y0100062D01*
X0241026Y0099769D01*
X0240986Y0099476D01*
X0240954Y0099182D01*
X0240929Y0098887D01*
X0240910Y0098592D01*
X0240900Y0098296D01*
X0240896Y0098000D01*
X0240900Y0097704D01*
X0240910Y0097408D01*
X0240929Y0097113D01*
X0240954Y0096818D01*
X0240986Y0096524D01*
X0241026Y0096231D01*
X0241073Y0095938D01*
X0241127Y0095647D01*
X0241188Y0095358D01*
X0241256Y0095070D01*
X0241331Y0094784D01*
X0241413Y0094499D01*
X0241502Y0094217D01*
X0241598Y0093937D01*
X0241701Y0093660D01*
X0241810Y0093385D01*
X0241927Y0093112D01*
X0242049Y0092843D01*
X0242179Y0092577D01*
X0242315Y0092314D01*
X0242457Y0092055D01*
X0242605Y0091799D01*
X0242760Y0091546D01*
X0242921Y0091298D01*
X0243088Y0091053D01*
X0243261Y0090813D01*
X0243439Y0090577D01*
X0243623Y0090346D01*
X0243813Y0090119D01*
X0244009Y0089897D01*
X0244210Y0089679D01*
X0244416Y0089467D01*
X0244627Y0089259D01*
X0244843Y0089057D01*
X0245064Y0088861D01*
X0245290Y0088669D01*
X0245520Y0088484D01*
X0245755Y0088304D01*
X0245995Y0088129D01*
X0246238Y0087961D01*
X0246485Y0087799D01*
X0246737Y0087642D01*
X0246992Y0087492D01*
X0247251Y0087349D01*
X0247513Y0087211D01*
X0247778Y0087080D01*
X0248047Y0086956D01*
X0248318Y0086838D01*
X0248592Y0086727D01*
X0248869Y0086623D01*
X0249149Y0086525D01*
X0249430Y0086434D01*
X0249714Y0086351D01*
X0250000Y0086274D01*
X0250288Y0086204D01*
X0250577Y0086141D01*
X0250867Y0086085D01*
X0251159Y0086037D01*
X0251452Y0085995D01*
X0251746Y0085961D01*
X0252041Y0085934D01*
X0252336Y0085914D01*
X0252632Y0085902D01*
X0252928Y0085896D01*
X0253224Y0085898D01*
X0253520Y0085907D01*
X0253815Y0085923D01*
X0254110Y0085947D01*
X0254404Y0085978D01*
X0254698Y0086016D01*
X0254990Y0086061D01*
X0255282Y0086113D01*
X0255572Y0086172D01*
X0255860Y0086239D01*
X0256147Y0086312D01*
X0256432Y0086393D01*
X0256714Y0086480D01*
X0256995Y0086574D01*
X0257273Y0086675D01*
X0257549Y0086783D01*
X0257821Y0086898D01*
X0258091Y0087019D01*
X0258358Y0087147D01*
X0258622Y0087281D01*
X0258883Y0087422D01*
X0259139Y0087569D01*
X0259393Y0087722D01*
X0259642Y0087881D01*
X0259887Y0088047D01*
X0260129Y0088218D01*
X0260366Y0088395D01*
X0260598Y0088578D01*
X0260826Y0088767D01*
X0261050Y0088961D01*
X0261268Y0089160D01*
X0261482Y0089365D01*
X0261691Y0089575D01*
X0261894Y0089790D01*
X0262092Y0090010D01*
X0262285Y0090235D01*
X0262472Y0090464D01*
X0262653Y0090698D01*
X0263329Y0145809D02*
X0262609Y0145269D01*
X0262610Y0145270D02*
X0262429Y0145503D01*
X0262243Y0145731D01*
X0262051Y0145955D01*
X0261854Y0146174D01*
X0261652Y0146388D01*
X0261444Y0146597D01*
X0261231Y0146800D01*
X0261014Y0146999D01*
X0260791Y0147192D01*
X0260564Y0147380D01*
X0260333Y0147562D01*
X0260097Y0147739D01*
X0259856Y0147909D01*
X0259612Y0148074D01*
X0259364Y0148232D01*
X0259112Y0148385D01*
X0258856Y0148531D01*
X0258597Y0148671D01*
X0258334Y0148805D01*
X0258069Y0148932D01*
X0257800Y0149053D01*
X0257528Y0149167D01*
X0257254Y0149274D01*
X0256977Y0149375D01*
X0256698Y0149469D01*
X0256416Y0149556D01*
X0256133Y0149636D01*
X0255847Y0149709D01*
X0255560Y0149775D01*
X0255271Y0149834D01*
X0254981Y0149886D01*
X0254690Y0149931D01*
X0254398Y0149969D01*
X0254105Y0149999D01*
X0253811Y0150023D01*
X0253517Y0150039D01*
X0253223Y0150048D01*
X0252928Y0150050D01*
X0252633Y0150044D01*
X0252339Y0150032D01*
X0252045Y0150012D01*
X0251752Y0149985D01*
X0251459Y0149951D01*
X0251167Y0149910D01*
X0250877Y0149861D01*
X0250587Y0149806D01*
X0250300Y0149744D01*
X0250013Y0149674D01*
X0249729Y0149597D01*
X0249446Y0149514D01*
X0249166Y0149424D01*
X0248888Y0149327D01*
X0248612Y0149223D01*
X0248339Y0149112D01*
X0248069Y0148995D01*
X0247801Y0148871D01*
X0247537Y0148741D01*
X0247276Y0148604D01*
X0247019Y0148461D01*
X0246765Y0148311D01*
X0246514Y0148156D01*
X0246268Y0147994D01*
X0246026Y0147827D01*
X0245788Y0147653D01*
X0245554Y0147474D01*
X0245324Y0147289D01*
X0245100Y0147099D01*
X0244879Y0146903D01*
X0244664Y0146702D01*
X0244454Y0146495D01*
X0244249Y0146284D01*
X0244049Y0146067D01*
X0243854Y0145846D01*
X0243665Y0145620D01*
X0243482Y0145390D01*
X0243304Y0145155D01*
X0243132Y0144915D01*
X0242966Y0144672D01*
X0242806Y0144425D01*
X0242652Y0144174D01*
X0242504Y0143919D01*
X0242362Y0143660D01*
X0242227Y0143399D01*
X0242098Y0143134D01*
X0241976Y0142866D01*
X0241860Y0142595D01*
X0241751Y0142321D01*
X0241649Y0142045D01*
X0241554Y0141766D01*
X0241465Y0141485D01*
X0241383Y0141202D01*
X0241308Y0140917D01*
X0241241Y0140630D01*
X0241180Y0140342D01*
X0241126Y0140052D01*
X0241079Y0139761D01*
X0241040Y0139469D01*
X0241008Y0139177D01*
X0240982Y0138883D01*
X0240964Y0138589D01*
X0240954Y0138295D01*
X0240950Y0138000D01*
X0240954Y0137705D01*
X0240964Y0137411D01*
X0240982Y0137117D01*
X0241008Y0136823D01*
X0241040Y0136531D01*
X0241079Y0136239D01*
X0241126Y0135948D01*
X0241180Y0135658D01*
X0241241Y0135370D01*
X0241308Y0135083D01*
X0241383Y0134798D01*
X0241465Y0134515D01*
X0241554Y0134234D01*
X0241649Y0133955D01*
X0241751Y0133679D01*
X0241860Y0133405D01*
X0241976Y0133134D01*
X0242098Y0132866D01*
X0242227Y0132601D01*
X0242362Y0132340D01*
X0242504Y0132081D01*
X0242652Y0131826D01*
X0242806Y0131575D01*
X0242966Y0131328D01*
X0243132Y0131085D01*
X0243304Y0130845D01*
X0243482Y0130610D01*
X0243665Y0130380D01*
X0243854Y0130154D01*
X0244049Y0129933D01*
X0244249Y0129716D01*
X0244454Y0129505D01*
X0244664Y0129298D01*
X0244879Y0129097D01*
X0245100Y0128901D01*
X0245324Y0128711D01*
X0245554Y0128526D01*
X0245788Y0128347D01*
X0246026Y0128173D01*
X0246268Y0128006D01*
X0246514Y0127844D01*
X0246765Y0127689D01*
X0247019Y0127539D01*
X0247276Y0127396D01*
X0247537Y0127259D01*
X0247801Y0127129D01*
X0248069Y0127005D01*
X0248339Y0126888D01*
X0248612Y0126777D01*
X0248888Y0126673D01*
X0249166Y0126576D01*
X0249446Y0126486D01*
X0249729Y0126403D01*
X0250013Y0126326D01*
X0250300Y0126256D01*
X0250587Y0126194D01*
X0250877Y0126139D01*
X0251167Y0126090D01*
X0251459Y0126049D01*
X0251752Y0126015D01*
X0252045Y0125988D01*
X0252339Y0125968D01*
X0252633Y0125956D01*
X0252928Y0125950D01*
X0253223Y0125952D01*
X0253517Y0125961D01*
X0253811Y0125977D01*
X0254105Y0126001D01*
X0254398Y0126031D01*
X0254690Y0126069D01*
X0254981Y0126114D01*
X0255271Y0126166D01*
X0255560Y0126225D01*
X0255847Y0126291D01*
X0256133Y0126364D01*
X0256416Y0126444D01*
X0256698Y0126531D01*
X0256977Y0126625D01*
X0257254Y0126726D01*
X0257528Y0126833D01*
X0257800Y0126947D01*
X0258069Y0127068D01*
X0258334Y0127195D01*
X0258597Y0127329D01*
X0258856Y0127469D01*
X0259112Y0127615D01*
X0259364Y0127768D01*
X0259612Y0127926D01*
X0259856Y0128091D01*
X0260097Y0128261D01*
X0260333Y0128438D01*
X0260564Y0128620D01*
X0260791Y0128808D01*
X0261014Y0129001D01*
X0261231Y0129200D01*
X0261444Y0129403D01*
X0261652Y0129612D01*
X0261854Y0129826D01*
X0262051Y0130045D01*
X0262243Y0130269D01*
X0262429Y0130497D01*
X0262610Y0130730D01*
X0263329Y0130191D01*
X0263330Y0130190D01*
X0263136Y0129940D01*
X0262936Y0129694D01*
X0262730Y0129454D01*
X0262518Y0129219D01*
X0262300Y0128989D01*
X0262077Y0128764D01*
X0261849Y0128545D01*
X0261615Y0128331D01*
X0261376Y0128123D01*
X0261132Y0127921D01*
X0260883Y0127726D01*
X0260629Y0127536D01*
X0260371Y0127353D01*
X0260109Y0127176D01*
X0259842Y0127005D01*
X0259571Y0126841D01*
X0259296Y0126684D01*
X0259018Y0126533D01*
X0258735Y0126389D01*
X0258450Y0126253D01*
X0258161Y0126123D01*
X0257869Y0126000D01*
X0257574Y0125885D01*
X0257277Y0125777D01*
X0256976Y0125676D01*
X0256674Y0125582D01*
X0256369Y0125496D01*
X0256062Y0125417D01*
X0255754Y0125346D01*
X0255444Y0125283D01*
X0255132Y0125227D01*
X0254819Y0125178D01*
X0254505Y0125138D01*
X0254190Y0125105D01*
X0253874Y0125080D01*
X0253558Y0125062D01*
X0253242Y0125052D01*
X0252925Y0125050D01*
X0252608Y0125056D01*
X0252292Y0125069D01*
X0251976Y0125091D01*
X0251661Y0125119D01*
X0251346Y0125156D01*
X0251033Y0125200D01*
X0250720Y0125252D01*
X0250409Y0125312D01*
X0250100Y0125379D01*
X0249792Y0125454D01*
X0249486Y0125536D01*
X0249183Y0125625D01*
X0248881Y0125722D01*
X0248582Y0125827D01*
X0248286Y0125939D01*
X0247992Y0126057D01*
X0247702Y0126183D01*
X0247415Y0126316D01*
X0247130Y0126457D01*
X0246850Y0126604D01*
X0246573Y0126757D01*
X0246300Y0126918D01*
X0246031Y0127085D01*
X0245766Y0127259D01*
X0245506Y0127439D01*
X0245250Y0127625D01*
X0244999Y0127818D01*
X0244752Y0128016D01*
X0244510Y0128221D01*
X0244274Y0128431D01*
X0244042Y0128648D01*
X0243817Y0128870D01*
X0243596Y0129097D01*
X0243381Y0129329D01*
X0243172Y0129567D01*
X0242969Y0129810D01*
X0242771Y0130058D01*
X0242580Y0130310D01*
X0242395Y0130567D01*
X0242217Y0130829D01*
X0242045Y0131095D01*
X0241879Y0131364D01*
X0241720Y0131638D01*
X0241568Y0131916D01*
X0241423Y0132197D01*
X0241284Y0132482D01*
X0241153Y0132770D01*
X0241029Y0133062D01*
X0240911Y0133356D01*
X0240801Y0133653D01*
X0240699Y0133952D01*
X0240604Y0134254D01*
X0240516Y0134558D01*
X0240435Y0134865D01*
X0240362Y0135173D01*
X0240297Y0135483D01*
X0240239Y0135794D01*
X0240189Y0136107D01*
X0240147Y0136421D01*
X0240112Y0136735D01*
X0240085Y0137051D01*
X0240065Y0137367D01*
X0240054Y0137683D01*
X0240050Y0138000D01*
X0240054Y0138317D01*
X0240065Y0138633D01*
X0240085Y0138949D01*
X0240112Y0139265D01*
X0240147Y0139579D01*
X0240189Y0139893D01*
X0240239Y0140206D01*
X0240297Y0140517D01*
X0240362Y0140827D01*
X0240435Y0141135D01*
X0240516Y0141442D01*
X0240604Y0141746D01*
X0240699Y0142048D01*
X0240801Y0142347D01*
X0240911Y0142644D01*
X0241029Y0142938D01*
X0241153Y0143230D01*
X0241284Y0143518D01*
X0241423Y0143803D01*
X0241568Y0144084D01*
X0241720Y0144362D01*
X0241879Y0144636D01*
X0242045Y0144905D01*
X0242217Y0145171D01*
X0242395Y0145433D01*
X0242580Y0145690D01*
X0242771Y0145942D01*
X0242969Y0146190D01*
X0243172Y0146433D01*
X0243381Y0146671D01*
X0243596Y0146903D01*
X0243817Y0147130D01*
X0244042Y0147352D01*
X0244274Y0147569D01*
X0244510Y0147779D01*
X0244752Y0147984D01*
X0244999Y0148182D01*
X0245250Y0148375D01*
X0245506Y0148561D01*
X0245766Y0148741D01*
X0246031Y0148915D01*
X0246300Y0149082D01*
X0246573Y0149243D01*
X0246850Y0149396D01*
X0247130Y0149543D01*
X0247415Y0149684D01*
X0247702Y0149817D01*
X0247992Y0149943D01*
X0248286Y0150061D01*
X0248582Y0150173D01*
X0248881Y0150278D01*
X0249183Y0150375D01*
X0249486Y0150464D01*
X0249792Y0150546D01*
X0250100Y0150621D01*
X0250409Y0150688D01*
X0250720Y0150748D01*
X0251033Y0150800D01*
X0251346Y0150844D01*
X0251661Y0150881D01*
X0251976Y0150909D01*
X0252292Y0150931D01*
X0252608Y0150944D01*
X0252925Y0150950D01*
X0253242Y0150948D01*
X0253558Y0150938D01*
X0253874Y0150920D01*
X0254190Y0150895D01*
X0254505Y0150862D01*
X0254819Y0150822D01*
X0255132Y0150773D01*
X0255444Y0150717D01*
X0255754Y0150654D01*
X0256062Y0150583D01*
X0256369Y0150504D01*
X0256674Y0150418D01*
X0256976Y0150324D01*
X0257277Y0150223D01*
X0257574Y0150115D01*
X0257869Y0150000D01*
X0258161Y0149877D01*
X0258450Y0149747D01*
X0258735Y0149611D01*
X0259018Y0149467D01*
X0259296Y0149316D01*
X0259571Y0149159D01*
X0259842Y0148995D01*
X0260109Y0148824D01*
X0260371Y0148647D01*
X0260629Y0148464D01*
X0260883Y0148274D01*
X0261132Y0148079D01*
X0261376Y0147877D01*
X0261615Y0147669D01*
X0261849Y0147455D01*
X0262077Y0147236D01*
X0262300Y0147011D01*
X0262518Y0146781D01*
X0262730Y0146546D01*
X0262936Y0146306D01*
X0263136Y0146060D01*
X0263330Y0145810D01*
X0263255Y0145754D01*
X0263062Y0146002D01*
X0262863Y0146246D01*
X0262659Y0146484D01*
X0262449Y0146718D01*
X0262233Y0146946D01*
X0262011Y0147169D01*
X0261784Y0147387D01*
X0261552Y0147599D01*
X0261315Y0147805D01*
X0261073Y0148006D01*
X0260825Y0148200D01*
X0260574Y0148388D01*
X0260317Y0148570D01*
X0260057Y0148746D01*
X0259792Y0148915D01*
X0259523Y0149078D01*
X0259250Y0149234D01*
X0258974Y0149384D01*
X0258694Y0149526D01*
X0258410Y0149662D01*
X0258123Y0149791D01*
X0257833Y0149913D01*
X0257541Y0150027D01*
X0257245Y0150135D01*
X0256947Y0150235D01*
X0256647Y0150328D01*
X0256344Y0150413D01*
X0256040Y0150491D01*
X0255734Y0150562D01*
X0255426Y0150625D01*
X0255116Y0150681D01*
X0254806Y0150729D01*
X0254494Y0150769D01*
X0254181Y0150802D01*
X0253868Y0150827D01*
X0253554Y0150844D01*
X0253240Y0150854D01*
X0252925Y0150856D01*
X0252611Y0150850D01*
X0252297Y0150837D01*
X0251983Y0150816D01*
X0251670Y0150787D01*
X0251358Y0150751D01*
X0251047Y0150707D01*
X0250737Y0150655D01*
X0250428Y0150596D01*
X0250121Y0150529D01*
X0249815Y0150455D01*
X0249512Y0150374D01*
X0249210Y0150285D01*
X0248911Y0150188D01*
X0248614Y0150085D01*
X0248320Y0149974D01*
X0248029Y0149856D01*
X0247740Y0149731D01*
X0247455Y0149599D01*
X0247173Y0149460D01*
X0246895Y0149314D01*
X0246620Y0149161D01*
X0246349Y0149002D01*
X0246082Y0148836D01*
X0245819Y0148663D01*
X0245560Y0148485D01*
X0245306Y0148300D01*
X0245057Y0148108D01*
X0244812Y0147911D01*
X0244572Y0147708D01*
X0244337Y0147499D01*
X0244107Y0147284D01*
X0243883Y0147064D01*
X0243664Y0146839D01*
X0243451Y0146608D01*
X0243243Y0146372D01*
X0243041Y0146130D01*
X0242846Y0145885D01*
X0242656Y0145634D01*
X0242472Y0145379D01*
X0242295Y0145119D01*
X0242124Y0144855D01*
X0241960Y0144587D01*
X0241802Y0144315D01*
X0241651Y0144040D01*
X0241507Y0143760D01*
X0241369Y0143478D01*
X0241239Y0143192D01*
X0241115Y0142903D01*
X0240999Y0142610D01*
X0240890Y0142316D01*
X0240788Y0142018D01*
X0240694Y0141719D01*
X0240606Y0141416D01*
X0240526Y0141112D01*
X0240454Y0140807D01*
X0240389Y0140499D01*
X0240332Y0140190D01*
X0240282Y0139879D01*
X0240240Y0139568D01*
X0240205Y0139255D01*
X0240179Y0138942D01*
X0240159Y0138628D01*
X0240148Y0138314D01*
X0240144Y0138000D01*
X0240148Y0137686D01*
X0240159Y0137372D01*
X0240179Y0137058D01*
X0240205Y0136745D01*
X0240240Y0136432D01*
X0240282Y0136121D01*
X0240332Y0135810D01*
X0240389Y0135501D01*
X0240454Y0135193D01*
X0240526Y0134888D01*
X0240606Y0134584D01*
X0240694Y0134281D01*
X0240788Y0133982D01*
X0240890Y0133684D01*
X0240999Y0133390D01*
X0241115Y0133097D01*
X0241239Y0132808D01*
X0241369Y0132522D01*
X0241507Y0132240D01*
X0241651Y0131960D01*
X0241802Y0131685D01*
X0241960Y0131413D01*
X0242124Y0131145D01*
X0242295Y0130881D01*
X0242472Y0130621D01*
X0242656Y0130366D01*
X0242846Y0130115D01*
X0243041Y0129870D01*
X0243243Y0129628D01*
X0243451Y0129392D01*
X0243664Y0129161D01*
X0243883Y0128936D01*
X0244107Y0128716D01*
X0244337Y0128501D01*
X0244572Y0128292D01*
X0244812Y0128089D01*
X0245057Y0127892D01*
X0245306Y0127700D01*
X0245560Y0127515D01*
X0245819Y0127337D01*
X0246082Y0127164D01*
X0246349Y0126998D01*
X0246620Y0126839D01*
X0246895Y0126686D01*
X0247173Y0126540D01*
X0247455Y0126401D01*
X0247740Y0126269D01*
X0248029Y0126144D01*
X0248320Y0126026D01*
X0248614Y0125915D01*
X0248911Y0125812D01*
X0249210Y0125715D01*
X0249512Y0125626D01*
X0249815Y0125545D01*
X0250121Y0125471D01*
X0250428Y0125404D01*
X0250737Y0125345D01*
X0251047Y0125293D01*
X0251358Y0125249D01*
X0251670Y0125213D01*
X0251983Y0125184D01*
X0252297Y0125163D01*
X0252611Y0125150D01*
X0252925Y0125144D01*
X0253240Y0125146D01*
X0253554Y0125156D01*
X0253868Y0125173D01*
X0254181Y0125198D01*
X0254494Y0125231D01*
X0254806Y0125271D01*
X0255116Y0125319D01*
X0255426Y0125375D01*
X0255734Y0125438D01*
X0256040Y0125509D01*
X0256344Y0125587D01*
X0256647Y0125672D01*
X0256947Y0125765D01*
X0257245Y0125865D01*
X0257541Y0125973D01*
X0257833Y0126087D01*
X0258123Y0126209D01*
X0258410Y0126338D01*
X0258694Y0126474D01*
X0258974Y0126616D01*
X0259250Y0126766D01*
X0259523Y0126922D01*
X0259792Y0127085D01*
X0260057Y0127254D01*
X0260317Y0127430D01*
X0260574Y0127612D01*
X0260825Y0127800D01*
X0261073Y0127994D01*
X0261315Y0128195D01*
X0261552Y0128401D01*
X0261784Y0128613D01*
X0262011Y0128831D01*
X0262233Y0129054D01*
X0262449Y0129282D01*
X0262659Y0129516D01*
X0262863Y0129754D01*
X0263062Y0129998D01*
X0263255Y0130246D01*
X0263180Y0130303D01*
X0262988Y0130056D01*
X0262791Y0129814D01*
X0262588Y0129577D01*
X0262379Y0129346D01*
X0262165Y0129119D01*
X0261945Y0128897D01*
X0261720Y0128681D01*
X0261489Y0128471D01*
X0261254Y0128266D01*
X0261013Y0128067D01*
X0260768Y0127874D01*
X0260518Y0127688D01*
X0260264Y0127507D01*
X0260005Y0127332D01*
X0259742Y0127164D01*
X0259475Y0127003D01*
X0259204Y0126848D01*
X0258930Y0126699D01*
X0258652Y0126558D01*
X0258370Y0126423D01*
X0258086Y0126295D01*
X0257798Y0126174D01*
X0257507Y0126060D01*
X0257214Y0125954D01*
X0256918Y0125854D01*
X0256620Y0125762D01*
X0256320Y0125677D01*
X0256017Y0125600D01*
X0255713Y0125530D01*
X0255408Y0125467D01*
X0255101Y0125412D01*
X0254792Y0125364D01*
X0254483Y0125324D01*
X0254172Y0125292D01*
X0253861Y0125267D01*
X0253550Y0125250D01*
X0253238Y0125240D01*
X0252926Y0125238D01*
X0252614Y0125244D01*
X0252302Y0125257D01*
X0251991Y0125278D01*
X0251680Y0125306D01*
X0251370Y0125343D01*
X0251061Y0125386D01*
X0250753Y0125437D01*
X0250446Y0125496D01*
X0250142Y0125562D01*
X0249838Y0125636D01*
X0249537Y0125717D01*
X0249238Y0125805D01*
X0248941Y0125901D01*
X0248646Y0126004D01*
X0248354Y0126114D01*
X0248065Y0126231D01*
X0247778Y0126355D01*
X0247495Y0126486D01*
X0247215Y0126624D01*
X0246939Y0126769D01*
X0246666Y0126921D01*
X0246397Y0127079D01*
X0246132Y0127244D01*
X0245871Y0127415D01*
X0245615Y0127592D01*
X0245362Y0127776D01*
X0245115Y0127966D01*
X0244872Y0128161D01*
X0244633Y0128363D01*
X0244400Y0128571D01*
X0244172Y0128784D01*
X0243950Y0129002D01*
X0243732Y0129226D01*
X0243521Y0129455D01*
X0243315Y0129690D01*
X0243114Y0129929D01*
X0242920Y0130173D01*
X0242732Y0130422D01*
X0242549Y0130675D01*
X0242373Y0130933D01*
X0242204Y0131195D01*
X0242041Y0131461D01*
X0241884Y0131731D01*
X0241734Y0132005D01*
X0241591Y0132282D01*
X0241454Y0132562D01*
X0241325Y0132846D01*
X0241202Y0133133D01*
X0241087Y0133423D01*
X0240979Y0133716D01*
X0240877Y0134011D01*
X0240783Y0134309D01*
X0240697Y0134609D01*
X0240618Y0134910D01*
X0240546Y0135214D01*
X0240481Y0135519D01*
X0240424Y0135826D01*
X0240375Y0136134D01*
X0240333Y0136444D01*
X0240299Y0136754D01*
X0240272Y0137065D01*
X0240253Y0137376D01*
X0240242Y0137688D01*
X0240238Y0138000D01*
X0240242Y0138312D01*
X0240253Y0138624D01*
X0240272Y0138935D01*
X0240299Y0139246D01*
X0240333Y0139556D01*
X0240375Y0139866D01*
X0240424Y0140174D01*
X0240481Y0140481D01*
X0240546Y0140786D01*
X0240618Y0141090D01*
X0240697Y0141391D01*
X0240783Y0141691D01*
X0240877Y0141989D01*
X0240979Y0142284D01*
X0241087Y0142577D01*
X0241202Y0142867D01*
X0241325Y0143154D01*
X0241454Y0143438D01*
X0241591Y0143718D01*
X0241734Y0143995D01*
X0241884Y0144269D01*
X0242041Y0144539D01*
X0242204Y0144805D01*
X0242373Y0145067D01*
X0242549Y0145325D01*
X0242732Y0145578D01*
X0242920Y0145827D01*
X0243114Y0146071D01*
X0243315Y0146310D01*
X0243521Y0146545D01*
X0243732Y0146774D01*
X0243950Y0146998D01*
X0244172Y0147216D01*
X0244400Y0147429D01*
X0244633Y0147637D01*
X0244872Y0147839D01*
X0245115Y0148034D01*
X0245362Y0148224D01*
X0245615Y0148408D01*
X0245871Y0148585D01*
X0246132Y0148756D01*
X0246397Y0148921D01*
X0246666Y0149079D01*
X0246939Y0149231D01*
X0247215Y0149376D01*
X0247495Y0149514D01*
X0247778Y0149645D01*
X0248065Y0149769D01*
X0248354Y0149886D01*
X0248646Y0149996D01*
X0248941Y0150099D01*
X0249238Y0150195D01*
X0249537Y0150283D01*
X0249838Y0150364D01*
X0250142Y0150438D01*
X0250446Y0150504D01*
X0250753Y0150563D01*
X0251061Y0150614D01*
X0251370Y0150657D01*
X0251680Y0150694D01*
X0251991Y0150722D01*
X0252302Y0150743D01*
X0252614Y0150756D01*
X0252926Y0150762D01*
X0253238Y0150760D01*
X0253550Y0150750D01*
X0253861Y0150733D01*
X0254172Y0150708D01*
X0254483Y0150676D01*
X0254792Y0150636D01*
X0255101Y0150588D01*
X0255408Y0150533D01*
X0255713Y0150470D01*
X0256017Y0150400D01*
X0256320Y0150323D01*
X0256620Y0150238D01*
X0256918Y0150146D01*
X0257214Y0150046D01*
X0257507Y0149940D01*
X0257798Y0149826D01*
X0258086Y0149705D01*
X0258370Y0149577D01*
X0258652Y0149442D01*
X0258930Y0149301D01*
X0259204Y0149152D01*
X0259475Y0148997D01*
X0259742Y0148836D01*
X0260005Y0148668D01*
X0260264Y0148493D01*
X0260518Y0148312D01*
X0260768Y0148126D01*
X0261013Y0147933D01*
X0261254Y0147734D01*
X0261489Y0147529D01*
X0261720Y0147319D01*
X0261945Y0147103D01*
X0262165Y0146881D01*
X0262379Y0146654D01*
X0262588Y0146423D01*
X0262791Y0146186D01*
X0262988Y0145944D01*
X0263180Y0145697D01*
X0263104Y0145641D01*
X0262914Y0145886D01*
X0262719Y0146126D01*
X0262517Y0146361D01*
X0262310Y0146591D01*
X0262097Y0146816D01*
X0261879Y0147036D01*
X0261655Y0147250D01*
X0261426Y0147459D01*
X0261193Y0147662D01*
X0260954Y0147860D01*
X0260711Y0148051D01*
X0260462Y0148237D01*
X0260210Y0148416D01*
X0259953Y0148589D01*
X0259692Y0148756D01*
X0259427Y0148917D01*
X0259158Y0149070D01*
X0258886Y0149218D01*
X0258610Y0149358D01*
X0258330Y0149492D01*
X0258048Y0149619D01*
X0257762Y0149739D01*
X0257474Y0149852D01*
X0257183Y0149958D01*
X0256889Y0150056D01*
X0256593Y0150148D01*
X0256295Y0150232D01*
X0255995Y0150309D01*
X0255693Y0150378D01*
X0255390Y0150441D01*
X0255085Y0150495D01*
X0254779Y0150543D01*
X0254471Y0150582D01*
X0254163Y0150614D01*
X0253855Y0150639D01*
X0253545Y0150656D01*
X0253236Y0150666D01*
X0252926Y0150668D01*
X0252616Y0150662D01*
X0252307Y0150649D01*
X0251998Y0150628D01*
X0251689Y0150600D01*
X0251382Y0150564D01*
X0251075Y0150521D01*
X0250769Y0150470D01*
X0250465Y0150412D01*
X0250162Y0150346D01*
X0249861Y0150273D01*
X0249562Y0150193D01*
X0249265Y0150105D01*
X0248970Y0150010D01*
X0248678Y0149908D01*
X0248388Y0149799D01*
X0248101Y0149682D01*
X0247817Y0149559D01*
X0247536Y0149429D01*
X0247258Y0149292D01*
X0246984Y0149148D01*
X0246713Y0148998D01*
X0246446Y0148841D01*
X0246183Y0148677D01*
X0245924Y0148507D01*
X0245669Y0148331D01*
X0245418Y0148149D01*
X0245173Y0147960D01*
X0244931Y0147766D01*
X0244695Y0147566D01*
X0244464Y0147360D01*
X0244237Y0147148D01*
X0244016Y0146931D01*
X0243801Y0146709D01*
X0243590Y0146482D01*
X0243386Y0146249D01*
X0243187Y0146011D01*
X0242994Y0145769D01*
X0242807Y0145522D01*
X0242626Y0145271D01*
X0242452Y0145015D01*
X0242283Y0144755D01*
X0242121Y0144491D01*
X0241966Y0144223D01*
X0241817Y0143951D01*
X0241675Y0143676D01*
X0241539Y0143397D01*
X0241411Y0143116D01*
X0241289Y0142831D01*
X0241175Y0142543D01*
X0241067Y0142252D01*
X0240967Y0141959D01*
X0240873Y0141664D01*
X0240787Y0141366D01*
X0240709Y0141067D01*
X0240638Y0140765D01*
X0240574Y0140462D01*
X0240517Y0140158D01*
X0240468Y0139852D01*
X0240427Y0139545D01*
X0240393Y0139237D01*
X0240366Y0138928D01*
X0240347Y0138619D01*
X0240336Y0138310D01*
X0240332Y0138000D01*
X0240336Y0137690D01*
X0240347Y0137381D01*
X0240366Y0137072D01*
X0240393Y0136763D01*
X0240427Y0136455D01*
X0240468Y0136148D01*
X0240517Y0135842D01*
X0240574Y0135538D01*
X0240638Y0135235D01*
X0240709Y0134933D01*
X0240787Y0134634D01*
X0240873Y0134336D01*
X0240967Y0134041D01*
X0241067Y0133748D01*
X0241175Y0133457D01*
X0241289Y0133169D01*
X0241411Y0132884D01*
X0241539Y0132603D01*
X0241675Y0132324D01*
X0241817Y0132049D01*
X0241966Y0131777D01*
X0242121Y0131509D01*
X0242283Y0131245D01*
X0242452Y0130985D01*
X0242626Y0130729D01*
X0242807Y0130478D01*
X0242994Y0130231D01*
X0243187Y0129989D01*
X0243386Y0129751D01*
X0243590Y0129518D01*
X0243801Y0129291D01*
X0244016Y0129069D01*
X0244237Y0128852D01*
X0244464Y0128640D01*
X0244695Y0128434D01*
X0244931Y0128234D01*
X0245173Y0128040D01*
X0245418Y0127851D01*
X0245669Y0127669D01*
X0245924Y0127493D01*
X0246183Y0127323D01*
X0246446Y0127159D01*
X0246713Y0127002D01*
X0246984Y0126852D01*
X0247258Y0126708D01*
X0247536Y0126571D01*
X0247817Y0126441D01*
X0248101Y0126318D01*
X0248388Y0126201D01*
X0248678Y0126092D01*
X0248970Y0125990D01*
X0249265Y0125895D01*
X0249562Y0125807D01*
X0249861Y0125727D01*
X0250162Y0125654D01*
X0250465Y0125588D01*
X0250769Y0125530D01*
X0251075Y0125479D01*
X0251382Y0125436D01*
X0251689Y0125400D01*
X0251998Y0125372D01*
X0252307Y0125351D01*
X0252616Y0125338D01*
X0252926Y0125332D01*
X0253236Y0125334D01*
X0253545Y0125344D01*
X0253855Y0125361D01*
X0254163Y0125386D01*
X0254471Y0125418D01*
X0254779Y0125457D01*
X0255085Y0125505D01*
X0255390Y0125559D01*
X0255693Y0125622D01*
X0255995Y0125691D01*
X0256295Y0125768D01*
X0256593Y0125852D01*
X0256889Y0125944D01*
X0257183Y0126042D01*
X0257474Y0126148D01*
X0257762Y0126261D01*
X0258048Y0126381D01*
X0258330Y0126508D01*
X0258610Y0126642D01*
X0258886Y0126782D01*
X0259158Y0126930D01*
X0259427Y0127083D01*
X0259692Y0127244D01*
X0259953Y0127411D01*
X0260210Y0127584D01*
X0260462Y0127763D01*
X0260711Y0127949D01*
X0260954Y0128140D01*
X0261193Y0128338D01*
X0261426Y0128541D01*
X0261655Y0128750D01*
X0261879Y0128964D01*
X0262097Y0129184D01*
X0262310Y0129409D01*
X0262517Y0129639D01*
X0262719Y0129874D01*
X0262914Y0130114D01*
X0263104Y0130359D01*
X0263029Y0130416D01*
X0262841Y0130173D01*
X0262646Y0129934D01*
X0262446Y0129701D01*
X0262241Y0129473D01*
X0262029Y0129249D01*
X0261813Y0129031D01*
X0261591Y0128818D01*
X0261364Y0128611D01*
X0261132Y0128409D01*
X0260895Y0128213D01*
X0260653Y0128023D01*
X0260407Y0127839D01*
X0260156Y0127661D01*
X0259901Y0127489D01*
X0259642Y0127324D01*
X0259379Y0127164D01*
X0259112Y0127012D01*
X0258842Y0126865D01*
X0258568Y0126726D01*
X0258291Y0126593D01*
X0258010Y0126467D01*
X0257727Y0126348D01*
X0257440Y0126236D01*
X0257151Y0126131D01*
X0256860Y0126033D01*
X0256566Y0125942D01*
X0256270Y0125859D01*
X0255973Y0125782D01*
X0255673Y0125713D01*
X0255372Y0125652D01*
X0255069Y0125597D01*
X0254765Y0125551D01*
X0254460Y0125511D01*
X0254155Y0125479D01*
X0253848Y0125455D01*
X0253541Y0125438D01*
X0253234Y0125428D01*
X0252926Y0125426D01*
X0252619Y0125432D01*
X0252312Y0125445D01*
X0252005Y0125465D01*
X0251699Y0125494D01*
X0251393Y0125529D01*
X0251089Y0125572D01*
X0250786Y0125623D01*
X0250484Y0125680D01*
X0250183Y0125746D01*
X0249884Y0125818D01*
X0249588Y0125898D01*
X0249293Y0125985D01*
X0249000Y0126079D01*
X0248710Y0126181D01*
X0248422Y0126289D01*
X0248137Y0126404D01*
X0247855Y0126527D01*
X0247576Y0126656D01*
X0247300Y0126792D01*
X0247028Y0126935D01*
X0246759Y0127084D01*
X0246494Y0127240D01*
X0246233Y0127402D01*
X0245976Y0127571D01*
X0245723Y0127746D01*
X0245475Y0127927D01*
X0245231Y0128114D01*
X0244991Y0128307D01*
X0244757Y0128505D01*
X0244527Y0128710D01*
X0244302Y0128920D01*
X0244083Y0129135D01*
X0243869Y0129356D01*
X0243660Y0129581D01*
X0243457Y0129812D01*
X0243260Y0130048D01*
X0243068Y0130289D01*
X0242883Y0130534D01*
X0242703Y0130783D01*
X0242530Y0131037D01*
X0242363Y0131295D01*
X0242202Y0131557D01*
X0242048Y0131823D01*
X0241900Y0132093D01*
X0241759Y0132366D01*
X0241624Y0132643D01*
X0241497Y0132922D01*
X0241376Y0133205D01*
X0241262Y0133491D01*
X0241156Y0133779D01*
X0241056Y0134070D01*
X0240963Y0134363D01*
X0240878Y0134659D01*
X0240800Y0134956D01*
X0240729Y0135255D01*
X0240666Y0135556D01*
X0240610Y0135858D01*
X0240561Y0136162D01*
X0240520Y0136467D01*
X0240486Y0136772D01*
X0240460Y0137078D01*
X0240441Y0137385D01*
X0240430Y0137693D01*
X0240426Y0138000D01*
X0240430Y0138307D01*
X0240441Y0138615D01*
X0240460Y0138922D01*
X0240486Y0139228D01*
X0240520Y0139533D01*
X0240561Y0139838D01*
X0240610Y0140142D01*
X0240666Y0140444D01*
X0240729Y0140745D01*
X0240800Y0141044D01*
X0240878Y0141341D01*
X0240963Y0141637D01*
X0241056Y0141930D01*
X0241156Y0142221D01*
X0241262Y0142509D01*
X0241376Y0142795D01*
X0241497Y0143078D01*
X0241624Y0143357D01*
X0241759Y0143634D01*
X0241900Y0143907D01*
X0242048Y0144177D01*
X0242202Y0144443D01*
X0242363Y0144705D01*
X0242530Y0144963D01*
X0242703Y0145217D01*
X0242883Y0145466D01*
X0243068Y0145711D01*
X0243260Y0145952D01*
X0243457Y0146188D01*
X0243660Y0146419D01*
X0243869Y0146644D01*
X0244083Y0146865D01*
X0244302Y0147080D01*
X0244527Y0147290D01*
X0244757Y0147495D01*
X0244991Y0147693D01*
X0245231Y0147886D01*
X0245475Y0148073D01*
X0245723Y0148254D01*
X0245976Y0148429D01*
X0246233Y0148598D01*
X0246494Y0148760D01*
X0246759Y0148916D01*
X0247028Y0149065D01*
X0247300Y0149208D01*
X0247576Y0149344D01*
X0247855Y0149473D01*
X0248137Y0149596D01*
X0248422Y0149711D01*
X0248710Y0149819D01*
X0249000Y0149921D01*
X0249293Y0150015D01*
X0249588Y0150102D01*
X0249884Y0150182D01*
X0250183Y0150254D01*
X0250484Y0150320D01*
X0250786Y0150377D01*
X0251089Y0150428D01*
X0251393Y0150471D01*
X0251699Y0150506D01*
X0252005Y0150535D01*
X0252312Y0150555D01*
X0252619Y0150568D01*
X0252926Y0150574D01*
X0253234Y0150572D01*
X0253541Y0150562D01*
X0253848Y0150545D01*
X0254155Y0150521D01*
X0254460Y0150489D01*
X0254765Y0150449D01*
X0255069Y0150403D01*
X0255372Y0150348D01*
X0255673Y0150287D01*
X0255973Y0150218D01*
X0256270Y0150141D01*
X0256566Y0150058D01*
X0256860Y0149967D01*
X0257151Y0149869D01*
X0257440Y0149764D01*
X0257727Y0149652D01*
X0258010Y0149533D01*
X0258291Y0149407D01*
X0258568Y0149274D01*
X0258842Y0149135D01*
X0259112Y0148988D01*
X0259379Y0148836D01*
X0259642Y0148676D01*
X0259901Y0148511D01*
X0260156Y0148339D01*
X0260407Y0148161D01*
X0260653Y0147977D01*
X0260895Y0147787D01*
X0261132Y0147591D01*
X0261364Y0147389D01*
X0261591Y0147182D01*
X0261813Y0146969D01*
X0262029Y0146751D01*
X0262241Y0146527D01*
X0262446Y0146299D01*
X0262646Y0146066D01*
X0262841Y0145827D01*
X0263029Y0145584D01*
X0262954Y0145528D01*
X0262767Y0145769D01*
X0262574Y0146006D01*
X0262375Y0146237D01*
X0262171Y0146464D01*
X0261962Y0146686D01*
X0261747Y0146902D01*
X0261526Y0147113D01*
X0261301Y0147319D01*
X0261071Y0147519D01*
X0260835Y0147714D01*
X0260596Y0147902D01*
X0260351Y0148085D01*
X0260102Y0148262D01*
X0259849Y0148432D01*
X0259592Y0148597D01*
X0259331Y0148755D01*
X0259066Y0148906D01*
X0258798Y0149051D01*
X0258526Y0149190D01*
X0258251Y0149322D01*
X0257972Y0149447D01*
X0257691Y0149565D01*
X0257407Y0149676D01*
X0257120Y0149780D01*
X0256831Y0149878D01*
X0256539Y0149968D01*
X0256246Y0150051D01*
X0255950Y0150126D01*
X0255653Y0150195D01*
X0255354Y0150256D01*
X0255053Y0150310D01*
X0254752Y0150356D01*
X0254449Y0150396D01*
X0254146Y0150427D01*
X0253841Y0150452D01*
X0253537Y0150468D01*
X0253232Y0150478D01*
X0252927Y0150480D01*
X0252622Y0150474D01*
X0252317Y0150461D01*
X0252012Y0150441D01*
X0251708Y0150413D01*
X0251405Y0150378D01*
X0251103Y0150335D01*
X0250802Y0150285D01*
X0250502Y0150228D01*
X0250204Y0150163D01*
X0249908Y0150091D01*
X0249613Y0150012D01*
X0249320Y0149925D01*
X0249030Y0149832D01*
X0248742Y0149731D01*
X0248456Y0149623D01*
X0248173Y0149509D01*
X0247893Y0149387D01*
X0247616Y0149259D01*
X0247343Y0149124D01*
X0247073Y0148983D01*
X0246806Y0148834D01*
X0246543Y0148680D01*
X0246284Y0148519D01*
X0246028Y0148351D01*
X0245777Y0148178D01*
X0245531Y0147998D01*
X0245289Y0147812D01*
X0245051Y0147621D01*
X0244818Y0147424D01*
X0244590Y0147221D01*
X0244367Y0147012D01*
X0244149Y0146799D01*
X0243937Y0146580D01*
X0243730Y0146356D01*
X0243528Y0146126D01*
X0243332Y0145892D01*
X0243142Y0145654D01*
X0242958Y0145410D01*
X0242780Y0145163D01*
X0242608Y0144911D01*
X0242442Y0144654D01*
X0242283Y0144394D01*
X0242129Y0144130D01*
X0241983Y0143863D01*
X0241843Y0143592D01*
X0241709Y0143317D01*
X0241583Y0143040D01*
X0241463Y0142759D01*
X0241350Y0142475D01*
X0241244Y0142189D01*
X0241145Y0141901D01*
X0241053Y0141610D01*
X0240969Y0141316D01*
X0240891Y0141021D01*
X0240821Y0140724D01*
X0240758Y0140426D01*
X0240702Y0140126D01*
X0240654Y0139824D01*
X0240613Y0139522D01*
X0240580Y0139219D01*
X0240554Y0138915D01*
X0240535Y0138610D01*
X0240524Y0138305D01*
X0240520Y0138000D01*
X0240524Y0137695D01*
X0240535Y0137390D01*
X0240554Y0137085D01*
X0240580Y0136781D01*
X0240613Y0136478D01*
X0240654Y0136176D01*
X0240702Y0135874D01*
X0240758Y0135574D01*
X0240821Y0135276D01*
X0240891Y0134979D01*
X0240969Y0134684D01*
X0241053Y0134390D01*
X0241145Y0134099D01*
X0241244Y0133811D01*
X0241350Y0133525D01*
X0241463Y0133241D01*
X0241583Y0132960D01*
X0241709Y0132683D01*
X0241843Y0132408D01*
X0241983Y0132137D01*
X0242129Y0131870D01*
X0242283Y0131606D01*
X0242442Y0131346D01*
X0242608Y0131089D01*
X0242780Y0130837D01*
X0242958Y0130590D01*
X0243142Y0130346D01*
X0243332Y0130108D01*
X0243528Y0129874D01*
X0243730Y0129644D01*
X0243937Y0129420D01*
X0244149Y0129201D01*
X0244367Y0128988D01*
X0244590Y0128779D01*
X0244818Y0128576D01*
X0245051Y0128379D01*
X0245289Y0128188D01*
X0245531Y0128002D01*
X0245777Y0127822D01*
X0246028Y0127649D01*
X0246284Y0127481D01*
X0246543Y0127320D01*
X0246806Y0127166D01*
X0247073Y0127017D01*
X0247343Y0126876D01*
X0247616Y0126741D01*
X0247893Y0126613D01*
X0248173Y0126491D01*
X0248456Y0126377D01*
X0248742Y0126269D01*
X0249030Y0126168D01*
X0249320Y0126075D01*
X0249613Y0125988D01*
X0249908Y0125909D01*
X0250204Y0125837D01*
X0250502Y0125772D01*
X0250802Y0125715D01*
X0251103Y0125665D01*
X0251405Y0125622D01*
X0251708Y0125587D01*
X0252012Y0125559D01*
X0252317Y0125539D01*
X0252622Y0125526D01*
X0252927Y0125520D01*
X0253232Y0125522D01*
X0253537Y0125532D01*
X0253841Y0125548D01*
X0254146Y0125573D01*
X0254449Y0125604D01*
X0254752Y0125644D01*
X0255053Y0125690D01*
X0255354Y0125744D01*
X0255653Y0125805D01*
X0255950Y0125874D01*
X0256246Y0125949D01*
X0256539Y0126032D01*
X0256831Y0126122D01*
X0257120Y0126220D01*
X0257407Y0126324D01*
X0257691Y0126435D01*
X0257972Y0126553D01*
X0258251Y0126678D01*
X0258526Y0126810D01*
X0258798Y0126949D01*
X0259066Y0127094D01*
X0259331Y0127245D01*
X0259592Y0127403D01*
X0259849Y0127568D01*
X0260102Y0127738D01*
X0260351Y0127915D01*
X0260596Y0128098D01*
X0260835Y0128286D01*
X0261071Y0128481D01*
X0261301Y0128681D01*
X0261526Y0128887D01*
X0261747Y0129098D01*
X0261962Y0129314D01*
X0262171Y0129536D01*
X0262375Y0129763D01*
X0262574Y0129994D01*
X0262767Y0130231D01*
X0262954Y0130472D01*
X0262879Y0130528D01*
X0262693Y0130289D01*
X0262502Y0130054D01*
X0262305Y0129825D01*
X0262102Y0129600D01*
X0261894Y0129379D01*
X0261680Y0129165D01*
X0261462Y0128955D01*
X0261238Y0128751D01*
X0261010Y0128552D01*
X0260776Y0128359D01*
X0260538Y0128172D01*
X0260296Y0127991D01*
X0260049Y0127815D01*
X0259798Y0127646D01*
X0259542Y0127483D01*
X0259283Y0127326D01*
X0259020Y0127176D01*
X0258754Y0127032D01*
X0258484Y0126894D01*
X0258211Y0126763D01*
X0257935Y0126639D01*
X0257655Y0126522D01*
X0257373Y0126412D01*
X0257089Y0126308D01*
X0256802Y0126212D01*
X0256512Y0126122D01*
X0256221Y0126040D01*
X0255928Y0125965D01*
X0255632Y0125897D01*
X0255336Y0125836D01*
X0255038Y0125783D01*
X0254738Y0125737D01*
X0254438Y0125698D01*
X0254137Y0125666D01*
X0253835Y0125642D01*
X0253532Y0125625D01*
X0253230Y0125616D01*
X0252927Y0125614D01*
X0252624Y0125620D01*
X0252322Y0125633D01*
X0252019Y0125653D01*
X0251718Y0125681D01*
X0251417Y0125716D01*
X0251117Y0125758D01*
X0250818Y0125808D01*
X0250521Y0125865D01*
X0250225Y0125929D01*
X0249931Y0126000D01*
X0249638Y0126079D01*
X0249348Y0126165D01*
X0249059Y0126258D01*
X0248774Y0126357D01*
X0248490Y0126464D01*
X0248210Y0126578D01*
X0247932Y0126698D01*
X0247657Y0126826D01*
X0247385Y0126960D01*
X0247117Y0127100D01*
X0246852Y0127247D01*
X0246591Y0127401D01*
X0246334Y0127561D01*
X0246081Y0127727D01*
X0245832Y0127899D01*
X0245587Y0128077D01*
X0245346Y0128262D01*
X0245111Y0128452D01*
X0244880Y0128647D01*
X0244653Y0128849D01*
X0244432Y0129055D01*
X0244216Y0129268D01*
X0244005Y0129485D01*
X0243800Y0129707D01*
X0243600Y0129935D01*
X0243405Y0130167D01*
X0243217Y0130404D01*
X0243034Y0130646D01*
X0242857Y0130891D01*
X0242686Y0131142D01*
X0242522Y0131396D01*
X0242363Y0131654D01*
X0242211Y0131916D01*
X0242066Y0132181D01*
X0241927Y0132450D01*
X0241794Y0132723D01*
X0241669Y0132998D01*
X0241550Y0133277D01*
X0241438Y0133558D01*
X0241333Y0133842D01*
X0241234Y0134129D01*
X0241143Y0134418D01*
X0241059Y0134709D01*
X0240982Y0135002D01*
X0240913Y0135296D01*
X0240850Y0135593D01*
X0240795Y0135890D01*
X0240747Y0136189D01*
X0240706Y0136489D01*
X0240673Y0136791D01*
X0240647Y0137092D01*
X0240629Y0137395D01*
X0240618Y0137697D01*
X0240614Y0138000D01*
X0240618Y0138303D01*
X0240629Y0138605D01*
X0240647Y0138908D01*
X0240673Y0139209D01*
X0240706Y0139511D01*
X0240747Y0139811D01*
X0240795Y0140110D01*
X0240850Y0140407D01*
X0240913Y0140704D01*
X0240982Y0140998D01*
X0241059Y0141291D01*
X0241143Y0141582D01*
X0241234Y0141871D01*
X0241333Y0142158D01*
X0241438Y0142442D01*
X0241550Y0142723D01*
X0241669Y0143002D01*
X0241794Y0143277D01*
X0241927Y0143550D01*
X0242066Y0143819D01*
X0242211Y0144084D01*
X0242363Y0144346D01*
X0242522Y0144604D01*
X0242686Y0144858D01*
X0242857Y0145109D01*
X0243034Y0145354D01*
X0243217Y0145596D01*
X0243405Y0145833D01*
X0243600Y0146065D01*
X0243800Y0146293D01*
X0244005Y0146515D01*
X0244216Y0146732D01*
X0244432Y0146945D01*
X0244653Y0147151D01*
X0244880Y0147353D01*
X0245111Y0147548D01*
X0245346Y0147738D01*
X0245587Y0147923D01*
X0245832Y0148101D01*
X0246081Y0148273D01*
X0246334Y0148439D01*
X0246591Y0148599D01*
X0246852Y0148753D01*
X0247117Y0148900D01*
X0247385Y0149040D01*
X0247657Y0149174D01*
X0247932Y0149302D01*
X0248210Y0149422D01*
X0248490Y0149536D01*
X0248774Y0149643D01*
X0249059Y0149742D01*
X0249348Y0149835D01*
X0249638Y0149921D01*
X0249931Y0150000D01*
X0250225Y0150071D01*
X0250521Y0150135D01*
X0250818Y0150192D01*
X0251117Y0150242D01*
X0251417Y0150284D01*
X0251718Y0150319D01*
X0252019Y0150347D01*
X0252322Y0150367D01*
X0252624Y0150380D01*
X0252927Y0150386D01*
X0253230Y0150384D01*
X0253532Y0150375D01*
X0253835Y0150358D01*
X0254137Y0150334D01*
X0254438Y0150302D01*
X0254738Y0150263D01*
X0255038Y0150217D01*
X0255336Y0150164D01*
X0255632Y0150103D01*
X0255928Y0150035D01*
X0256221Y0149960D01*
X0256512Y0149878D01*
X0256802Y0149788D01*
X0257089Y0149692D01*
X0257373Y0149588D01*
X0257655Y0149478D01*
X0257935Y0149361D01*
X0258211Y0149237D01*
X0258484Y0149106D01*
X0258754Y0148968D01*
X0259020Y0148824D01*
X0259283Y0148674D01*
X0259542Y0148517D01*
X0259798Y0148354D01*
X0260049Y0148185D01*
X0260296Y0148009D01*
X0260538Y0147828D01*
X0260776Y0147641D01*
X0261010Y0147448D01*
X0261238Y0147249D01*
X0261462Y0147045D01*
X0261680Y0146835D01*
X0261894Y0146621D01*
X0262102Y0146400D01*
X0262305Y0146175D01*
X0262502Y0145946D01*
X0262693Y0145711D01*
X0262879Y0145472D01*
X0262804Y0145415D01*
X0262619Y0145653D01*
X0262429Y0145885D01*
X0262234Y0146114D01*
X0262033Y0146337D01*
X0261826Y0146555D01*
X0261614Y0146769D01*
X0261397Y0146977D01*
X0261175Y0147179D01*
X0260948Y0147376D01*
X0260717Y0147568D01*
X0260481Y0147754D01*
X0260240Y0147934D01*
X0259995Y0148108D01*
X0259746Y0148276D01*
X0259492Y0148438D01*
X0259235Y0148593D01*
X0258974Y0148742D01*
X0258710Y0148885D01*
X0258442Y0149022D01*
X0258171Y0149151D01*
X0257897Y0149274D01*
X0257620Y0149391D01*
X0257340Y0149500D01*
X0257057Y0149603D01*
X0256773Y0149699D01*
X0256485Y0149787D01*
X0256196Y0149869D01*
X0255905Y0149944D01*
X0255612Y0150011D01*
X0255318Y0150072D01*
X0255022Y0150125D01*
X0254725Y0150170D01*
X0254427Y0150209D01*
X0254128Y0150240D01*
X0253828Y0150264D01*
X0253528Y0150281D01*
X0253228Y0150290D01*
X0252927Y0150292D01*
X0252627Y0150286D01*
X0252326Y0150274D01*
X0252027Y0150253D01*
X0251727Y0150226D01*
X0251429Y0150191D01*
X0251131Y0150149D01*
X0250835Y0150100D01*
X0250540Y0150043D01*
X0250246Y0149979D01*
X0249954Y0149909D01*
X0249664Y0149831D01*
X0249375Y0149745D01*
X0249089Y0149653D01*
X0248805Y0149554D01*
X0248524Y0149448D01*
X0248246Y0149335D01*
X0247970Y0149216D01*
X0247697Y0149089D01*
X0247428Y0148956D01*
X0247162Y0148817D01*
X0246899Y0148671D01*
X0246640Y0148519D01*
X0246384Y0148360D01*
X0246133Y0148195D01*
X0245886Y0148024D01*
X0245643Y0147847D01*
X0245404Y0147664D01*
X0245170Y0147476D01*
X0244941Y0147282D01*
X0244717Y0147082D01*
X0244497Y0146877D01*
X0244283Y0146666D01*
X0244073Y0146450D01*
X0243869Y0146230D01*
X0243671Y0146004D01*
X0243478Y0145773D01*
X0243291Y0145538D01*
X0243109Y0145299D01*
X0242934Y0145055D01*
X0242764Y0144806D01*
X0242601Y0144554D01*
X0242444Y0144298D01*
X0242293Y0144038D01*
X0242149Y0143774D01*
X0242011Y0143507D01*
X0241879Y0143237D01*
X0241755Y0142964D01*
X0241637Y0142687D01*
X0241526Y0142408D01*
X0241421Y0142126D01*
X0241324Y0141842D01*
X0241233Y0141555D01*
X0241150Y0141266D01*
X0241074Y0140976D01*
X0241004Y0140683D01*
X0240942Y0140389D01*
X0240888Y0140094D01*
X0240840Y0139797D01*
X0240800Y0139499D01*
X0240767Y0139200D01*
X0240741Y0138901D01*
X0240723Y0138601D01*
X0240712Y0138301D01*
X0240708Y0138000D01*
X0240712Y0137699D01*
X0240723Y0137399D01*
X0240741Y0137099D01*
X0240767Y0136800D01*
X0240800Y0136501D01*
X0240840Y0136203D01*
X0240888Y0135906D01*
X0240942Y0135611D01*
X0241004Y0135317D01*
X0241074Y0135024D01*
X0241150Y0134734D01*
X0241233Y0134445D01*
X0241324Y0134158D01*
X0241421Y0133874D01*
X0241526Y0133592D01*
X0241637Y0133313D01*
X0241755Y0133036D01*
X0241879Y0132763D01*
X0242011Y0132493D01*
X0242149Y0132226D01*
X0242293Y0131962D01*
X0242444Y0131702D01*
X0242601Y0131446D01*
X0242764Y0131194D01*
X0242934Y0130945D01*
X0243109Y0130701D01*
X0243291Y0130462D01*
X0243478Y0130227D01*
X0243671Y0129996D01*
X0243869Y0129770D01*
X0244073Y0129550D01*
X0244283Y0129334D01*
X0244497Y0129123D01*
X0244717Y0128918D01*
X0244941Y0128718D01*
X0245170Y0128524D01*
X0245404Y0128336D01*
X0245643Y0128153D01*
X0245886Y0127976D01*
X0246133Y0127805D01*
X0246384Y0127640D01*
X0246640Y0127481D01*
X0246899Y0127329D01*
X0247162Y0127183D01*
X0247428Y0127044D01*
X0247697Y0126911D01*
X0247970Y0126784D01*
X0248246Y0126665D01*
X0248524Y0126552D01*
X0248805Y0126446D01*
X0249089Y0126347D01*
X0249375Y0126255D01*
X0249664Y0126169D01*
X0249954Y0126091D01*
X0250246Y0126021D01*
X0250540Y0125957D01*
X0250835Y0125900D01*
X0251131Y0125851D01*
X0251429Y0125809D01*
X0251727Y0125774D01*
X0252027Y0125747D01*
X0252326Y0125726D01*
X0252627Y0125714D01*
X0252927Y0125708D01*
X0253228Y0125710D01*
X0253528Y0125719D01*
X0253828Y0125736D01*
X0254128Y0125760D01*
X0254427Y0125791D01*
X0254725Y0125830D01*
X0255022Y0125875D01*
X0255318Y0125928D01*
X0255612Y0125989D01*
X0255905Y0126056D01*
X0256196Y0126131D01*
X0256485Y0126213D01*
X0256773Y0126301D01*
X0257057Y0126397D01*
X0257340Y0126500D01*
X0257620Y0126609D01*
X0257897Y0126726D01*
X0258171Y0126849D01*
X0258442Y0126978D01*
X0258710Y0127115D01*
X0258974Y0127258D01*
X0259235Y0127407D01*
X0259492Y0127562D01*
X0259746Y0127724D01*
X0259995Y0127892D01*
X0260240Y0128066D01*
X0260481Y0128246D01*
X0260717Y0128432D01*
X0260948Y0128624D01*
X0261175Y0128821D01*
X0261397Y0129023D01*
X0261614Y0129231D01*
X0261826Y0129445D01*
X0262033Y0129663D01*
X0262234Y0129886D01*
X0262429Y0130115D01*
X0262619Y0130347D01*
X0262804Y0130585D01*
X0262728Y0130641D01*
X0262546Y0130406D01*
X0262357Y0130175D01*
X0262163Y0129948D01*
X0261963Y0129726D01*
X0261758Y0129510D01*
X0261548Y0129298D01*
X0261333Y0129092D01*
X0261113Y0128891D01*
X0260887Y0128695D01*
X0260658Y0128505D01*
X0260423Y0128321D01*
X0260184Y0128142D01*
X0259941Y0127969D01*
X0259694Y0127803D01*
X0259442Y0127642D01*
X0259187Y0127488D01*
X0258928Y0127340D01*
X0258666Y0127198D01*
X0258400Y0127063D01*
X0258131Y0126934D01*
X0257859Y0126812D01*
X0257584Y0126696D01*
X0257306Y0126587D01*
X0257026Y0126486D01*
X0256743Y0126391D01*
X0256458Y0126303D01*
X0256171Y0126222D01*
X0255883Y0126147D01*
X0255592Y0126081D01*
X0255300Y0126021D01*
X0255006Y0125968D01*
X0254711Y0125923D01*
X0254416Y0125884D01*
X0254119Y0125853D01*
X0253822Y0125830D01*
X0253524Y0125813D01*
X0253226Y0125804D01*
X0252928Y0125802D01*
X0252629Y0125808D01*
X0252331Y0125820D01*
X0252034Y0125840D01*
X0251737Y0125868D01*
X0251441Y0125902D01*
X0251145Y0125944D01*
X0250851Y0125993D01*
X0250558Y0126049D01*
X0250267Y0126112D01*
X0249977Y0126183D01*
X0249689Y0126260D01*
X0249403Y0126344D01*
X0249119Y0126436D01*
X0248837Y0126534D01*
X0248558Y0126639D01*
X0248282Y0126751D01*
X0248008Y0126870D01*
X0247738Y0126995D01*
X0247470Y0127127D01*
X0247206Y0127266D01*
X0246945Y0127411D01*
X0246688Y0127562D01*
X0246435Y0127719D01*
X0246186Y0127883D01*
X0245940Y0128053D01*
X0245699Y0128228D01*
X0245462Y0128410D01*
X0245230Y0128597D01*
X0245003Y0128789D01*
X0244780Y0128988D01*
X0244562Y0129191D01*
X0244349Y0129400D01*
X0244141Y0129614D01*
X0243939Y0129834D01*
X0243742Y0130057D01*
X0243551Y0130286D01*
X0243365Y0130520D01*
X0243185Y0130757D01*
X0243011Y0130999D01*
X0242843Y0131246D01*
X0242681Y0131496D01*
X0242525Y0131750D01*
X0242375Y0132008D01*
X0242232Y0132270D01*
X0242095Y0132535D01*
X0241964Y0132803D01*
X0241841Y0133074D01*
X0241724Y0133349D01*
X0241613Y0133626D01*
X0241510Y0133906D01*
X0241413Y0134188D01*
X0241323Y0134472D01*
X0241241Y0134759D01*
X0241165Y0135047D01*
X0241096Y0135337D01*
X0241035Y0135629D01*
X0240980Y0135922D01*
X0240933Y0136217D01*
X0240893Y0136512D01*
X0240860Y0136809D01*
X0240835Y0137106D01*
X0240817Y0137404D01*
X0240806Y0137702D01*
X0240802Y0138000D01*
X0240806Y0138298D01*
X0240817Y0138596D01*
X0240835Y0138894D01*
X0240860Y0139191D01*
X0240893Y0139488D01*
X0240933Y0139783D01*
X0240980Y0140078D01*
X0241035Y0140371D01*
X0241096Y0140663D01*
X0241165Y0140953D01*
X0241241Y0141241D01*
X0241323Y0141528D01*
X0241413Y0141812D01*
X0241510Y0142094D01*
X0241613Y0142374D01*
X0241724Y0142651D01*
X0241841Y0142926D01*
X0241964Y0143197D01*
X0242095Y0143465D01*
X0242232Y0143730D01*
X0242375Y0143992D01*
X0242525Y0144250D01*
X0242681Y0144504D01*
X0242843Y0144754D01*
X0243011Y0145001D01*
X0243185Y0145243D01*
X0243365Y0145480D01*
X0243551Y0145714D01*
X0243742Y0145943D01*
X0243939Y0146166D01*
X0244141Y0146386D01*
X0244349Y0146600D01*
X0244562Y0146809D01*
X0244780Y0147012D01*
X0245003Y0147211D01*
X0245230Y0147403D01*
X0245462Y0147590D01*
X0245699Y0147772D01*
X0245940Y0147947D01*
X0246186Y0148117D01*
X0246435Y0148281D01*
X0246688Y0148438D01*
X0246945Y0148589D01*
X0247206Y0148734D01*
X0247470Y0148873D01*
X0247738Y0149005D01*
X0248008Y0149130D01*
X0248282Y0149249D01*
X0248558Y0149361D01*
X0248837Y0149466D01*
X0249119Y0149564D01*
X0249403Y0149656D01*
X0249689Y0149740D01*
X0249977Y0149817D01*
X0250267Y0149888D01*
X0250558Y0149951D01*
X0250851Y0150007D01*
X0251145Y0150056D01*
X0251441Y0150098D01*
X0251737Y0150132D01*
X0252034Y0150160D01*
X0252331Y0150180D01*
X0252629Y0150192D01*
X0252928Y0150198D01*
X0253226Y0150196D01*
X0253524Y0150187D01*
X0253822Y0150170D01*
X0254119Y0150147D01*
X0254416Y0150116D01*
X0254711Y0150077D01*
X0255006Y0150032D01*
X0255300Y0149979D01*
X0255592Y0149919D01*
X0255883Y0149853D01*
X0256171Y0149778D01*
X0256458Y0149697D01*
X0256743Y0149609D01*
X0257026Y0149514D01*
X0257306Y0149413D01*
X0257584Y0149304D01*
X0257859Y0149188D01*
X0258131Y0149066D01*
X0258400Y0148937D01*
X0258666Y0148802D01*
X0258928Y0148660D01*
X0259187Y0148512D01*
X0259442Y0148358D01*
X0259694Y0148197D01*
X0259941Y0148031D01*
X0260184Y0147858D01*
X0260423Y0147679D01*
X0260658Y0147495D01*
X0260887Y0147305D01*
X0261113Y0147109D01*
X0261333Y0146908D01*
X0261548Y0146702D01*
X0261758Y0146490D01*
X0261963Y0146274D01*
X0262163Y0146052D01*
X0262357Y0145825D01*
X0262546Y0145594D01*
X0262728Y0145359D01*
X0262653Y0145302D01*
X0262472Y0145536D01*
X0262285Y0145765D01*
X0262092Y0145990D01*
X0261894Y0146210D01*
X0261691Y0146425D01*
X0261482Y0146635D01*
X0261268Y0146840D01*
X0261050Y0147039D01*
X0260826Y0147233D01*
X0260598Y0147422D01*
X0260366Y0147605D01*
X0260129Y0147782D01*
X0259887Y0147953D01*
X0259642Y0148119D01*
X0259393Y0148278D01*
X0259139Y0148431D01*
X0258883Y0148578D01*
X0258622Y0148719D01*
X0258358Y0148853D01*
X0258091Y0148981D01*
X0257821Y0149102D01*
X0257549Y0149217D01*
X0257273Y0149325D01*
X0256995Y0149426D01*
X0256714Y0149520D01*
X0256432Y0149607D01*
X0256147Y0149688D01*
X0255860Y0149761D01*
X0255572Y0149828D01*
X0255282Y0149887D01*
X0254990Y0149939D01*
X0254698Y0149984D01*
X0254404Y0150022D01*
X0254110Y0150053D01*
X0253815Y0150077D01*
X0253520Y0150093D01*
X0253224Y0150102D01*
X0252928Y0150104D01*
X0252632Y0150098D01*
X0252336Y0150086D01*
X0252041Y0150066D01*
X0251746Y0150039D01*
X0251452Y0150005D01*
X0251159Y0149963D01*
X0250867Y0149915D01*
X0250577Y0149859D01*
X0250288Y0149796D01*
X0250000Y0149726D01*
X0249714Y0149649D01*
X0249430Y0149566D01*
X0249149Y0149475D01*
X0248869Y0149377D01*
X0248592Y0149273D01*
X0248318Y0149162D01*
X0248047Y0149044D01*
X0247778Y0148920D01*
X0247513Y0148789D01*
X0247251Y0148651D01*
X0246992Y0148508D01*
X0246737Y0148358D01*
X0246485Y0148201D01*
X0246238Y0148039D01*
X0245995Y0147871D01*
X0245755Y0147696D01*
X0245520Y0147516D01*
X0245290Y0147331D01*
X0245064Y0147139D01*
X0244843Y0146943D01*
X0244627Y0146741D01*
X0244416Y0146533D01*
X0244210Y0146321D01*
X0244009Y0146103D01*
X0243813Y0145881D01*
X0243623Y0145654D01*
X0243439Y0145423D01*
X0243261Y0145187D01*
X0243088Y0144947D01*
X0242921Y0144702D01*
X0242760Y0144454D01*
X0242605Y0144201D01*
X0242457Y0143945D01*
X0242315Y0143686D01*
X0242179Y0143423D01*
X0242049Y0143157D01*
X0241927Y0142888D01*
X0241810Y0142615D01*
X0241701Y0142340D01*
X0241598Y0142063D01*
X0241502Y0141783D01*
X0241413Y0141501D01*
X0241331Y0141216D01*
X0241256Y0140930D01*
X0241188Y0140642D01*
X0241127Y0140353D01*
X0241073Y0140062D01*
X0241026Y0139769D01*
X0240986Y0139476D01*
X0240954Y0139182D01*
X0240929Y0138887D01*
X0240910Y0138592D01*
X0240900Y0138296D01*
X0240896Y0138000D01*
X0240900Y0137704D01*
X0240910Y0137408D01*
X0240929Y0137113D01*
X0240954Y0136818D01*
X0240986Y0136524D01*
X0241026Y0136231D01*
X0241073Y0135938D01*
X0241127Y0135647D01*
X0241188Y0135358D01*
X0241256Y0135070D01*
X0241331Y0134784D01*
X0241413Y0134499D01*
X0241502Y0134217D01*
X0241598Y0133937D01*
X0241701Y0133660D01*
X0241810Y0133385D01*
X0241927Y0133112D01*
X0242049Y0132843D01*
X0242179Y0132577D01*
X0242315Y0132314D01*
X0242457Y0132055D01*
X0242605Y0131799D01*
X0242760Y0131546D01*
X0242921Y0131298D01*
X0243088Y0131053D01*
X0243261Y0130813D01*
X0243439Y0130577D01*
X0243623Y0130346D01*
X0243813Y0130119D01*
X0244009Y0129897D01*
X0244210Y0129679D01*
X0244416Y0129467D01*
X0244627Y0129259D01*
X0244843Y0129057D01*
X0245064Y0128861D01*
X0245290Y0128669D01*
X0245520Y0128484D01*
X0245755Y0128304D01*
X0245995Y0128129D01*
X0246238Y0127961D01*
X0246485Y0127799D01*
X0246737Y0127642D01*
X0246992Y0127492D01*
X0247251Y0127349D01*
X0247513Y0127211D01*
X0247778Y0127080D01*
X0248047Y0126956D01*
X0248318Y0126838D01*
X0248592Y0126727D01*
X0248869Y0126623D01*
X0249149Y0126525D01*
X0249430Y0126434D01*
X0249714Y0126351D01*
X0250000Y0126274D01*
X0250288Y0126204D01*
X0250577Y0126141D01*
X0250867Y0126085D01*
X0251159Y0126037D01*
X0251452Y0125995D01*
X0251746Y0125961D01*
X0252041Y0125934D01*
X0252336Y0125914D01*
X0252632Y0125902D01*
X0252928Y0125896D01*
X0253224Y0125898D01*
X0253520Y0125907D01*
X0253815Y0125923D01*
X0254110Y0125947D01*
X0254404Y0125978D01*
X0254698Y0126016D01*
X0254990Y0126061D01*
X0255282Y0126113D01*
X0255572Y0126172D01*
X0255860Y0126239D01*
X0256147Y0126312D01*
X0256432Y0126393D01*
X0256714Y0126480D01*
X0256995Y0126574D01*
X0257273Y0126675D01*
X0257549Y0126783D01*
X0257821Y0126898D01*
X0258091Y0127019D01*
X0258358Y0127147D01*
X0258622Y0127281D01*
X0258883Y0127422D01*
X0259139Y0127569D01*
X0259393Y0127722D01*
X0259642Y0127881D01*
X0259887Y0128047D01*
X0260129Y0128218D01*
X0260366Y0128395D01*
X0260598Y0128578D01*
X0260826Y0128767D01*
X0261050Y0128961D01*
X0261268Y0129160D01*
X0261482Y0129365D01*
X0261691Y0129575D01*
X0261894Y0129790D01*
X0262092Y0130010D01*
X0262285Y0130235D01*
X0262472Y0130464D01*
X0262653Y0130698D01*
M02*
